<?xml version="1.0" encoding="utf-8"?>
<!-- Generator: Adobe Illustrator 26.0.3, SVG Export Plug-In . SVG Version: 6.00 Build 0)  -->
<svg version="1.1" id="Layer_1" xmlns="http://www.w3.org/2000/svg" xmlns:xlink="http://www.w3.org/1999/xlink" x="0px" y="0px"
	 viewBox="0 0 606.3 842.2" style="enable-background:new 0 0 606.3 842.2;" xml:space="preserve">
<style type="text/css">
	.st0{fill:#3B342E;}
	.st1{fill:#3C352F;}
	.st2{fill:#0C0B0A;}
	.st3{fill:#070706;}
	.st4{fill:#3A332E;}
	.st5{fill:#FCE7DA;}
	.st6{fill:#080807;}
	.st7{fill:#91201E;}
	.st8{fill:#3E3731;}
	.st9{fill:#0A0A09;}
	.st10{fill:#0B0B0A;}
	.st11{fill:#FDE7DA;}
	.st12{fill:#110B0B;}
	.st13{fill:#FCE6DA;}
	.st14{fill:#FDE7DB;}
	.st15{fill:#F6E2D6;}
	.st16{fill:#86766C;}
	.st17{fill:#4E92CA;}
	.st18{fill:#F2E972;}
	.st19{fill:#0D0B0B;}
	.st20{stroke:#020203;stroke-miterlimit:10;}
	.st21{fill:#E30211;}
	.st22{fill:#FFFFFF;}
	.st23{fill:none;stroke:#A30A14;stroke-miterlimit:10;}
</style>
<g id="Layer_2_00000075867645207897133900000013834481143824114602_">
	<g id="Layer_1-2">
		<path class="st0" d="M288.8,382.2c1-1.3,2.2-2.5,3.5-3.6c1.7,1,3.3,2,4.8,3.1c0.7,0.6,1.5,1.2,2.3,1.7
			c10.8,5.4,21.4,11.3,32.4,16.1c21.8,9.5,43.7,18.5,65.7,27.9c0.2,0.2,0.4,0.4,0.7,0.5c0,0,0-0.1-0.1,0.2
			c5.2,11.2,10.9,22,15.9,33.2c2.5,5.6,3.6,11.9,5.3,17.8l-1.3,0.5c-0.7-1-1.4-2-2.2-2.8c-7-7.6-13.6-15.7-21.3-22.5
			c-5.2-4.4-11.2-7.8-17.6-10.1c-8.9-3.3-14.4-0.7-18.1,8c-2.7,6.4-4.8,13.1-6.2,19.9c-5,24.7-5.9,49.7-6.5,74.8
			c-0.1,4.3,0,8.7,0,13.7c-7.1-13.9-13.5-27.2-20.6-40c-4-7.1-9.3-13.5-14.2-20.1c-0.9-1.1-2.6-1.7-3.9-2.5l-0.9,0.8
			c0.4,1.6,0.8,3.1,1.2,5c0,1-0.2,1.9-0.5,2.8c-0.5,1.2-0.9,2.5-1.1,3.8c-2.1,10.5-5.5,20.4-11.6,29.4c-5.9,9-15.4,15-26,16.6
			c-2.6,0.5-4.2-0.3-5.4-3.1c-4-10.2-9.9-19.6-17.5-27.6c-4.8-5-10.1-9.3-17-11.5c-0.5,0.2-0.8,0.5-1,1c1.4,15.2,0.3,30.4-3.2,45.3
			c-5.4,22.5-15.9,41.7-35.2,55.2c-1.1,0.7-2.2,1.4-3.3,2.1c-9.2-18.9-24.5-29.2-44.2-34.2c-0.3-0.2-0.5-0.2-0.8-0.3
			c-1.8-7.4-4.3-14.6-4.8-21.9c-1.1-16.6,4-31.9,12.9-45.9c10.5-16.3,24.9-29.2,39.6-41.3c18-14.9,36.6-29,55.1-43.3
			c16.9-13.4,31.9-29,44.6-46.4C288.8,383.8,288.7,382.9,288.8,382.2z"/>
		<path class="st1" d="M294.8,364.9c0-0.2,0-0.5,0.1-0.7c0.1-0.5,0.1-1-0.1-1.5c-0.1-3.2,0-6.4,0.2-9.5c0.5-0.6,0.9-1.3,1.1-2
			c2-15.1,3.5-30.4,6.2-45.4c5.7-31.6,19.6-58.9,43.5-80.8c10-9.1,21.3-15.9,34.5-19.5c19.6-5.4,39.3-6.1,58.9,0.1
			c30.8,9.6,52.3,30.3,66.5,58.6c8,16,7.4,33.2,4.5,50.5c-3,16.7-8,32.9-14.9,48.4c-3.4,7.7-7.4,15.2-11.3,23c-2,2-3.8,3.9-5.6,5.8
			H478c-3.8,3.1-7.2,6.3-10.9,9.2c-3.4,2.6-6.9,4.9-10.5,7c0.1-10.7,1.7-20.9,7.7-29.6c6.3-9,12.9-17.8,19.6-26.4
			c8.1-10.4,15.5-21.1,19.3-34c2.8-9.6,4.3-19.3,0.8-29c-3.9-10.9-13.8-12.7-21.5-4.2c-1,1.1-2,2.3-3.3,3.8
			c1.3-12.6,0.1-23.8-11.5-30.4c-15.2-8.6-27-2.2-37.3,10.2l-12.5-41.5l-12.5,40.7c-10.7-11.4-23.2-16.1-37.6-10.5
			s-14.9,18.7-14.4,31.9c-2.5-1.4-4.5-2.8-6.8-3.9c-6.8-3.2-12.5-2-16,4.6c-2.5,4.6-4.7,10-4.8,15c-0.5,23,8.3,42.6,23.7,59.3
			c12.2,13.2,23.7,26.9,33.4,42c-0.7,0-1.4-0.1-2.1-0.3c-19.4-9.3-38.9-18.5-58.3-27.8c-3.7-1.8-7.4-3.3-11.1-4.9c0,0,0,0-0.1-0.2
			c-0.4-0.3-0.9-0.4-1.4-0.6c0,0,0,0,0-0.2c-0.2-0.2-0.4-0.4-0.7-0.6c0,0,0,0-0.1-0.2c-0.4-0.3-0.9-0.5-1.4-0.6c0,0,0,0-0.1-0.2
			c-0.6-0.3-1.1-0.5-1.7-0.7L294.8,364.9z"/>
		<path class="st2" d="M480.4,433.1c0.5,7.1,1.3,14.2,1.5,21.3c0.3,11.1,0.1,22.2,0,33.3c0,2.2-0.4,4.4-1.2,6.5
			c-4.2,12.1-8.5,24.1-13,36.1c-1.3,3.2-3.1,6.1-5.4,8.7c-3.4,4-7.3,7.5-11.2,11.6c-12.4,9.7-26.5,15-41.1,19.2
			c0.9,2.1,1.6,4,2.5,5.7c6.2,11.5,12,23.2,18.8,34.4c4.3,7.1,11.2,10.9,19.8,10.8c9.1,0,17.8-3.6,24.3-10c4.9-4.6,4.9-7,0.8-12.2
			c-1.3-1.7-2.7-3.3-4.1-4.8c-9.2-10-15.9-22.2-19.5-35.3c-0.1-0.4,0.7-1.1,1-1.7c3.3,11.5,11.9,19.4,19.4,28
			c3.3,3.8,6.8,7.3,10.1,11c6.1,6.9,5.9,13.6-1.1,19.5c-10,8.4-21.1,14.2-34.6,11.1c-10.9-2.4-20.2-9.3-25.7-19
			c-6.4-11-9.4-23.2-12.3-35.5c-0.1-0.5-0.3-0.9-0.6-1.9c-3,0.8-6,1.6-8.9,2.4c-6.1,1.6-12.3,3.2-18.4,4.7c-2.2,0.5-3,1.5-2.8,3.8
			c0.7,9.1,4.1,17.3,8.8,24.8c6.7,10.5,14.4,20.3,21.7,30.4c3,4,2.6,9.6-1,13.1c-8.3,8.8-19.6,14.1-31.7,14.8
			c-8.4,0.5-15.5-2.1-21.9-7.7c-4.3-3.9-7.7-8.8-9.6-14.3c-6.2-15.9-12.7-31.6-19.2-47.8c-2.1,0.4-4.3,0.7-6.4,1.3
			c-0.6,0.2-1,1.1-1.4,1.8c-0.2,0.4,0,1,0,1.5c-0.4,3.3,0.2,7.4-1.4,9.9c-3.5,5.3-8.4,9.2-15.2,10.5c-13.4,2.7-26.5,1.8-39.8-0.4
			c-9.1-1.5-18.4-3.5-28.3-0.5c2.3,0.6,4.1,1,5.9,1.5c6.5,1.8,13.5,2,19.1,6.8c3.9,3.3,5.4,6.4,4.2,11.3c-0.9,4.1-3.3,7.7-6.6,10.1
			c-6.3,4.5-13.2,7.2-21.2,6.8c-16.2-0.8-32.4-1-48.6-2.1c-10.1-0.7-20.1-4-27.6-10.3c-11-9.2-15.3-21.9-11.1-36.4
			c0.4-1.5,0.5-3,0.4-4.6c0.2-0.7,0.6-1.3,1.2-1.7c0,0,0.1,0.2,0.1,0.5c0,1,0.1,1.9,0.3,2.9c-1,7.3-1.2,14.3,1.7,21
			c5.7,13,16.5,20.1,29.8,21.6c18.2,2,36.6,2.2,54.9,3c2.9,0,5.7-0.5,8.5-1.3c5.3-1.3,9.6-4.1,12.1-9.2c2-4,1.5-7.1-2.2-9.4
			c-3.6-2.2-7.5-4-11.5-5.3c-11.6-3.8-23.7-4.5-35.8-5.6c0-0.4-0.1-0.6,0.2-0.7c7.4,1,13.3-1.9,18.7-5.9
			c13.1-9.7,20.9-22.9,25.2-38.3c1.9-6.8,1.7-13.8,0.2-20.8c-2-9.7-6.9-18.1-12-26.3c0.5-0.1,1-0.1,1.5,0c2,2,3.9,3.9,5.5,5.9
			c14.4,17.6,16.1,37.4,5.2,57c-5.6,10.3-13.9,18.8-24,24.7c-1.6,0.7-2.8,1.3-4.1,1.9l0.3,0.8c1.4-0.3,2.8-0.6,4.5-0.9
			c10.4-2.9,20.9-5.2,30.7-9c18.6-7.3,36.9-15.5,55.4-23.2c2.7-1.1,5.5-2,8.3-3c-0.9-5.2-1.9-10-2.6-14.8c-2.5-17.2-2.4-34.8-8-51.5
			c0.8,0.4,1.5,1,2.1,1.6c2.6,7.9,6,15.5,7.3,23.4c3.9,22.5,9,44.7,16.6,66.3c4.8,13.8,10,27.4,18.1,39.7c3.4,5.1,7.7,9.1,13.9,10.7
			c10.2,2.6,24.8-2.7,31.2-11.2c2.1-2.8,2-5.2-0.2-7.8c-3.5-4.1-7.2-8-10.5-12.2c-13.9-17.3-21.1-36.5-17.6-59.1
			c2.7-17.2,9-33.1,16.6-48.6c0.2-0.3,0.6-0.6,1-0.8c-4.4,16.8-10.4,33.1-11.2,51c19.2-4.7,38.6-7.1,56.2-16
			c17.8-9,30.4-22.7,37.7-41.3c4.5-11.9,7-24.5,7.6-37.2c0.4-7.4,0.2-14.9,0.2-22.7c-0.3-5.9-0.7-11.4-0.8-16.9L480.4,433.1z
			 M295.5,601.3l-39,13.2c10.7,0,20.5,0.2,30.4-0.1c4.7-0.1,9.4-0.6,14.1-1.6c5.7-0.9,10.5-4.6,13-9.8c0.9-1.9,0.9-4.1,1.5-7
			C308.3,597.9,302.2,599.5,295.5,601.3z"/>
		<path class="st3" d="M484.1,385.9c3.7-7.6,7.7-15.1,11.1-22.8c6.9-15.5,11.9-31.7,14.9-48.4c3-17.2,3.6-34.5-4.5-50.5
			c-14.2-28.2-35.7-48.9-66.5-58.6c-19.5-6.1-39.2-5.4-58.9-0.1c-13.1,3.6-24.5,10.4-34.5,19.5c-23.9,21.8-37.8,49.2-43.5,80.8
			c-2.7,15-4.1,30.2-6.2,45.4c-0.2,0.6-0.5,1.2-1,1.7c-2-30,3.8-59,13.5-87.3c0.1-0.5,0.2-1,0.3-1.6c2.7-5.4,5.3-10.2,7.8-15
			c0.5-0.8,0.7-1.7,0.6-2.6c-3.7-9.4-3.9-19.2-2.4-29c1.3-9,4.1-17.8,8.4-25.8l19.9,25.4c5.3-3.5,10.4-6.9,15.5-10.2
			c1-0.7,1.9-1.5,2.7-2.3c1.2,0.1,2.6,0.6,3.7,0.2c9-2.7,17.9-6.2,27-8.3c14.4-3.2,29-2.2,43.3,1c6.7,1.5,13.1,4.6,19.6,6.9
			c1.2,0.3,2.4,0.6,3.5,0.8c6,3.7,11.6,7.4,17.4,10.9c0.6,0.4,2.5-0.4,3.1-1.1c2.9-3.6,5.5-7.4,8.3-11.1c3-3.9,6.2-7.6,9.3-11.3
			c0.8,0.5,1.1,0.6,1.2,0.8c0.5,0.7,0.9,1.5,1.3,2.3c6.5,15,9.1,30.4,5.2,46.6c-0.3,1.2-0.7,2.7-0.2,3.6c2.8,5.1,5.8,10,9,15.4
			c6.6-10.3,11.5-21.6,14.6-33.5c1.6-6,1.3-12,0-18c-2.1-10-6.5-19.1-12-27.6c-4.8-7.2-10.2-14-15.6-21.3
			c-11.5,10.1-22.1,21.1-31.8,32.9c-2,2.4-4.5,4.5-6.7,6.7c10.5-17.5,23.6-33.3,39-46.7c4.6,5.4,9.5,10.5,13.9,16.1
			c8.2,10.7,14.3,22.9,17.9,35.8c3,10.6,0,20.5-3.6,30.2c-3.4,9.3-7.6,18.2-14.2,25.7c-0.6,0.8-0.9,1.9-0.6,2.9
			c8.7,25.1,4.3,49.5-3.9,73.6c-5.7,16.5-13.3,32.3-22.7,47.1c-0.8,1.4-1.8,2.6-2.9,3.8C484.2,387.8,484.1,386.9,484.1,385.9z
			 M320.8,221.3c-1.3,7.5-2.5,15-1.5,22.8l22.4-26L325,202.5C323.5,209.1,322.2,214.9,320.8,221.3z M491.9,205.8l-11.3,13.3l21,22
			c0.3-13.2-2.6-25.6-6.4-38.4C493.9,203.9,493,204.7,491.9,205.8L491.9,205.8z"/>
		<path class="st4" d="M361.5,204.1c-0.8,0.9-1.7,1.8-2.7,2.5c-5,3.4-10.1,6.7-15.5,10.2l-19.9-25.4c-4.3,8-7.2,16.8-8.4,25.8
			c-1.5,9.8-1.3,19.6,2.4,29c0.1,0.9-0.1,1.9-0.6,2.6c-2.5,4.9-5.1,9.7-7.8,14.8c-0.5-0.1-1-0.5-1.5-1.4c-0.3-0.5-0.6-1-1-1.4
			c0.1,0,0.2-0.1,0.2-0.2c0,0,0,0,0,0c-3-6.5-6.1-12.7-9-19c-6.3-13.7-7.9-27.5-2-41.9c3.9-9.6,9-18.6,15.3-26.8
			c3.1-4.1,6.4-8.1,10.1-12.8c9.8,10.4,19.1,20.3,28.4,30.1c2.7,2.8,5.5,5.5,8.3,8.2c0,0-0.1,0,0,0.2c0.5,0.7,1,1.4,1.5,2
			c0.3,0.3,0.6,0.7,0.8,1.1c0.2,0.4,0.4,0.8,0.6,1.1C361,203.4,361.3,203.7,361.5,204.1z"/>
		<path class="st4" d="M461.4,200.2c2.4-2.1,4.8-4.4,6.9-6.8c9.7-11.8,20.3-22.8,31.8-32.9c5.4,7.3,10.8,14.1,15.6,21.3
			c5.6,8.4,10,17.6,12,27.6c1.2,6,1.6,12.1,0,18c-3.1,11.9-8,23.2-14.6,33.6c-3.2-5.4-6.3-10.3-9-15.4c-0.5-0.9,0-2.4,0.2-3.6
			c3.9-16.2,1.3-31.6-5.2-46.6c-0.4-0.8-0.8-1.5-1.3-2.3c-0.1-0.2-0.4-0.3-1.2-0.8c-3,3.7-6.2,7.4-9.3,11.3
			c-2.8,3.6-5.4,7.5-8.3,11.1c-0.6,0.8-2.5,1.5-3.1,1.1c-5.8-3.5-11.4-7.2-17.1-11C459.6,203.3,460.5,201.7,461.4,200.2z"/>
		<path class="st5" d="M453.5,556.5c-0.4,0.8-1.1,1.5-1,2c3.6,13.2,10.2,25.3,19.5,35.3c1.4,1.6,2.8,3.2,4.1,4.8
			c4.1,5.2,4.1,7.5-0.8,12.2c-6.5,6.4-15.2,10-24.3,10c-8.5,0.1-15.5-3.7-19.8-10.8c-6.7-11.2-12.6-22.9-18.8-34.4
			c-0.9-1.7-1.6-3.6-2.5-5.7c14.7-4.3,28.7-9.6,41-19C452,552.6,452.9,554.5,453.5,556.5z"/>
		<path class="st6" d="M148.6,599.7c-1.9-2.2-3.9-4.2-5.7-6.5c-2.9-3.8-5.6-7.8-8.8-11.8c-0.1-1.2,0.6-2.4,0.3-3.3
			c-10.7-32.3-0.8-59.8,20.9-83.6c9.6-10.5,21.1-19.5,32.3-28.3c18.5-14.6,37.4-28.6,56.3-42.6c16.3-12.1,31.3-25.9,44.5-41.2
			c0.2,0.7,0.1,1.4-0.2,2c-12.7,17.4-27.7,33-44.6,46.4c-18.4,14.3-37.1,28.5-55.1,43.3c-14.8,12.2-29.1,25-39.6,41.4
			c-8.9,14-14,29.3-12.9,45.9c0.5,7.3,3,14.5,4.8,22.2c0.3,0.5,0.6,1.1,0.9,1.6c4.1,7.8,10.2,13.5,16.6,19.1c-0.2,0.4-0.6,0.6-1,0.7
			c-3-1.7-5.7-3.4-8.5-5c-0.1,0-0.1,0-0.2,0L148.6,599.7z"/>
		<path class="st7" d="M294.8,365.3c3.8,1.5,7.4,3.1,11,5c0.5,0.3,1.1,0.5,1.7,0.7c0,0,0,0,0.1,0.2c0.4,0.3,0.9,0.5,1.4,0.6
			c0,0,0,0,0,0.2c0.2,0.2,0.4,0.4,0.7,0.6c0,0,0,0,0.1,0.2c0.4,0.3,0.9,0.5,1.4,0.6c0,0,0,0,0.1,0.2c35.1,20.3,70.7,39.1,110.3,48.3
			l-2.2,8.4c-1.1-0.3-2.3-0.6-3.4-1.1c-33.2-13.2-66.4-26.5-99.5-39.7c-6.5-2.6-13-5.3-19.6-7.9c-1.5-0.9-2.9-1.8-4.5-3
			C296.1,374.5,294.2,369.9,294.8,365.3z"/>
		<path class="st8" d="M479.5,433c0.3,5.5,0.7,11,0.8,17c-7.5,6.4-13.8,13.1-16.8,22.8c-0.3-0.5-0.6-1.1-0.8-1.7
			c-1.9-12.7-3.7-25.3-5.6-38c-0.3-2.1-0.9-4.2-1.3-6.5c4.5-3.7,8.9-7.2,13.3-10.7c0,0,0,0,0.2,0c0.5-0.4,0.9-0.9,1.3-1.5
			c0,0,0,0,0.2,0c0.5-0.2,0.9-0.5,1.3-0.8c0,0-0.1,0,0.1-0.1c0.3-0.2,0.5-0.6,0.7-0.9c0.3-0.5,0.5-0.8,0.7-1.2
			c1.2,3,2.4,6.1,3.4,9.6C477.9,425.3,478.7,429.2,479.5,433z"/>
		<path class="st9" d="M357.7,198.3c-2.7-2.5-5.5-5.1-8.2-7.9c-9.3-9.8-18.6-19.7-28.4-30.1c-3.7,4.7-7,8.7-10.1,12.8
			c-6.3,8.2-11.4,17.2-15.3,26.8c-5.9,14.3-4.3,28.2,2,41.9c2.9,6.3,6,12.5,9,19.1c-8.9-11.1-16.8-23-19.2-37.6
			c-2.6-15.7,2.3-30,11-42.8c6.5-9.5,14.4-18.1,21.8-27.3C335.5,166.4,347.3,181.6,357.7,198.3z"/>
		<path class="st7" d="M473.8,411.2c-0.2,0.6-0.5,1.1-0.9,1.6c-0.2,0.3-0.5,0.6-0.7,0.9H472c-0.5,0.2-0.9,0.5-1.3,0.8c0,0,0,0-0.2,0
			c-0.5,0.4-0.9,0.9-1.3,1.5H469c-5.5,3.3-10.7,6.7-16,9.9c-4.2,2.5-8.5,4.7-12.8,7c1.1-4.4,1.1-7.9-1.8-11
			c15.8-5.9,27.5-16.8,38.9-27.9c0.4-0.6,0.8-1.2,1-1.9h0.3c0.9-0.2,1.6-0.4,2.5-0.7c-0.5,2-0.9,3.6-1.3,5.3c0,0,0-0.1-0.2,0
			c-0.2,0.3-0.4,0.6-0.5,0.9c-1.6,2.6-3,5.4-4.8,7.8C472.8,406.9,472.6,409.3,473.8,411.2z"/>
		<path class="st4" d="M480,396.3c0.3-1.7,0.6-3.4,1.1-5.1c-0.9,0.3-1.6,0.5-2.5,0.7c1.7-2,3.5-4,5.3-5.8c0.2,0.9,0.3,1.8,0.3,2.7
			C483,391.4,481.6,393.9,480,396.3z M481.7,389.9l-0.1,0.2C481.6,390.1,481.7,390.1,481.7,389.9L481.7,389.9z"/>
		<path class="st4" d="M479.8,433c-1.1-3.8-1.9-7.8-2.5-11.7c1.2,3.6,2.2,7.4,3.2,11.5C480.3,433.1,480.1,433.1,479.8,433z"/>
		<path class="st10" d="M144.3,604.5c0.3-0.7,0.7-1.4,1.3-2C145.3,603.3,144.9,604,144.3,604.5z"/>
		<path class="st10" d="M129.7,584.4c-0.5,0.7-1.1,1.3-1.8,1.8C128.4,585.5,129,584.9,129.7,584.4z"/>
		<path class="st9" d="M359.2,200.6c-0.6-0.5-1.1-1.1-1.5-1.8C358.3,199.3,358.8,199.9,359.2,200.6z"/>
		<path class="st9" d="M306.5,261.1c0.4,0.2,0.7,0.6,0.9,1C307,261.8,306.7,261.5,306.5,261.1z"/>
		<path class="st3" d="M294.8,363c0.2,0.3,0.2,0.7,0.2,1C294.8,363.8,294.8,363.5,294.8,363z"/>
		<path class="st4" d="M479.3,397.3c-0.1-0.2,0-0.4,0.3-0.8C479.7,396.7,479.6,396.9,479.3,397.3z"/>
		<path class="st9" d="M360.6,202.8c-0.1,0-0.3-0.2-0.6-0.7C360.1,202.1,360.4,202.4,360.6,202.8z"/>
		<path class="st11" d="M455.8,426.8c0.5,2.1,1.1,4.1,1.4,6.3c1.9,12.7,3.7,25.3,5.6,38c0.2,0.6,0.5,1.2,0.8,1.7
			c3-9.7,9.2-16.4,16.8-22.5c0.2,7.3,0.4,14.8,0,22.2c-0.5,12.7-3.1,25.3-7.6,37.2c-7.3,18.6-19.9,32.3-37.7,41.3
			c-17.6,8.9-37,11.3-56.2,16c0.8-18,6.8-34.2,11.2-51c-0.3,0.3-0.8,0.5-1,0.8c-7.6,15.5-13.9,31.4-16.6,48.6
			c-3.6,22.6,3.7,41.8,17.6,59.1c3.4,4.2,7,8.1,10.5,12.2c2.2,2.5,2.2,5,0.2,7.8c-6.4,8.5-21,13.8-31.2,11.2
			c-6.2-1.6-10.5-5.6-13.9-10.7c-8.2-12.2-13.3-25.9-18.1-39.7c-7.6-21.6-12.7-43.8-16.6-66.3c-1.4-7.9-4.7-15.5-7.3-23.7
			c-2.1-4.3-4.1-8.1-6-11.8l-1.2-4.7l0.9-0.8c1.3,0.8,3,1.3,3.9,2.5c4.9,6.6,10.2,13,14.2,20.1c7.2,12.8,13.5,26.1,20.6,40
			c0-5-0.1-9.4,0-13.7c0.6-25.1,1.5-50.1,6.5-74.8c1.4-6.8,3.5-13.5,6.2-19.9c3.7-8.8,9.2-11.4,18.1-8c6.4,2.3,12.4,5.7,17.6,10.1
			c7.7,6.8,14.3,14.9,21.3,22.5c0.8,0.9,1.5,1.9,2.2,2.8l1.3-0.5c-1.7-6-2.8-12.2-5.3-17.8c-4.9-11.1-10.6-22-15.6-33.3
			c9,2.5,17.7,5.3,26.8,8.3c-3.8,3.1-7.3,5.9-10.7,8.8c-3.3,2.8-3.3,5.6,0,8.4c3.5,3,7.1,5.9,10.7,8.7c3.8,3,7,2.9,10.8-0.1
			c3.4-2.7,6.8-5.5,10.1-8.3c4-3.3,4-5.8,0.1-9.1c-3-2.5-6-4.9-8.4-6.9L455.8,426.8z"/>
		<path class="st11" d="M149,599.9c2.7,1.6,5.4,3.3,8.5,5.3c2.8,1.8,5.2,3.3,7.8,5c0.7,0.4,1.5,0.8,2.3,1.1l0.2-1
			c-0.9-0.1-1.8-0.3-2.6-0.6c-2.2-2.1-4.4-3.9-6.6-5.7c-6.6-5.3-12.6-11.1-16.7-19.1c0-0.4,0-0.8,0.1-1.2c19.5,4.8,34.8,15.1,44,34
			c1.1-0.7,2.2-1.3,3.3-2.1c19.2-13.6,29.8-32.7,35.1-55.2c3.5-14.8,4.6-30.1,3.4-45.3c0.3-0.3,0.7-0.6,1.1-0.9
			c6.7,2.2,12,6.5,16.8,11.4c7.5,8,13.5,17.4,17.5,27.6c1.1,2.8,2.7,3.6,5.4,3.1c10.6-1.6,20.1-7.6,26-16.6
			c6-8.9,9.4-18.9,11.6-29.4c0.2-1.3,0.7-2.5,1.4-3.6c1.5,2.3,2.8,4.8,3.9,7.3c5.9,16.6,5.7,34.2,8.2,51.4c0.7,4.8,1.7,9.5,2.6,14.8
			c-2.8,1-5.6,1.8-8.3,3c-18.5,7.8-36.7,15.9-55.4,23.2c-9.8,3.8-20.2,6.1-30.7,8.7c-0.2-0.5-0.4-1-0.4-1.5
			c10-6,18.2-14.5,23.8-24.7c10.9-19.7,9.2-39.4-5.2-57c-1.6-2-3.5-3.9-5.6-6.2c-0.9-0.9-1.9-1.7-2.9-2.5c-0.1,0-0.6,0.6-0.9,0.9
			l2.1,2c5.4,8.1,10.2,16.5,12.2,26.2c1.5,7,1.7,13.9-0.2,20.8c-4.4,15.4-12.2,28.7-25.2,38.3c-5.4,4-11.3,6.9-18.9,5.7
			c-3-0.4-5.4-0.6-7.8-0.8l-0.2,1.5l8,0.5c12.1,0.8,24.2,1.5,35.8,5.3c4,1.3,7.9,3.1,11.5,5.3c3.8,2.3,4.2,5.4,2.2,9.4
			c-2.5,5.1-6.8,7.8-12.1,9.2c-2.8,0.8-5.6,1.3-8.5,1.3c-18.3-0.8-36.7-0.9-54.9-3c-13.3-1.5-24.1-8.6-29.8-21.6
			c-2.9-6.6-2.7-13.6-1.5-21.4C149.2,601.7,149.2,600.8,149,599.9z M235.1,521.1l-0.7,0.9l0.9,0.5
			C235.3,522,235.3,521.5,235.1,521.1L235.1,521.1z"/>
		<path class="st12" d="M455.9,426.6c-6.1,3.9-12.2,7.5-18.2,11.2c2.5,2,5.5,4.4,8.4,6.9c3.9,3.3,3.9,5.8-0.1,9.1
			c-3.3,2.8-6.7,5.5-10.1,8.3c-3.8,3-7.1,3.1-10.8,0.1c-3.6-2.9-7.2-5.8-10.7-8.7c-3.3-2.8-3.3-5.6,0-8.4c3.4-2.9,6.9-5.7,10.7-8.8
			c-9.1-3-17.8-5.9-26.7-8.6c-0.3,0.1-0.3,0.2-0.2,0c-0.2-0.3-0.5-0.4-0.8-0.5c-21.9-9.2-43.9-18.2-65.7-27.7
			c-11-4.9-21.6-10.7-32.4-16.1c-0.8-0.5-1.6-1-2.3-1.7c6.4,2.4,12.9,5.1,19.4,7.7c33.2,13.3,66.4,26.5,99.6,39.7
			c1.1,0.5,2.4,0.8,3.4,1.1l2.2-8.4c-39.6-9.2-75.2-28-110.4-48.3c3.6,1.4,7.4,3,11.1,4.7c19.4,9.3,38.8,18.6,58.2,27.8
			c0.8,0.2,1.5,0.3,2.3,0.4c2,1,3.4,2,5,2.6c14.2,4.7,27.9,11.3,43.6,10.3c3.7-0.2,7.4,0.4,10.8-1.3c3.8-1.9,7.5-4,11.1-6.2
			c1.3-0.8,2.2-2.2,3.2-3.3c3.5-2.4,7.1-4.7,10.4-7.3c3.7-2.9,7.1-6.1,10.9-9.2c-0.1,0.7-0.3,1.4-0.8,1.9
			c-11.4,11.2-23,22-38.9,27.9c2.9,3.1,2.9,6.6,1.8,11c4.3-2.3,8.6-4.5,12.8-7c5.3-3.2,10.5-6.6,16-9.9
			C464.9,419.4,460.5,422.9,455.9,426.6z M414.6,449.2c0.2,0.6,0.3,1.3,0.7,1.7c4.3,3.6,8.5,7.3,13.1,10.5c1.1,0.8,3.9,0.2,5.3-0.7
			c3.8-2.6,7.2-5.7,10.8-8.6c2.2-1.8,2.5-3.6,0.1-5.5c-3.7-3-7.2-6.1-11.1-8.9c-1.3-0.9-4-1.5-5-0.7
			C423.7,440.8,419,444.9,414.6,449.2z M428.8,421.1c-5.3,1.6-7.6,5.1-5.7,8.8c1.6,3.2,6.2,4.9,10,3.7c3.4-1,5.7-3.9,5.4-6.7
			c-0.4-3.3-3.5-5.6-8-5.9C429.9,420.9,429.3,421,428.8,421.1L428.8,421.1z"/>
		<path class="st13" d="M311.5,514c-1.4-2.4-2.5-4.8-3.9-7.4c-0.1-0.9-0.1-1.9,0-2.8c2,3.5,4,7.2,5.9,11.3
			C312.8,514.8,312.1,514.4,311.5,514z"/>
		<path class="st13" d="M228.6,514.1c-0.1,0.3-0.3,0.5-0.8,0.7C227.9,514.4,228.2,514.2,228.6,514.1z"/>
		<path class="st13" d="M141.8,583.5c0.1,0.3,0.2,0.7,0.1,1.1c-0.2,0-0.4-0.3-0.7-0.9C141.3,583.3,141.4,583.3,141.8,583.5z"/>
		<path class="st11" d="M397.5,427.4c0.2-0.1,0.5,0,0.8,0.3C398,427.8,397.7,427.7,397.5,427.4z"/>
		<path class="st14" d="M456.6,408.1c-0.8,1.4-1.9,2.7-3.1,3.7c-3.6,2.2-7.3,4.3-11.1,6.2c-3.4,1.7-7.1,1.1-10.8,1.3
			c-15.7,1-29.4-5.6-43.6-10.3c-1.7-0.7-3.3-1.6-4.8-2.6c-10.1-15.2-21.7-28.9-33.9-42.1c-15.4-16.6-24.2-36.3-23.7-59.2
			c0.1-5.1,2.3-10.5,4.8-15c3.6-6.5,9.3-7.8,16-4.6c2.2,1,4.3,2.4,6.8,3.9c-0.5-13.2-0.1-26.3,14.4-31.9s26.9-1,37.6,10.5l12.5-40.7
			l12.5,41.5c10.3-12.5,22.1-18.8,37.3-10.2c11.6,6.6,12.9,17.8,11.5,30.4c1.3-1.5,2.3-2.7,3.3-3.8c7.8-8.5,17.6-6.7,21.5,4.2
			c3.5,9.7,2,19.4-0.8,29c-3.8,12.8-11.2,23.5-19.3,34c-6.7,8.7-13.4,17.4-19.6,26.4C458.3,387.2,456.7,397.4,456.6,408.1z
			 M457.3,348.6c-1.8,5.1-5.1,9.5-9.4,12.8c-9.8,7.7-21.5,5.5-28.1-5.4c2.1-1.1,4-2.4,5.9-3.8c2.1-1.6,3.9-3.4,5.4-5.6
			c2.7-4.4,0.6-9.4-4.5-9.8c-7.5-0.5-14.9-0.5-22.4,0c-5,0.4-7.2,5.6-4.4,9.9c1.6,2.4,4.1,4.3,6.4,6.2c1.8,1.3,3.7,2.5,5.7,3.5
			c-3,2.6-5.6,5.1-8.5,7.1c-4.5,3-9.6,3.8-14.6,1.4c-8.7-4.1-14.4-10.9-16.2-20.6c-1.7-9,0.9-17.3,3.9-25.5c0.3-0.9,0.5-1.9,0.8-2.8
			c-4.3,5.3-7.1,11.5-8.4,18.2c-3.6,18.8,7,33.7,26.1,36.9c0.9,0.2,1.8,0.7,2.6,1.3c7,4.9,15,7.1,23.1,4.9c9-2.4,17.6-6.2,26.4-9.4
			c0.1-0.1,0.2-0.1,0.3-0.2c18.4-11.7,18.2-30.2,9.9-45.9c-0.3-0.6-1.3-0.8-2.8-1.5C458.4,329.8,460.5,338.6,457.3,348.6z M384,282
			c-4-3.2-8.9-3.4-11.4-0.5c-3.4,4-3.5,8.7-0.3,12c2.8,2.9,7.3,3.3,10.5,0.9C386.7,291.6,387.2,287.2,384,282z M450.6,279.7
			c-3.2,1.2-5.5,4.1-5.9,7.4c-0.7,3.8,2.3,7.7,6.2,8.7c3.8,0.9,7.7-1.1,9.2-4.6C462.8,285.1,458.5,279.4,450.6,279.7L450.6,279.7z"
			/>
		<path class="st12" d="M307.4,370.8c-0.5,0-1-0.1-1.4-0.4C306.5,370.3,307,370.5,307.4,370.8z"/>
		<path class="st12" d="M308.9,371.5c-0.5,0-0.9-0.1-1.3-0.4C308,371.1,308.5,371.2,308.9,371.5z"/>
		<path class="st12" d="M311.1,373c-0.5,0-0.9-0.1-1.3-0.4C310.3,372.6,310.7,372.7,311.1,373z"/>
		<path class="st12" d="M309.7,372.3c-0.2,0.1-0.4-0.1-0.7-0.4C309.2,371.8,309.4,371.9,309.7,372.3z"/>
		<path class="st15" d="M295.8,601.2c6.4-1.7,12.5-3.3,19.7-5.2c-0.6,2.9-0.6,5.1-1.5,7c-2.5,5.2-7.3,8.8-13,9.8
			c-4.6,0.9-9.3,1.5-14.1,1.6c-9.8,0.2-19.7,0.1-30.4,0.1L295.8,601.2z"/>
		<path class="st13" d="M206.3,618c-2.6,0.1-5.3,0-8-0.2l0.2-1.5c2.4,0.2,4.8,0.4,7.4,0.8C206.2,617.3,206.3,617.7,206.3,618z"/>
		<path class="st13" d="M238.8,526c-0.8-0.6-1.6-1.2-2.3-1.9c0.3-0.3,0.9-0.9,0.9-0.9c1,0.7,1.9,1.5,2.7,2.4
			C239.7,525.9,239.2,526,238.8,526z"/>
		<path class="st13" d="M227,613.6c0.3,0.4,0.4,0.9,0.4,1.5c-1.3,0.5-2.7,0.9-4.2,1.2l-0.3-0.8C224.2,614.9,225.4,614.3,227,613.6z"
			/>
		<path class="st1" d="M148.9,599.9c0.2,0.8,0.3,1.6,0.2,2.4c-0.4-0.3-0.5-1-0.5-2.1C148.7,599.9,148.9,599.9,148.9,599.9z"/>
		<path class="st16" d="M320.8,221c1.4-6.1,2.7-11.9,4.2-18.4l16.6,15.6l-22.4,26C318.3,236.3,319.5,228.8,320.8,221z"/>
		<path class="st16" d="M492,205.6c1-0.9,1.8-1.7,3.1-2.9c3.9,12.8,6.8,25.1,6.4,38.4l-21-22C484.1,214.9,488,210.3,492,205.6z"/>
		<path class="st13" d="M165.1,610c-2.5-1.5-4.9-3-7.4-4.7c0.2-0.4,0.4-0.7,0.7-1c2.4,1.7,4.6,3.5,6.7,5.5
			C165.2,610,165.1,610,165.1,610z"/>
		<path class="st12" d="M469.5,415.8c0.2-0.6,0.6-1.1,1.1-1.4C470.3,415,470,415.5,469.5,415.8z"/>
		<path class="st12" d="M471,414.4c0.3-0.3,0.7-0.6,1.1-0.8C471.8,414,471.4,414.2,471,414.4z"/>
		<path class="st12" d="M472.4,413.5c0-0.1,0.1-0.3,0.4-0.6C472.9,413.1,472.7,413.3,472.4,413.5z"/>
		<path class="st7" d="M481.7,390c0,0.1-0.1,0.1-0.1,0.1S481.6,389.9,481.7,390z"/>
		<path class="st13" d="M165.2,609.9l2.6,0.3l-0.2,1c-0.8-0.3-1.5-0.7-2.3-1.1C165.1,610,165.2,610,165.2,609.9z"/>
		<path class="st13" d="M235.2,521.3c0.1,0.4,0.1,0.8,0,1.2l-0.9-0.5C234.6,521.7,234.9,521.4,235.2,521.3z"/>
		<path class="st17" d="M414.6,449c4.6-4.2,9.1-8.3,13.9-12c1-0.7,3.7-0.2,5,0.7c3.9,2.7,7.4,5.9,11.1,8.9c2.4,1.9,2.1,3.7-0.1,5.5
			c-3.6,2.9-7,6-10.8,8.6c-1.4,0.9-4.2,1.5-5.3,0.7c-4.6-3.2-8.8-6.9-13.1-10.5C414.9,450.6,414.8,449.8,414.6,449z"/>
		<path class="st18" d="M429.1,421c0.5-0.1,1-0.1,1.4-0.1c4.5,0.3,7.6,2.6,8,5.9c0.3,2.8-1.9,5.7-5.4,6.7c-3.8,1.2-8.4-0.5-10-3.7
			C421.2,426.1,423.4,422.7,429.1,421z"/>
		<path class="st19" d="M457.3,321.6c-0.3-0.6-1.3-0.8-2.8-1.5c3.8,9.8,5.9,18.6,2.8,28.2c-1.8,5.2-5.1,9.7-9.5,13
			c-9.8,7.7-21.5,5.5-28.1-5.4c2.1-1.1,4-2.4,5.9-3.8c2.1-1.6,3.9-3.4,5.4-5.6c2.7-4.4,0.6-9.4-4.5-9.8c-7.5-0.5-14.9-0.5-22.4,0
			c-5,0.4-7.2,5.6-4.4,9.9c1.6,2.4,4.1,4.3,6.4,6.2c1.8,1.3,3.7,2.5,5.7,3.5c-3,2.6-5.6,5.1-8.5,7.1c-4.5,3-9.6,3.8-14.6,1.4
			c-8.7-4.1-14.4-10.9-16.2-20.6c-1.7-9,0.9-17.3,3.9-25.5c0.3-0.9,0.5-1.9,0.8-2.8c-4.3,5.3-7.1,11.5-8.4,18.2
			c-3.6,18.8,7,33.7,26.1,36.9l0.2,0c0.2,0,0.4,0,0.6,0h0.1h0.1c0.3,0,0.6,0,0.9,0.1h0.1c0.2,0,0.3,0,0.5,0c0.2,0,0.3,0,0.5,0h0.5
			c0.1,0,0.3-0.1,0.4-0.1c0.3-0.1,0.5-0.1,0.8,0h0.2h0.1h0.2l0.2-0.1c0.1,0,0.2,0,0.3,0h0.1h0.1l0.2-0.1l-0.1,0.1
			c0.1,0,0.1-0.1,0.2-0.1l0.1-0.1c0.1-0.1,0.2-0.1,0.3-0.1l14.2-9.5l9.7,7c1.8,0.9,3.2,1.4,5.3,2.4l-0.4,0.1h0.1h0.1h0.2l0,0
			c-0.2,0,0.1,0,0,0l0,0c0.1,0,0.3,0,0.4,0.1H431c0.1,0,0.2,0.1,0.3,0.1c0.1,0,0.1,0.1,0.2,0.1h0.1l0,0c0,0,0.1,0,0.1,0
			c0.1,0,0.3,0,0.4,0.1c0.1,0,0.3,0,0.4,0c0.1,0,0.2,0,0.4,0.1l0.1,0.1l0,0c0,0,0,0,0,0l0,0h0c0.1,0,0.1,0,0.1,0l0.2,0
			c0.2,0,0.2,0,0.1,0h0.1h0.3c-0.2,0,0.1,0,0.2,0h0.2l0,0c0.2,0,0.2,0,0.1,0c0.1,0,0.3,0,0.4,0h0.2c0.2,0,0.3,0,0.5,0
			c0.2,0,0.3-0.1,0.6-0.1h0.2l0,0c0.1,0,0.1,0,0.2,0c0,0,0.1-0.1,0,0l0.1-0.1l0.1-0.1l0,0c0.2-0.2,0.4-0.2,0.6,0
			c0.2,0,0.3-0.1,0.5-0.1c0.2,0,0.4,0,0.6,0l0,0l0.3-0.1c0.2-0.1,0.4-0.2,0.6-0.3c0.1,0,0.7-0.1,0.5-0.1l0,0h0.2
			c2.4-0.9,4.8-1.9,7.2-2.7c0.1-0.1,0.2-0.1,0.3-0.2C465.8,355.8,465.6,337.2,457.3,321.6z"/>
		<path class="st9" d="M384.2,282.2c3,5,2.4,9.4-1.3,12.2c-3.2,2.4-7.7,2.1-10.5-0.9c-3.2-3.3-3.1-8,0.3-12
			C375.1,278.6,380.1,278.8,384.2,282.2z"/>
		<path class="st19" d="M450.9,279.6c7.5-0.2,11.9,5.5,9.2,11.5c-1.6,3.6-5.4,5.5-9.2,4.6c-3.9-1-6.9-4.8-6.2-8.7
			C445.2,283.6,447.6,280.7,450.9,279.6z"/>
		<path class="st15" d="M425.6,368.2c1.6,0.7,2.9,1.3,5,2.2c-9.6,3-19.8,3.1-29.4,0.4l14.4-9.8C418.6,363.1,422,365.6,425.6,368.2z"
			/>
		<path class="st20" d="M385.4,367.9c1.1,16.7,15.5,29.4,32.3,28.3c4.9-0.3,9.6-1.8,13.8-4.3c8.9-5.4,14.6-15.6,13.8-26"/>
		<path class="st20" d="M404,369.2c1.9-2.9,4-5.7,7-7.5s6.9-2.3,9.8-0.5c2.6,1.6,4,4.8,4.6,7.8"/>
		<path class="st21" d="M388.9,368.4c3.2,6.5,4.8,13.6,6.9,20.5s5,13.8,10.3,18.8s13.4,7.4,19.9,4.2c6-2.9,9.2-9.6,11.2-16
			c2.9-9.1,4.6-18.6,5-28.2"/>
		<path class="st22" d="M444.8,366.5c-0.6,3.3-1.6,6.6-3,9.6c-0.3,0.7-0.7,1.4-1.5,1.6c-0.7,0.1-1.3-0.2-1.7-0.7
			c-0.4-0.5-0.6-1.1-0.8-1.8c-0.9-2.9-1.7-5.8-2.4-8.7c0,0-0.1,0.1-0.1,0s0-0.1,0.1-0.1"/>
		<path class="st22" d="M398.6,368.8c0.1,3.2-0.6,6.5-2,9.4c-0.5,1-1.3,2.1-2.5,2.1s-1.7-0.9-2.2-1.8c-2-3.4-3.1-7.3-3-11.2v0.1"/>
		<path class="st23" d="M416.2,371.6c2.3,12.4,2.8,25.1,1.6,37.7"/>
		<path class="st1" d="M147.9,551.2c-0.6-0.3,2.2-1.1,1.4-1.3c-0.6-0.1-1.2-0.4-1.6-0.8c-0.8-0.4-1.7-0.7-2.7-0.9
			c-0.6-0.1-0.4-1-0.9-1.5c-1.8-1.4-4.1,1.3-6,0.6c-8.7-3.4-18.9-7.7-28-7.3c-12.9,0.6-20.2,5.7-24.1,17.8c-0.6,2-5.6,4.2-6.9,5.8
			c1.1-13.1,4.9-25,14.3-35.1c-11.2-0.2-26.1,4-35.7,10.1c1.9-6.7,12.8-16.3,16.9-21c11.7-13.3,23.9-15.7,41-15.4
			c10.5,7.6,24.1,14.7,34.4,22.2c0.8,0.5-1.3,0.8-0.2,0.8c1.2,0.5,5.7,0.5,6.9,1.4c0.9,0.8-1.6,1.6-0.8,2c1.5,0.8,2.8,1.7,4.1,2.8
			c-2.6,4.5-2.1,7.9-4.7,11.9C154,545.6,149.3,548.7,147.9,551.2z"/>
		<path class="st10" d="M151.1,525.5c-0.9,0.1-2.3,0.4-3-0.1c-10.3-7.5-20.5-15.1-31-23c-3.1-2.5-5.7-5.2-8.8-6.9
			c-13.5-7.6-27.6-9.9-41.7-2.2C53.4,500.4,46,512.4,43.1,527c-0.6,3-0.4,6.2,0.5,9.2c1.3,3.4,0.3,5.1-2.5,6.5
			c-1.4,0.7-2.8,1.5-4.3,2.2c-6.9,3-14,3-21.5,1.2c0.2,0.6,0.5,1.2,0.8,1.7c6.9,10,15.6,18.6,25.6,25.4c4.8,3.3,10,5.6,15.9,6
			c10.2,0.7,21.1-6.3,22.9-14.8c1.2-1.8,2.7-3.5,3.4-5.5c3.9-12,12-18.2,24.7-18.9c9.5-0.5,18.5,1.8,27.2,5.2
			c1.9,0.8,3.6,1.9,5.2,3.2c-7.6-1.6-15.1-3.9-22.7-5c-9.3-1.3-18,1.5-25.7,7c-1.2,1-2,2.4-2.4,3.9c-1,2.8-1.6,5.8-2.5,8.6
			c-2.5,8-8.8,13.1-14.3,18.7c-1.1,1.2-3.4,1.6-5.2,1.7c-7.2,0.1-14.4,0-21.6-0.3c-1.7-0.1-3.3-0.8-4.6-1.9
			c-9.3-8.3-18.6-16.5-27.6-25.2c-2.4-2.3-3.7-5.8-5.4-8.8c-3-5.5-5.8-11.2-9.1-17.7c3.8,2.2,6.7,4.1,9.7,5.8
			c7.6,4.3,15.6,4.8,23.8,2.1c2-0.7,2.7-1.7,3-4c0.9-6.6,1.8-13.4,3.9-19.7c5.7-17,17.5-28.3,35.3-30.6c14.6-2,28.3,1.6,39.8,12.6
			C126.6,506.2,139.1,515.5,151.1,525.5z"/>
		<path class="st5" d="M79.7,563.9c-1.7,8.7-12.7,15.7-22.8,15c-5.7-0.5-11.2-2.6-15.9-6c-10-6.8-18.7-15.4-25.6-25.4
			c-0.3-0.5-0.6-1.1-0.8-1.7c7.5,1.7,14.6,1.8,21.4-1.2c1.5-0.7,2.9-1.5,4.3-2.2c2.8-1.4,3.7-3.1,2.5-6.5c-1-3-1.2-6.1-0.5-9.2
			c2.8-14.7,10.3-26.6,23.5-33.8c14.1-7.7,28.2-5.4,41.7,2.2c3.1,1.8,5.7,4.4,8.5,6.9c-16.9-0.1-32.2,3.8-43.8,17.1
			c-4.2,4.8-7.3,10.6-9,16.8c9.6-6.1,19.6-7.4,30.9-7.3C84.6,538.9,80.8,550.8,79.7,563.9z"/>
	</g>
</g>
</svg>
