<?xml version="1.0" encoding="utf-8"?>
<!-- Generator: Adobe Illustrator 26.0.3, SVG Export Plug-In . SVG Version: 6.00 Build 0)  -->
<svg version="1.1" id="Layer_1" xmlns="http://www.w3.org/2000/svg" xmlns:xlink="http://www.w3.org/1999/xlink" x="0px" y="0px"
	 viewBox="0 0 595.5 842.2" style="enable-background:new 0 0 595.5 842.2;" xml:space="preserve">
<style type="text/css">
	.st0{fill:#3B342E;}
	.st1{fill:#3C352F;}
	.st2{fill:#0C0B0A;}
	.st3{fill:#070706;}
	.st4{fill:#3A332E;}
	.st5{fill:#FCE7DA;}
	.st6{fill:#080807;}
	.st7{fill:#91201E;}
	.st8{fill:#3E3731;}
	.st9{fill:#0A0A09;}
	.st10{fill:#0B0B0A;}
	.st11{fill:#FDE7DA;}
	.st12{fill:#110B0B;}
	.st13{fill:#FCE6DA;}
	.st14{fill:#FDE7DB;}
	.st15{fill:#F6E2D6;}
	.st16{fill:#86766C;}
	.st17{fill:#4E92CA;}
	.st18{fill:#F2E972;}
	.st19{fill:#0D0B0B;}
	.st20{stroke:#020203;stroke-miterlimit:10;}
	.st21{fill:#E30211;}
	.st22{fill:#FFFFFF;}
	.st23{fill:none;stroke:#A30A14;stroke-miterlimit:10;}
</style>
<g id="Layer_2_00000132083854778515273870000005605072767969215657_">
	<g id="Layer_1-2">
		<path class="st0" d="M277.9,382.2c1-1.3,2.2-2.5,3.5-3.6c1.8,1,3.2,2,4.8,3.1c0.7,0.6,1.5,1.2,2.3,1.7
			c10.8,5.4,21.4,11.3,32.4,16.1c21.8,9.5,43.7,18.5,65.7,27.9c0.2,0.2,0.4,0.4,0.7,0.5c0,0,0-0.1-0.2,0.2
			c5.2,11.2,10.9,22,15.9,33.2c2.5,5.6,3.6,11.9,5.3,17.8l-1.3,0.5c-0.7-1-1.4-2-2.2-2.8c-7-7.6-13.6-15.7-21.3-22.5
			c-5.2-4.4-11.2-7.8-17.6-10.1c-8.9-3.3-14.4-0.7-18.1,8c-2.7,6.4-4.8,13.1-6.2,19.9c-5,24.7-5.9,49.7-6.5,74.8
			c-0.1,4.3,0,8.7,0,13.7c-7.1-13.9-13.5-27.2-20.6-40c-4-7.1-9.3-13.5-14.2-20.1c-0.9-1.1-2.6-1.7-3.9-2.5l-0.9,0.8
			c0.4,1.6,0.8,3.1,1.2,5c0,1-0.2,1.9-0.5,2.8c-0.5,1.2-0.9,2.5-1.1,3.8c-2.1,10.5-5.5,20.4-11.5,29.4c-5.9,9-15.4,15-26,16.6
			c-2.7,0.5-4.2-0.3-5.4-3.1c-4-10.2-9.9-19.6-17.5-27.6c-4.8-5-10.1-9.3-17-11.5c-0.5,0.2-0.8,0.5-1,1c1.4,15.2,0.3,30.4-3.2,45.3
			c-5.3,22.5-15.9,41.6-35.1,55.2c-1.1,0.7-2.2,1.4-3.3,2.1c-9.2-18.9-24.5-29.2-44.2-34.2c-0.3-0.2-0.5-0.2-0.8-0.3
			c-1.8-7.4-4.3-14.6-4.8-21.9c-1.1-16.6,4-31.9,12.9-45.9c10.5-16.4,24.9-29.2,39.6-41.4c18-14.9,36.7-29,55.1-43.3
			c16.9-13.4,31.9-29,44.6-46.4C277.9,383.8,277.8,382.9,277.9,382.2z"/>
		<path class="st1" d="M284,364.9c0-0.2,0-0.5,0.1-0.7c0.1-0.5,0.1-1-0.1-1.5c-0.1-3.2,0-6.4,0.2-9.5c0.5-0.6,0.9-1.3,1.1-2
			c2-15.1,3.5-30.4,6.2-45.4c5.7-31.6,19.6-58.9,43.5-80.8c10-9.1,21.3-15.9,34.5-19.5c19.6-5.4,39.3-6.1,58.9,0.1
			c30.8,9.6,52.3,30.3,66.5,58.6c8,16,7.4,33.2,4.5,50.5c-3,16.7-8,32.9-14.9,48.4c-3.4,7.7-7.4,15.2-11.3,23c-2,2-3.8,3.9-5.6,5.8
			h-0.3c-3.8,3.1-7.2,6.3-10.9,9.2c-3.4,2.6-6.9,4.9-10.5,7c0.1-10.7,1.7-20.9,7.7-29.6c6.2-9,12.9-17.8,19.6-26.4
			c8.1-10.4,15.5-21.1,19.3-34c2.8-9.6,4.3-19.3,0.8-29c-3.9-10.9-13.8-12.7-21.5-4.2c-1,1.1-2,2.3-3.3,3.8
			c1.3-12.6,0.1-23.8-11.5-30.4c-15.2-8.6-27-2.2-37.3,10.2c-4.2-13.9-8.2-27.1-12.5-41.5c-4.3,14.1-8.4,27.2-12.5,40.7
			c-10.7-11.4-23.2-16.1-37.6-10.5S342,276,342.4,289.2c-2.5-1.4-4.5-2.8-6.8-3.9c-6.8-3.2-12.5-2-16,4.6c-2.5,4.6-4.7,10-4.8,15
			c-0.5,23,8.4,42.6,23.7,59.3c12.2,13.2,23.7,26.9,33.4,42c-0.7,0-1.4-0.1-2.1-0.3c-19.4-9.3-38.9-18.5-58.3-27.8
			c-3.7-1.8-7.4-3.3-11.1-4.9c0,0,0,0-0.1-0.2c-0.4-0.3-0.9-0.4-1.4-0.6c0,0,0,0,0-0.2c-0.2-0.2-0.4-0.4-0.7-0.6c0,0,0,0-0.1-0.2
			c-0.4-0.3-0.9-0.5-1.4-0.6c0,0,0,0-0.1-0.2c-0.6-0.3-1.1-0.5-1.7-0.7L284,364.9z"/>
		<path class="st2" d="M469.6,433.1c0.5,7.1,1.3,14.2,1.5,21.3c0.3,11.1,0.1,22.2,0,33.3c0,2.2-0.4,4.4-1.1,6.5
			c-4.2,12.1-8.5,24.1-13.1,36.1c-1.3,3.2-3.1,6.1-5.4,8.7c-3.4,4-7.3,7.5-11.2,11.6c-12.4,9.7-26.5,15-41.1,19.2
			c0.9,2.1,1.6,4,2.5,5.7c6.2,11.5,12,23.2,18.7,34.4c4.3,7.1,11.2,10.9,19.8,10.8c9.1,0,17.8-3.6,24.3-10c4.9-4.6,4.9-7,0.8-12.2
			c-1.3-1.7-2.7-3.3-4.1-4.8c-9.2-10-15.9-22.2-19.5-35.3c-0.1-0.4,0.7-1.1,1-1.7c3.3,11.5,11.9,19.4,19.4,28
			c3.3,3.8,6.8,7.3,10.1,11c6.1,6.9,5.9,13.6-1.1,19.5c-10,8.4-21.1,14.2-34.6,11.1c-10.9-2.4-20.2-9.3-25.7-19
			c-6.4-11-9.4-23.2-12.3-35.5c-0.1-0.5-0.3-0.9-0.6-1.9c-3,0.8-6,1.6-8.9,2.4c-6.1,1.6-12.3,3.2-18.4,4.7c-2.2,0.5-3,1.5-2.8,3.8
			c0.7,9.1,4.1,17.3,8.8,24.8c6.7,10.5,14.4,20.3,21.7,30.4c3,4,2.5,9.6-1.1,13.1c-8.3,8.8-19.6,14.1-31.7,14.8
			c-8.4,0.5-15.5-2.1-21.9-7.7c-4.3-3.9-7.7-8.8-9.6-14.3c-6.2-15.9-12.7-31.6-19.2-47.8c-2.1,0.4-4.3,0.7-6.4,1.3
			c-0.6,0.2-1,1.1-1.4,1.8c-0.2,0.4,0,1,0,1.5c-0.4,3.3,0.2,7.4-1.4,9.9c-3.5,5.3-8.4,9.2-15.2,10.5c-13.4,2.7-26.5,1.8-39.8-0.4
			c-9.1-1.5-18.4-3.5-28.3-0.5c2.3,0.6,4.1,1,5.9,1.5c6.5,1.8,13.5,2,19.1,6.8c3.9,3.3,5.4,6.4,4.2,11.3c-0.9,4.1-3.2,7.7-6.6,10.1
			c-6.3,4.5-13.2,7.2-21.2,6.8c-16.2-0.8-32.4-1-48.6-2.1c-10.1-0.7-20.1-4-27.6-10.3c-11-9.2-15.3-21.9-11.1-36.4
			c0.4-1.5,0.5-3,0.4-4.6c0.2-0.7,0.6-1.3,1.2-1.7c0,0,0.2,0.2,0.1,0.5c0,1.1,0.1,1.8,0.3,2.9c-1,7.3-1.2,14.3,1.7,21
			c5.7,13,16.5,20.1,29.8,21.6c18.2,2,36.6,2.2,54.9,3c2.9,0,5.7-0.5,8.5-1.3c5.3-1.3,9.6-4.1,12.1-9.2c1.9-4,1.5-7.1-2.2-9.4
			c-3.6-2.2-7.5-4-11.5-5.3c-11.6-3.8-23.7-4.5-35.8-5.6c-0.1-0.4-0.1-0.6,0.2-0.7c7.4,1,13.3-1.9,18.7-5.9
			c13.1-9.7,20.9-22.9,25.2-38.3c1.9-6.8,1.7-13.8,0.2-20.8c-2-9.7-6.9-18.1-12-26.3c0.5-0.1,1-0.1,1.5,0c2,2,3.9,3.9,5.5,5.9
			c14.4,17.6,16.1,37.4,5.2,57c-5.6,10.3-13.9,18.9-24.1,24.8c-1.6,0.7-2.8,1.3-4.1,1.9l0.3,0.8c1.4-0.3,2.8-0.6,4.5-0.9
			c10.4-2.9,20.9-5.2,30.6-9c18.6-7.3,36.9-15.5,55.4-23.2c2.7-1.1,5.5-2,8.3-3c-0.9-5.2-1.9-10-2.6-14.8c-2.5-17.2-2.3-34.8-8-51.5
			c0.8,0.4,1.5,1,2.1,1.6c2.6,7.9,5.9,15.5,7.3,23.4c3.9,22.5,9,44.7,16.6,66.3c4.8,13.8,10,27.4,18.1,39.7
			c3.4,5.1,7.7,9.1,13.9,10.7c10.2,2.6,24.8-2.7,31.2-11.2c2.1-2.8,2-5.2-0.2-7.8c-3.5-4.1-7.2-8-10.5-12.2
			c-13.9-17.3-21.1-36.5-17.6-59.1c2.7-17.2,9-33.1,16.6-48.6c0.2-0.3,0.6-0.6,1-0.8c-4.4,16.8-10.4,33.1-11.2,51
			c19.2-4.7,38.6-7.1,56.2-16c17.8-9,30.4-22.7,37.7-41.3c4.5-11.9,7-24.5,7.6-37.2c0.4-7.4,0.2-14.9,0.2-22.7
			c-0.4-5.9-0.7-11.4-0.8-16.9L469.6,433.1z M284.7,601.3l-39,13.2c10.7,0,20.5,0.2,30.4-0.1c4.7-0.1,9.4-0.6,14.1-1.6
			c5.7-0.9,10.5-4.6,13-9.8c0.9-1.9,1-4.1,1.5-7C297.5,597.9,291.4,599.5,284.7,601.3z"/>
		<path class="st3" d="M473.3,385.9c3.7-7.6,7.7-15.1,11.1-22.8c6.9-15.5,11.9-31.7,14.9-48.4c3-17.2,3.6-34.5-4.5-50.5
			c-14.2-28.3-35.7-48.9-66.5-58.6c-19.5-6.1-39.2-5.4-58.9-0.1c-13.1,3.6-24.5,10.4-34.5,19.5c-23.9,21.8-37.8,49.2-43.5,80.8
			c-2.7,15-4.1,30.2-6.2,45.4c-0.2,0.6-0.5,1.2-1,1.7c-2-30,3.8-59,13.5-87.3c0.1-0.3,0.1-0.7,0.3-1.6c2.7-5.4,5.3-10.2,7.8-15
			c0.5-0.8,0.7-1.7,0.6-2.6c-3.7-9.4-3.9-19.2-2.4-29c1.3-9,4.1-17.8,8.4-25.8l19.9,25.4c5.3-3.5,10.4-6.9,15.5-10.2
			c1-0.7,1.9-1.5,2.7-2.3c1.2,0.1,2.6,0.6,3.7,0.2c9-2.7,17.8-6.2,27-8.3c14.4-3.2,29-2.2,43.3,1c6.7,1.5,13.1,4.6,19.6,6.9
			c1.2,0.3,2.4,0.6,3.5,0.8c6,3.7,11.6,7.4,17.4,10.9c0.6,0.4,2.5-0.4,3.1-1.1c2.9-3.6,5.5-7.4,8.3-11.1c3-3.9,6.2-7.6,9.3-11.3
			c0.8,0.5,1.1,0.6,1.2,0.8c0.5,0.7,0.9,1.5,1.3,2.3c6.5,15,9.1,30.4,5.2,46.6c-0.3,1.2-0.7,2.7-0.2,3.6c2.8,5.1,5.8,10,9,15.4
			c6.6-10.3,11.5-21.6,14.6-33.5c1.6-6,1.3-12,0-18c-2.1-10-6.5-19.1-12-27.6c-4.8-7.2-10.2-14-15.6-21.3
			c-11.5,10.1-22.1,21.1-31.8,32.9c-2,2.4-4.5,4.5-6.7,6.7c10.5-17.5,23.6-33.3,39-46.7c4.6,5.4,9.5,10.5,13.9,16.1
			c8.2,10.7,14.3,22.8,17.9,35.8c3,10.6,0,20.5-3.6,30.2c-3.4,9.3-7.6,18.2-14.2,25.7c-0.6,0.8-0.9,1.9-0.6,2.9
			c8.7,25.1,4.4,49.5-3.9,73.6c-5.7,16.5-13.3,32.3-22.6,47.1c-0.8,1.4-1.8,2.6-2.9,3.8C473.4,387.8,473.3,386.9,473.3,385.9z
			 M309.9,221.3c-1.3,7.5-2.5,15-1.5,22.8l22.4-26l-16.6-15.6C312.7,209.1,311.4,214.9,309.9,221.3z M481,205.8l-11.3,13.3l21,22
			c0.3-13.2-2.6-25.6-6.4-38.4C483,203.9,482.2,204.7,481,205.8z"/>
		<path class="st4" d="M350.6,204.1c-0.8,0.9-1.7,1.8-2.7,2.5c-5,3.4-10.1,6.7-15.5,10.2l-19.9-25.4c-4.3,8-7.2,16.8-8.4,25.8
			c-1.5,9.8-1.3,19.6,2.4,29c0.1,0.9-0.1,1.9-0.6,2.6c-2.5,4.9-5.1,9.7-7.8,14.8c-0.5-0.1-1-0.5-1.5-1.4c-0.3-0.5-0.6-1-1-1.4
			c0.1,0,0.2-0.1,0.2-0.2c0,0,0,0,0,0c-3-6.5-6.1-12.7-9-19c-6.3-13.7-7.9-27.5-2-41.9c3.9-9.6,9-18.6,15.3-26.8
			c3.1-4.1,6.4-8.1,10.1-12.8c9.8,10.4,19.1,20.3,28.4,30.1c2.7,2.8,5.5,5.5,8.3,8.2c0,0-0.1,0,0,0.2c0.5,0.7,1,1.4,1.5,2
			c0.3,0.3,0.6,0.7,0.8,1.1c0.2,0.4,0.4,0.8,0.6,1.1C350.2,203.4,350.4,203.7,350.6,204.1z"/>
		<path class="st4" d="M450.6,200.2c2.4-2.1,4.8-4.4,6.9-6.8c9.7-11.8,20.3-22.8,31.8-32.9c5.4,7.3,10.8,14.1,15.6,21.3
			c5.6,8.4,10,17.6,12,27.6c1.2,6,1.6,12.1,0,18c-3,11.9-8,23.2-14.6,33.6c-3.2-5.4-6.3-10.3-9-15.4c-0.5-0.9,0-2.4,0.2-3.6
			c3.9-16.2,1.3-31.6-5.2-46.6c-0.4-0.8-0.8-1.5-1.3-2.3c-0.1-0.2-0.4-0.3-1.2-0.8c-3,3.7-6.2,7.4-9.3,11.3
			c-2.8,3.6-5.4,7.5-8.3,11.1c-0.6,0.8-2.5,1.5-3.1,1.1c-5.8-3.5-11.4-7.2-17.1-11C448.7,203.3,449.6,201.7,450.6,200.2z"/>
		<path class="st5" d="M442.7,556.5c-0.4,0.8-1.1,1.5-1,2c3.5,13.2,10.2,25.3,19.5,35.3c1.4,1.6,2.8,3.2,4.1,4.8
			c4.1,5.2,4.1,7.5-0.8,12.2c-6.5,6.4-15.2,10-24.3,10c-8.5,0.1-15.5-3.7-19.8-10.8c-6.7-11.2-12.6-22.9-18.7-34.4
			c-0.9-1.7-1.6-3.6-2.5-5.7c14.7-4.3,28.7-9.6,41-19C441.2,552.6,442,554.5,442.7,556.5z"/>
		<path class="st6" d="M137.7,599.7c-1.9-2.2-3.9-4.2-5.7-6.5c-2.9-3.8-5.7-7.8-8.8-11.8c-0.1-1.2,0.6-2.4,0.3-3.3
			c-10.7-32.3-0.8-59.8,20.9-83.6c9.6-10.5,21.1-19.5,32.3-28.3c18.5-14.6,37.4-28.6,56.3-42.6c16.3-12.1,31.3-25.9,44.5-41.2
			c0.2,0.7,0.1,1.4-0.2,2c-12.7,17.4-27.7,33-44.6,46.4c-18.4,14.3-37,28.5-55.1,43.3c-14.8,12.2-29.1,25-39.6,41.4
			c-8.9,14-14,29.3-12.9,45.9c0.5,7.3,3,14.5,4.8,22.2c0.3,0.5,0.6,1.1,0.9,1.6c4.1,7.8,10.2,13.5,16.6,19.1c-0.2,0.4-0.6,0.6-1,0.7
			c-3-1.7-5.7-3.4-8.4-5c-0.1,0-0.1,0-0.2,0C137.9,599.8,137.8,599.8,137.7,599.7z"/>
		<path class="st7" d="M283.9,365.3c3.8,1.5,7.4,3.1,11,5c0.5,0.3,1.1,0.5,1.7,0.7c0,0,0,0,0.1,0.2c0.4,0.3,0.9,0.5,1.4,0.6
			c0,0,0,0,0,0.2c0.2,0.2,0.4,0.4,0.7,0.6c0,0,0,0,0.1,0.2c0.4,0.3,0.9,0.5,1.4,0.6c0,0,0,0,0.1,0.2c35.1,20.3,70.7,39.1,110.3,48.3
			c-0.7,2.8-1.4,5.5-2.2,8.4c-1.1-0.3-2.3-0.6-3.4-1.1c-33.2-13.2-66.4-26.5-99.5-39.7c-6.5-2.6-13-5.3-19.6-7.9
			c-1.5-0.9-2.9-1.8-4.5-3C285.3,374.5,283.4,369.9,283.9,365.3z"/>
		<path class="st8" d="M468.7,433c0.3,5.5,0.7,11,0.8,17c-7.5,6.4-13.8,13.1-16.8,22.8c-0.3-0.5-0.6-1.1-0.8-1.7
			c-1.9-12.7-3.7-25.3-5.6-38c-0.3-2.1-1-4.2-1.3-6.5c4.5-3.7,8.9-7.2,13.3-10.7c0,0,0,0,0.2,0c0.5-0.4,0.9-0.9,1.3-1.5
			c0,0,0,0,0.2,0c0.5-0.2,0.9-0.5,1.3-0.8c0,0-0.1,0,0.1-0.1c0.3-0.2,0.5-0.6,0.7-0.9c0.3-0.5,0.5-0.8,0.7-1.2
			c1.2,3,2.4,6.1,3.4,9.6C467,425.3,467.9,429.2,468.7,433z"/>
		<path class="st9" d="M346.8,198.3c-2.7-2.5-5.5-5.1-8.2-7.9c-9.3-9.8-18.6-19.7-28.4-30.1c-3.7,4.7-7,8.7-10.1,12.8
			c-6.3,8.2-11.4,17.2-15.3,26.8c-5.9,14.3-4.3,28.2,2,41.9c2.9,6.3,6,12.5,9,19.1c-8.9-11.1-16.8-23-19.2-37.6
			c-2.6-15.7,2.3-30,11-42.8c6.5-9.5,14.4-18.1,21.8-27.3C324.7,166.4,336.5,181.6,346.8,198.3z"/>
		<path class="st7" d="M462.9,411.2c-0.2,0.6-0.5,1.1-0.9,1.6c-0.2,0.3-0.5,0.6-0.7,0.9h-0.2c-0.5,0.2-0.9,0.5-1.3,0.8
			c0,0,0,0-0.2,0c-0.5,0.4-0.9,0.9-1.3,1.5h-0.2c-5.5,3.3-10.7,6.7-16,9.9c-4.2,2.5-8.5,4.7-12.8,7c1.1-4.4,1.1-7.9-1.8-11
			c15.8-5.9,27.5-16.8,38.9-27.9c0.4-0.6,0.8-1.2,1-1.9h0.3c0.9-0.2,1.6-0.4,2.5-0.7c-0.5,2-0.9,3.6-1.3,5.3c0,0,0-0.1-0.2,0
			c-0.2,0.3-0.4,0.6-0.5,0.9c-1.6,2.6-3,5.4-4.8,7.8C462,406.9,461.8,409.3,462.9,411.2z"/>
		<path class="st4" d="M469.1,396.3c0.3-1.7,0.6-3.4,1.1-5.1c-0.9,0.3-1.6,0.5-2.5,0.7c1.7-2,3.5-4,5.3-5.8c0.2,0.9,0.3,1.8,0.3,2.7
			C472.1,391.4,470.7,393.9,469.1,396.3z M470.8,389.9l-0.1,0.2C470.7,390.1,470.9,390.1,470.8,389.9L470.8,389.9z"/>
		<path class="st4" d="M468.9,433c-1.1-3.8-1.9-7.8-2.5-11.7c1.2,3.6,2.2,7.4,3.2,11.5C469.4,433.1,469.3,433.1,468.9,433z"/>
		<path class="st10" d="M133.5,604.5c0.3-0.7,0.8-1.4,1.3-2C134.5,603.3,134,604,133.5,604.5z"/>
		<path class="st10" d="M118.8,584.4c-0.5,0.7-1.1,1.3-1.8,1.8C117.5,585.5,118.1,584.9,118.8,584.4z"/>
		<path class="st9" d="M348.3,200.6c-0.6-0.5-1.1-1.1-1.5-1.8C347.5,199.3,347.9,199.9,348.3,200.6z"/>
		<path class="st9" d="M295.6,261.1c0.4,0.2,0.7,0.6,0.9,1C296.2,261.8,295.9,261.5,295.6,261.1z"/>
		<path class="st3" d="M284,363c0.2,0.3,0.2,0.7,0.2,1C284,363.8,284,363.5,284,363z"/>
		<path class="st4" d="M468.5,397.3c-0.1-0.2,0-0.4,0.3-0.8C468.9,396.7,468.8,396.9,468.5,397.3z"/>
		<path class="st9" d="M349.8,202.8c-0.1,0-0.3-0.2-0.6-0.7C349.3,202.1,349.5,202.4,349.8,202.8z"/>
		<path class="st11" d="M444.9,426.8c0.5,2.1,1.1,4.1,1.4,6.3c1.9,12.7,3.7,25.3,5.6,38c0.2,0.6,0.5,1.2,0.8,1.7
			c3-9.7,9.2-16.4,16.8-22.5c0.2,7.3,0.4,14.8,0,22.2c-0.5,12.7-3.1,25.3-7.6,37.2c-7.3,18.6-19.9,32.3-37.7,41.3
			c-17.6,8.9-37,11.3-56.2,16c0.8-18,6.8-34.2,11.2-51c-0.3,0.3-0.8,0.5-1,0.8c-7.6,15.5-13.9,31.4-16.6,48.6
			c-3.6,22.6,3.7,41.8,17.6,59.1c3.4,4.2,7,8.1,10.5,12.2c2.2,2.5,2.2,5,0.2,7.8c-6.4,8.5-21,13.8-31.2,11.2
			c-6.2-1.6-10.5-5.6-13.9-10.7c-8.2-12.2-13.3-25.9-18.1-39.7c-7.6-21.6-12.7-43.8-16.6-66.3c-1.4-7.9-4.7-15.5-7.3-23.7
			c-2.1-4.3-4.1-8.1-6-11.8c-0.4-1.6-0.8-3.1-1.2-4.7l0.9-0.8c1.3,0.8,3,1.3,3.9,2.5c4.9,6.6,10.2,13,14.2,20.1
			c7.2,12.8,13.5,26.1,20.6,40c0-5-0.1-9.4,0-13.7c0.6-25.1,1.5-50.1,6.5-74.8c1.4-6.8,3.5-13.5,6.2-19.9c3.7-8.8,9.2-11.4,18.1-8
			c6.4,2.3,12.4,5.7,17.6,10.1c7.7,6.8,14.3,14.9,21.3,22.5c0.8,0.9,1.5,1.9,2.2,2.8l1.3-0.5c-1.7-6-2.8-12.2-5.3-17.8
			c-4.9-11.1-10.6-22-15.6-33.3c9,2.5,17.7,5.3,26.8,8.3c-3.8,3.1-7.3,5.9-10.7,8.8s-3.3,5.6,0,8.4c3.5,3,7.1,5.9,10.7,8.7
			s7,2.9,10.8-0.1c3.4-2.7,6.8-5.5,10.1-8.3c4-3.3,4-5.8,0.1-9.1c-3-2.5-5.9-4.9-8.4-6.9L444.9,426.8z"/>
		<path class="st11" d="M138.1,599.9c2.7,1.6,5.4,3.3,8.5,5.3c2.8,1.8,5.2,3.3,7.8,5c0.7,0.4,1.5,0.8,2.3,1.1l0.2-1
			c-0.9-0.1-1.8-0.3-2.6-0.6c-2.2-2.1-4.4-3.9-6.6-5.7c-6.5-5.4-12.5-11.1-16.6-19.2c0-0.8,0-1,0.1-1.2c19.5,4.8,34.8,15.1,44,34
			c1.1-0.7,2.2-1.3,3.3-2.1c19.2-13.6,29.8-32.7,35.1-55.2c3.5-14.8,4.6-30.1,3.4-45.3c0.3-0.3,0.7-0.6,1.1-0.9
			c6.7,2.2,12,6.5,16.8,11.4c7.5,8,13.5,17.4,17.5,27.6c1.1,2.8,2.7,3.6,5.4,3.1c10.6-1.6,20.1-7.6,26-16.6
			c6-8.9,9.4-18.9,11.5-29.4c0.2-1.3,0.7-2.5,1.4-3.6c1.5,2.3,2.8,4.8,3.9,7.3c5.9,16.6,5.7,34.2,8.2,51.4c0.7,4.8,1.7,9.5,2.6,14.8
			c-2.8,1-5.6,1.8-8.3,3c-18.5,7.8-36.7,15.9-55.4,23.2c-9.8,3.8-20.2,6.1-30.7,8.7c-0.2-0.5-0.4-1-0.4-1.5
			c10-6,18.2-14.5,23.8-24.7c10.9-19.7,9.2-39.4-5.2-57c-1.6-2-3.5-3.9-5.6-6.2c-0.9-0.9-1.9-1.7-2.9-2.5c-0.1,0-0.6,0.6-0.9,0.9
			l2.1,2c5.4,8.1,10.2,16.5,12.2,26.2c1.5,7,1.7,13.9-0.2,20.8c-4.4,15.4-12.2,28.7-25.2,38.3c-5.4,4-11.3,6.9-18.9,5.7
			c-3-0.4-5.4-0.6-7.8-0.8l-0.2,1.5l8,0.5c12.1,0.8,24.2,1.5,35.8,5.3c4,1.3,7.9,3.1,11.5,5.3c3.8,2.3,4.2,5.4,2.2,9.4
			c-2.5,5.1-6.8,7.8-12.1,9.2c-2.8,0.8-5.6,1.3-8.5,1.3c-18.3-0.8-36.7-0.9-54.9-3c-13.3-1.5-24.1-8.6-29.8-21.6
			c-2.9-6.6-2.7-13.6-1.5-21.4C138.4,601.7,138.3,600.8,138.1,599.9z M224.2,521.1l-0.7,0.9l0.9,0.5
			C224.5,522,224.4,521.5,224.2,521.1L224.2,521.1z"/>
		<path class="st12" d="M445.1,426.6c-6.1,3.9-12.2,7.5-18.2,11.2c2.5,2,5.5,4.4,8.4,6.9c3.9,3.3,3.9,5.8-0.1,9.1
			c-3.3,2.8-6.7,5.5-10.1,8.3c-3.8,3-7.1,3.1-10.8,0.1s-7.2-5.8-10.7-8.7c-3.3-2.8-3.3-5.6,0-8.4s6.9-5.7,10.7-8.8
			c-9.1-3-17.8-5.9-26.7-8.6c-0.3,0.1-0.3,0.2-0.2,0c-0.2-0.3-0.5-0.4-0.8-0.5c-21.9-9.2-43.9-18.2-65.6-27.7
			c-11-4.9-21.6-10.7-32.4-16.1c-0.8-0.5-1.6-1-2.3-1.7c6.4,2.4,12.9,5.1,19.4,7.7c33.1,13.3,66.3,26.5,99.5,39.7
			c1.1,0.5,2.4,0.8,3.4,1.1c0.7-2.9,1.5-5.7,2.2-8.4c-39.6-9.2-75.2-28-110.4-48.3c3.6,1.4,7.4,3,11.1,4.7
			c19.4,9.3,38.8,18.5,58.2,27.8c0.8,0.2,1.5,0.3,2.3,0.4c2,1,3.4,2,5,2.6c14.2,4.7,27.9,11.3,43.6,10.3c3.7-0.2,7.4,0.4,10.8-1.3
			c3.8-1.9,7.5-4,11.1-6.2c1.3-0.8,2.2-2.2,3.2-3.3c3.5-2.4,7.1-4.7,10.4-7.3c3.7-2.9,7.1-6.1,10.9-9.2c-0.1,0.7-0.3,1.4-0.8,1.9
			c-11.4,11.2-23,22-38.9,27.9c2.9,3.1,2.9,6.6,1.8,11c4.3-2.3,8.6-4.5,12.8-7c5.3-3.2,10.5-6.6,16-9.9
			C454,419.4,449.6,422.9,445.1,426.6z M403.8,449.2c0.2,0.6,0.3,1.3,0.7,1.7c4.3,3.6,8.5,7.3,13.1,10.5c1.1,0.8,3.9,0.2,5.3-0.7
			c3.8-2.6,7.2-5.7,10.8-8.6c2.2-1.8,2.5-3.6,0.1-5.5c-3.7-3-7.2-6.1-11.1-8.9c-1.3-0.9-4-1.5-5-0.7
			C412.8,440.8,408.1,444.9,403.8,449.2z M417.9,421.1c-5.3,1.6-7.6,5.1-5.7,8.8c1.6,3.2,6.2,4.9,10,3.7c3.4-1,5.7-3.9,5.4-6.7
			c-0.4-3.3-3.5-5.6-8-5.9C419,420.9,418.5,421,417.9,421.1z"/>
		<path class="st13" d="M300.6,514c-1.4-2.4-2.5-4.8-3.9-7.4c-0.1-0.9-0.1-1.9,0-2.8c2,3.5,4,7.2,5.9,11.3
			C302,514.8,301.3,514.4,300.6,514z"/>
		<path class="st13" d="M217.7,514.1c-0.1,0.3-0.4,0.5-0.8,0.7C217.1,514.4,217.4,514.2,217.7,514.1z"/>
		<path class="st13" d="M130.9,583.5c0.1,0.3,0.2,0.7,0.1,1.1c-0.2,0-0.4-0.3-0.7-0.9C130.4,583.3,130.6,583.3,130.9,583.5z"/>
		<path class="st11" d="M386.6,427.4c0.3-0.1,0.6,0,0.8,0.3C387.1,427.8,386.9,427.7,386.6,427.4z"/>
		<path class="st14" d="M445.7,408.1c-0.8,1.4-1.9,2.7-3.1,3.7c-3.6,2.2-7.3,4.3-11.1,6.2c-3.4,1.7-7.1,1.1-10.8,1.3
			c-15.7,1-29.4-5.6-43.6-10.3c-1.7-0.7-3.3-1.6-4.8-2.6c-10.1-15.2-21.7-28.9-33.9-42.1c-15.3-16.6-24.2-36.3-23.7-59.3
			c0.1-5.1,2.3-10.5,4.8-15c3.6-6.5,9.3-7.8,16-4.6c2.2,1,4.3,2.4,6.8,3.9c-0.5-13.2-0.1-26.3,14.4-31.9s26.9-1,37.6,10.5
			c4.2-13.6,8.2-26.6,12.5-40.7c4.3,14.3,8.3,27.6,12.5,41.5c10.3-12.5,22.1-18.8,37.3-10.2c11.6,6.6,12.9,17.8,11.5,30.4
			c1.3-1.5,2.3-2.7,3.3-3.8c7.8-8.5,17.6-6.7,21.5,4.2c3.5,9.7,2,19.4-0.8,29c-3.8,12.8-11.2,23.5-19.3,34
			c-6.7,8.7-13.4,17.4-19.6,26.4C447.4,387.2,445.9,397.4,445.7,408.1z M446.4,348.6c-1.8,5.1-5.1,9.5-9.4,12.8
			c-9.8,7.7-21.5,5.5-28.1-5.4c2.1-1.1,4-2.4,5.9-3.8c2.1-1.6,3.9-3.4,5.4-5.6c2.7-4.4,0.6-9.4-4.5-9.8c-7.5-0.5-14.9-0.5-22.4,0
			c-5,0.4-7.2,5.6-4.3,9.9c1.6,2.4,4.1,4.3,6.4,6.2c1.8,1.3,3.7,2.5,5.7,3.5c-3,2.6-5.6,5.1-8.5,7.1c-4.5,3-9.6,3.8-14.6,1.4
			c-8.7-4.1-14.4-10.9-16.2-20.6c-1.7-9,0.9-17.3,3.9-25.5c0.3-0.9,0.6-1.9,0.8-2.8c-4.3,5.3-7.2,11.5-8.4,18.2
			c-3.6,18.8,7,33.7,26.1,36.9c0.9,0.2,1.8,0.7,2.6,1.3c7,4.9,14.9,7.1,23.1,4.9c9-2.4,17.6-6.2,26.4-9.4c0.1-0.1,0.2-0.1,0.3-0.2
			c18.4-11.7,18.2-30.2,9.9-45.9c-0.3-0.6-1.3-0.8-2.8-1.5C447.5,329.8,449.6,338.6,446.4,348.6z M373.2,282
			c-4-3.2-8.9-3.4-11.4-0.5c-3.4,4-3.5,8.7-0.3,12c2.8,2.9,7.3,3.3,10.5,0.9C375.8,291.6,376.4,287.2,373.2,282z M439.8,279.7
			c-3.2,1.2-5.5,4.1-5.9,7.4c-0.7,3.8,2.3,7.7,6.2,8.7c3.8,0.9,7.7-1.1,9.2-4.6C452,285.1,447.6,279.4,439.8,279.7L439.8,279.7z"/>
		<path class="st12" d="M296.5,370.8c-0.5,0-1-0.1-1.4-0.4C295.6,370.3,296.1,370.5,296.5,370.8z"/>
		<path class="st12" d="M298,371.5c-0.5,0-0.9-0.1-1.3-0.4C297.2,371.1,297.6,371.2,298,371.5z"/>
		<path class="st12" d="M300.3,373c-0.5,0-0.9-0.1-1.3-0.4C299.4,372.6,299.9,372.7,300.3,373z"/>
		<path class="st12" d="M298.8,372.3c-0.2,0.1-0.4-0.1-0.7-0.4C298.3,371.8,298.5,371.9,298.8,372.3z"/>
		<path class="st15" d="M285,601.2c6.4-1.7,12.5-3.3,19.7-5.2c-0.6,2.9-0.6,5.1-1.5,7c-2.5,5.2-7.3,8.8-13,9.8
			c-4.7,0.9-9.4,1.5-14.1,1.6c-9.8,0.2-19.7,0.1-30.4,0.1L285,601.2z"/>
		<path class="st13" d="M195.5,618c-2.6,0.1-5.3,0-8-0.2l0.2-1.5c2.4,0.2,4.8,0.4,7.4,0.8C195.3,617.3,195.5,617.7,195.5,618z"/>
		<path class="st13" d="M227.9,526c-0.8-0.6-1.6-1.2-2.3-1.9c0.3-0.3,0.9-0.9,0.9-0.9c1,0.7,1.9,1.5,2.7,2.4
			C228.8,525.9,228.4,526,227.9,526z"/>
		<path class="st13" d="M216.2,613.6c0.3,0.4,0.4,0.9,0.4,1.5c-1.3,0.5-2.7,0.9-4.2,1.2l-0.3-0.8
			C213.3,614.9,214.6,614.3,216.2,613.6z"/>
		<path class="st1" d="M138.1,599.9c0.2,0.8,0.3,1.6,0.2,2.4c-0.3-0.3-0.5-1-0.5-2.1C137.9,599.9,138.1,599.9,138.1,599.9z"/>
		<path class="st16" d="M310,221c1.4-6.1,2.7-11.9,4.2-18.4l16.6,15.6l-22.4,26C307.4,236.3,308.6,228.8,310,221z"/>
		<path class="st16" d="M481.2,205.6c1-0.9,1.8-1.7,3.1-2.9c3.9,12.8,6.8,25.1,6.4,38.4l-21-22C473.3,214.9,477.2,210.3,481.2,205.6
			z"/>
		<path class="st13" d="M154.3,610c-2.5-1.5-4.9-3-7.4-4.7c0.2-0.4,0.4-0.7,0.7-1c2.4,1.7,4.6,3.5,6.7,5.5
			C154.3,610,154.3,610,154.3,610z"/>
		<path class="st12" d="M458.6,415.8c0.2-0.6,0.6-1.1,1.1-1.4C459.5,415,459.1,415.5,458.6,415.8z"/>
		<path class="st12" d="M460.1,414.4c0.3-0.3,0.7-0.6,1.1-0.8C460.9,414,460.6,414.2,460.1,414.4z"/>
		<path class="st12" d="M461.5,413.5c0-0.1,0.1-0.3,0.4-0.6C462,413.1,461.9,413.3,461.5,413.5z"/>
		<path class="st7" d="M470.9,390c0,0.1-0.1,0.1-0.1,0.1S470.8,389.9,470.9,390z"/>
		<path class="st13" d="M154.3,609.9l2.6,0.3l-0.2,1c-0.8-0.3-1.5-0.7-2.3-1.1C154.3,610,154.3,610,154.3,609.9z"/>
		<path class="st13" d="M224.4,521.3c0.1,0.4,0.1,0.8,0,1.2l-0.9-0.5C223.8,521.7,224,521.4,224.4,521.3z"/>
		<path class="st17" d="M403.8,449c4.6-4.2,9.1-8.3,13.9-12c1-0.7,3.7-0.2,5,0.7c3.9,2.7,7.4,5.9,11.1,8.9c2.4,1.9,2.1,3.7-0.1,5.5
			c-3.6,2.9-7,6-10.8,8.6c-1.4,0.9-4.2,1.5-5.3,0.7c-4.6-3.2-8.8-6.9-13.1-10.5C404,450.6,404,449.8,403.8,449z"/>
		<path class="st18" d="M418.2,421c0.5-0.1,1-0.1,1.4-0.1c4.5,0.3,7.6,2.6,8,5.9c0.3,2.8-1.9,5.7-5.4,6.7c-3.9,1.2-8.4-0.5-10-3.7
			C410.4,426.1,412.6,422.7,418.2,421z"/>
		<path class="st19" d="M446.5,321.6c-0.3-0.6-1.3-0.8-2.8-1.5c3.8,9.8,5.9,18.6,2.8,28.2c-1.8,5.2-5.1,9.7-9.5,13.1
			c-9.8,7.7-21.5,5.5-28.1-5.4c2.1-1.1,4-2.4,5.9-3.8c2.1-1.6,3.9-3.4,5.4-5.6c2.7-4.4,0.6-9.4-4.5-9.8c-7.5-0.5-14.9-0.5-22.4,0
			c-5,0.4-7.2,5.6-4.3,9.9c1.6,2.4,4.1,4.3,6.4,6.2c1.8,1.3,3.7,2.5,5.7,3.5c-3,2.6-5.6,5.1-8.5,7.1c-4.5,3-9.6,3.8-14.6,1.4
			c-8.7-4.1-14.4-10.9-16.2-20.6c-1.7-9,0.9-17.3,3.9-25.5c0.3-0.9,0.6-1.9,0.8-2.8c-4.3,5.3-7.2,11.5-8.4,18.2
			c-3.6,18.8,7,33.7,26.1,36.9l0.2,0c0.2,0,0.4,0,0.5,0h0.1h0.1c0.3,0,0.6,0,0.9,0.1h0.1c0.2,0,0.3,0,0.5,0c0.2,0,0.3,0,0.5,0h0.5
			c0.1,0,0.3-0.1,0.4-0.1c0.3-0.1,0.5-0.1,0.8,0h0.2h0.1h0.2l0.2-0.1c0.1,0,0.2,0,0.3,0h0.1h0.1l0.2-0.1l-0.1,0.1
			c0.1,0,0.1-0.1,0.2-0.1l0.1-0.1c0.1-0.1,0.2-0.1,0.3-0.1l14.2-9.5l9.7,7c1.8,0.9,3.2,1.4,5.3,2.4l-0.4,0.1h0.1h0.1h0.2l0,0
			c-0.2,0,0.1,0,0,0l0,0c0.1,0,0.3,0,0.4,0.1h-0.1c0.1,0,0.2,0.1,0.3,0.1c0.1,0,0.1,0.1,0.2,0.1h0.1l0,0c0,0,0.1,0,0.1,0
			c0.1,0,0.3,0,0.4,0.1c0.1,0,0.3,0,0.4,0c0.1,0,0.2,0,0.4,0.1l0.1,0.1l0,0c0,0,0,0,0,0l0,0h0.1c0.1,0,0.1,0,0.1,0l0.2,0
			c0.2,0,0.2,0,0.1,0h0.1h0.3h0.2h0.2l0,0c0.2,0,0.2,0,0.1,0c0.1,0,0.3,0,0.4,0h0.3c0.2,0,0.3,0,0.5,0c0.2,0,0.3-0.1,0.6-0.1h0.2
			l0,0c0.1,0,0.1,0,0.2,0c0,0,0.1-0.1,0,0l0.1-0.1l0.1-0.1l0,0c0.2-0.2,0.4-0.2,0.6,0c0.2,0,0.3-0.1,0.5-0.1c0.2,0,0.4,0,0.6,0l0,0
			l0.3-0.1c0.2-0.1,0.4-0.2,0.6-0.3c0.1,0,0.7-0.1,0.5-0.1l0,0h0.2c2.4-0.9,4.8-1.9,7.2-2.7c0.1-0.1,0.2-0.1,0.3-0.2
			C455,355.8,454.8,337.2,446.5,321.6z"/>
		<path class="st9" d="M373.4,282.2c3,5,2.4,9.4-1.3,12.2c-3.2,2.4-7.7,2.1-10.5-0.9c-3.2-3.3-3.1-8,0.3-12
			C364.3,278.6,369.2,278.8,373.4,282.2z"/>
		<path class="st19" d="M440.1,279.6c7.5-0.2,11.9,5.5,9.2,11.5c-1.6,3.6-5.5,5.5-9.2,4.6c-3.9-1-6.9-4.8-6.2-8.7
			C434.3,283.6,436.7,280.7,440.1,279.6z"/>
		<path class="st15" d="M414.8,368.2c1.6,0.7,2.9,1.3,5,2.2c-9.6,3-19.8,3.1-29.4,0.4c4.7-3.2,9.5-6.5,14.4-9.8
			C407.8,363.1,411.1,365.6,414.8,368.2z"/>
		<path class="st20" d="M374.5,367.9c1.1,16.7,15.5,29.4,32.3,28.3c4.9-0.3,9.6-1.8,13.8-4.3c8.9-5.4,14.6-15.6,13.9-26"/>
		<path class="st20" d="M393.1,369.2c1.9-2.9,4-5.7,7-7.5s6.9-2.3,9.8-0.5c2.6,1.6,4,4.8,4.6,7.8"/>
		<path class="st21" d="M378.1,368.4c3.2,6.5,4.8,13.6,6.9,20.5s5.1,13.8,10.3,18.8s13.4,7.4,19.9,4.2c6-2.9,9.2-9.6,11.2-16
			c2.9-9.1,4.6-18.6,5-28.2"/>
		<path class="st22" d="M434,366.5c-0.6,3.3-1.6,6.6-3,9.6c-0.3,0.7-0.7,1.4-1.5,1.6c-0.7,0.1-1.3-0.2-1.7-0.7
			c-0.4-0.5-0.6-1.1-0.8-1.8c-0.9-2.9-1.7-5.8-2.4-8.7c0,0-0.1,0.1-0.1,0s0-0.1,0.1-0.1"/>
		<path class="st22" d="M387.8,368.8c0.1,3.2-0.6,6.5-2,9.4c-0.5,1-1.3,2.1-2.5,2.1s-1.7-0.9-2.2-1.8c-2-3.4-3.1-7.3-3-11.2v0.1"/>
		<path class="st23" d="M405.4,371.6c2.3,12.4,2.8,25.1,1.6,37.7"/>
		<path class="st1" d="M139.1,541.8c0-0.7,2.1,1.3,1.9,0.6c-0.2-0.6-0.2-1.2,0-1.8c0-0.9-0.2-1.9-0.6-2.8c-0.2-0.6,0.7-0.8,0.9-1.5
			c0.3-2.2-3.1-2.9-3.4-4.9c-1.4-9.3-2.6-20.2-7.4-27.9c-6.9-10.9-14.9-14.8-27.3-12.3c-2,0.4-6.4-2.8-8.4-3.2
			c12-5.5,24.2-8,37.6-4.7c-5.4-9.9-16.3-20.8-26.3-26.2c6.8-1.6,20.5,3.1,26.6,4.4c17.3,3.6,25.4,13.1,33.5,28.2
			c-1.5,12.9-1,28.2-2.4,40.8c-0.1,0.9-1.3-0.7-0.8,0.2c0.1,1.3,2.4,5.2,2.1,6.7c-0.2,1.1-2.2-0.6-2.1,0.3c0,1.7-0.1,3.3-0.4,4.9
			c-5.2-0.1-7.9,2-12.7,1.7C146.9,544.3,141.9,541.8,139.1,541.8z"/>
		<path class="st10" d="M163,531.9c-0.5-0.7-1.5-1.8-1.4-2.7c1.5-12.7,3.1-25.3,4.8-38.3c0.7-3.9,1.7-7.5,1.7-11
			c0-15.5-4.9-28.9-18.5-37.4c-12.8-8-26.8-8.6-41-3.9c-3,0.9-5.6,2.6-7.7,5c-2.3,2.8-4.3,2.8-6.9,1c-1.3-0.9-2.8-1.7-4-2.7
			c-6-4.5-9.4-10.7-11.6-18.1c-0.4,0.5-0.8,1-1.1,1.5c-5.3,10.9-8.6,22.6-9.6,34.7c-0.7,5.7,0.3,11.5,2.6,16.8
			c4.4,9.2,15.9,15.3,24.1,12.7c2.2,0.1,4.4,0.7,6.4,0.2c12.4-2.5,21.8,1.5,28.6,12.3c5.1,8.1,7.5,17,8.8,26.2
			c0.2,2,0.1,4.1-0.2,6.1c-2.4-7.5-4-15-6.8-22.2c-3.4-8.8-10.1-15-18.7-18.9c-1.5-0.5-3.1-0.6-4.6-0.2c-3,0.5-5.8,1.4-8.7,2
			c-8.2,1.8-15.7-1.2-23.4-3.3c-1.6-0.4-3.1-2.2-4-3.7c-3.6-6.2-7.1-12.6-10.3-19c-0.7-1.5-0.9-3.3-0.6-4.9
			c2.7-12.2,5.3-24.3,8.4-36.4c0.8-3.2,3.2-6.1,5.1-9c3.4-5.3,6.9-10.5,10.9-16.6c-0.1,4.4-0.2,7.8-0.2,11.3
			c0,8.7,3.4,15.9,9.9,21.8c1.6,1.4,2.8,1.5,4.9,0.7c6.2-2.5,12.6-5,19.1-6.3c17.6-3.4,33.2,1.4,44,15.7
			c8.9,11.8,12.5,25.5,8.5,40.9C167.8,501.1,165.8,516.5,163,531.9z"/>
		<path class="st5" d="M94.5,488.5c-8.4,2.8-19.9-3.3-24.3-12.5c-2.6-5.3-3.1-11-2.6-16.8c1-12.1,4.2-23.9,9.5-34.7
			c0.3-0.5,0.7-1,1.1-1.5c2.2,7.4,5.6,13.6,11.6,18.1c1.3,1,2.7,1.8,4,2.7c2.6,1.7,4.5,1.7,6.9-1c2.1-2.3,4.8-4,7.7-5
			c14.2-4.7,28.2-4.1,41,3.9c13.6,8.5,18.5,21.9,18.5,37.4c0,3.5-1,7.1-1.9,10.8c-8.2-14.8-19.1-26.2-36.4-29.8
			c-6.3-1.3-12.8-1.2-19.1,0.4c10,5.4,16.1,13.5,21.5,23.3C118.6,480.5,106.4,483,94.5,488.5z"/>
	</g>
</g>
</svg>
