<?xml version="1.0" encoding="utf-8"?>
<!-- Generator: Adobe Illustrator 26.0.3, SVG Export Plug-In . SVG Version: 6.00 Build 0)  -->
<svg version="1.1" id="Layer_1" xmlns="http://www.w3.org/2000/svg" xmlns:xlink="http://www.w3.org/1999/xlink" x="0px" y="0px"
	 viewBox="0 0 1920 1080" style="enable-background:new 0 0 1920 1080;" xml:space="preserve">
<style type="text/css">
	.st0{fill:#3B342E;}
	.st1{fill:#020202;}
	.st2{fill:#FEE8DB;}
	.st3{fill:#95201E;}
	.st4{fill:#020203;}
	.st5{fill:#030202;}
	.st6{fill:#1C1A16;}
	.st7{fill:#22211E;}
	.st8{fill:#1F221C;}
	.st9{fill:#171515;}
	.st10{fill:#12150D;}
	.st11{fill:#151513;}
	.st12{fill:#222120;}
	.st13{fill:#1C1D18;}
	.st14{fill:#252A1F;}
	.st15{fill:#161D15;}
	.st16{fill:#151313;}
	.st17{fill:#3B4131;}
	.st18{fill:#231311;}
	.st19{fill:#522827;}
	.st20{fill:#42201F;}
	.st21{fill:#A8A099;}
	.st22{fill:#2B2221;}
	.st23{fill:#797D7B;}
	.st24{fill:#7E877E;}
	.st25{fill:#040303;}
	.st26{fill:#1D0A09;}
	.st27{fill:#8A796F;}
	.st28{fill:#421110;}
	.st29{fill:#140808;}
	.st30{fill:#120706;}
	.st31{fill:#210C0B;}
	.st32{fill:#2F120F;}
	.st33{fill:#210E0C;}
	.st34{fill:#837468;}
	.st35{fill:#3E0F0D;}
	.st36{fill:#671C1E;}
	.st37{fill:#030303;}
	.st38{fill:#FDE8DB;}
	.st39{fill:#191513;}
	.st40{fill:#2E2825;}
	.st41{fill:#DACEC5;}
	.st42{fill:#79726E;}
	.st43{fill:#89786E;}
	.st44{fill:#25201E;}
	.st45{fill:#1A0909;}
	.st46{fill:#371411;}
	.st47{fill:#862223;}
	.st48{fill:#504641;}
	.st49{fill:#504742;}
	.st50{fill:#9C8E86;}
	.st51{fill:#3A322F;}
	.st52{fill:#2C201C;}
	.st53{fill:#0B0908;}
	.st54{fill:#4F94CF;}
	.st55{fill:#F9F073;}
	.st56{fill:#FCE7DA;}
	.st57{fill:none;stroke:#000000;stroke-miterlimit:10;}
	.st58{stroke:#000000;stroke-miterlimit:10;}
</style>
<g>
	<path class="st0" d="M940.7,501.2c1-1.6,2.2-2.9,3.6-4c0.8,0.2,1.5,0.5,2.1,1.1c0.8,0.8,1.9,1.2,2.9,1.8c3.4,2.2,7.1,3.8,10.7,5.6
		c27.6,14.2,55.9,26.7,85,37.7c2,0.7,4.7,0.3,5.6,3c1.7,4.5,4.5,8.3,6.7,12.6c5.8,11.5,11.4,23,13.7,35.9c0.2,1.4,1.2,3.5-0.2,4.2
		c-1.7,0.8-2.8-1.2-3.7-2.4c-6.2-8.1-12.8-16-20.7-22.5c-6.3-5.1-12.9-9.4-21-10.9c-5.2-1-9,0.6-11.9,4.9
		c-3.4,5.1-5.2,10.8-6.6,16.6c-3.4,14-4.9,28.2-6,42.6c-1.2,16.2-1.7,32.4-2.2,48.5c0,0.5,0,1-0.1,1.5c-0.1,0.7-0.2,1.7-1,1.9
		c-1,0.3-1.6-0.6-1.9-1.4c-1.6-3.5-3.3-7-4.9-10.5c-7.2-15.3-14.6-30.4-25-43.8c-1.5-1.9-2.8-4.1-5.5-4.8c-1.1,1.5-0.3,3.2-0.5,4.8
		c0.1,2.4-0.8,4.6-0.9,6.9c-2.7,11.7-6.6,22.8-14.3,32.2c-6.3,7.7-14.6,11.9-24.2,13.6c-3.3,0.6-5.2-1.3-6.3-4.1
		c-2.2-5.7-5.3-11-8.6-16.1c-5.2-8.1-11.7-14.9-20-19.9c-0.7-0.5-1.5-0.9-2.3-1.2c-2-0.8-2.7-0.2-2.5,2c1.3,15.4-0.2,30.6-4.1,45.6
		c-5.3,20.6-15.6,37.9-32.5,51.1c-0.5,0.4-1,0.7-1.5,1.1c-4.2,2.9-5,2.7-7.4-1.7c-8.6-15.7-22.6-24.1-39.1-29.3c-1-0.3-2-0.3-3-0.2
		c-3-3.3-3.6-7.6-4.4-11.6c-5.3-25.3,2.1-47.4,17.7-67.1c10.1-12.8,22.3-23.4,34.8-33.8c17.8-14.9,36.7-28.5,54.8-42.9
		c15-12,28.1-25.8,40-40.7c0.3-0.4,0.7-0.7,1-1.1C938.4,504.8,940,503.3,940.7,501.2z"/>
	<path class="st0" d="M946.7,483.9c0-0.3,0-0.5,0-0.8c0.3-5.3,0.6-10.6,0.6-15.9c0.8-19.5,4.3-38.6,9.3-57.5
		c5.3-20.2,14.9-38,28.2-53.9c17.6-21.1,39.6-34.1,67.3-36.1c37.7-2.7,68.2,11.4,91.9,40.5c9.3,11.4,16.9,23.8,19.6,38.6
		c2,11.2,1.6,22.4-0.3,33.5c-4.3,25.3-13.4,49-25.5,71.6c-0.8,1-1.8,1.8-2.5,2.9c-0.5,0.7-1.1,1.3-1.8,1.8c-1.3,0.8-2.2,2-3.4,2.9
		c-3.9,3-7,6.8-11,9.8c-2.7,2.4-5.5,4.6-8.3,6.8c-0.8,0.6-1.6,1.7-2.9,0.6c-1.5-6.4,0.1-12.7,1.6-18.8c2.7-10.5,9.3-18.9,15.7-27.4
		c6.2-8.1,12.9-15.8,18.5-24.4c6.4-9.9,11-20.4,12.5-32.1c0.9-6.5,0.7-13-2.3-19c-4.2-8.5-12.3-9.7-18.8-2.7c-1,1.1-1.6,2.6-3.3,2.8
		c-1.6-0.8-1.3-2.3-1.5-3.7c0.2-8.5-1.2-16.4-8-22.5c-7.7-7-20-8.2-28.8-2.6c-2.9,1.9-5.8,3.9-8.1,6.6c-0.9,1.1-1.7,2.8-3.5,2.4
		c-1.7-0.4-2-2.1-2.4-3.5c-3-10.2-6.1-20.3-9.2-30.5c-0.3-0.9-0.2-2-1.4-2.9c-1.8,5.4-3.3,10.8-5,16.1c-1.8,5.7-3.4,11.5-5.4,17.1
		c-1.3,3.6-2,3.8-4.9,1.3c-5.7-4.9-11.7-8.7-19.5-9.6c-16.8-1.9-28.2,7.7-28.6,24.6c-0.1,2.1,0,4.2,0.1,6.4c0.1,2.2-1,2.6-2.8,1.9
		c-1.2-0.5-2.2-1.2-3.2-1.9c-7.2-4.4-13.5-2.9-17.8,4.3c-4.1,6.8-4.7,14.2-3.7,21.7c2.8,20.4,11.1,38.2,25.8,52.8
		c11.8,11.8,21.5,25.3,31.3,38.7c0.6,0.8,1.2,1.6,1,2.7c-1.5,1.1-2.8,0-4.1-0.5c-11.3-4.7-22.6-9.6-33.5-15.3
		c-10.2-5.4-20.7-10.1-30.8-15.7c-2.3-1.6-5-2.6-7.5-4c-2.6-1.7-5.3-3.3-8.4-4.1C950.3,486.3,948.4,485.3,946.7,483.9z"/>
	<path class="st1" d="M1133,556.6c0.1,0.7,0.1,1.4,0.2,2.1c0.7,1.2-0.1,2.6,0.5,3.9c0.1,2.4,0.2,4.8,0.3,7.3c0.4,4.2,0.4,8.3,0,12.5
		c0,9,0,17.9-0.2,26.9c0,1.2-0.5,2.4-0.9,3.6c-4.4,12.4-8.9,24.7-13.3,37.1c-1.1,3-2.6,5.5-4.9,7.8c-4,3.9-7.8,8-11.6,12.1
		c-0.9,2.6-3.4,3.5-5.5,4.8c-10.2,6.4-21.1,11.3-33,14.1c-2-0.3-3.8,0.1-5.7,0.6c-8.5,2.3-17,4.7-25.6,6.8c-2.4,0.6-3.2,1.6-3,4
		c0.8,9.3,4.6,17.5,9.2,25.4c6,10.5,14.2,19.6,21.2,29.4c3.1,4.4,2.7,9.5-1.1,13.3c-8.7,8.8-19,13.8-31.4,14.6
		c-8.4,0.5-15.6-2-21.9-7.6c-4.6-4.1-7.6-8.9-9.8-14.6c-5.7-15-11.9-29.8-17.9-44.7c-0.7-1.8-1.4-3.7-3.9-2.5
		c-2.1,1-5.8-0.3-5.3,4.4c0.3,3.3,1.6,6.9-1.2,10c-4.2,4.6-8.4,8.8-15.1,10.2c-13.3,2.7-26.5,1.8-39.8-0.3
		c-8.8-1.4-17.7-3.3-26.7-1.1c-0.7,0.4-0.7,0.9,0,1.3c5.5,1.2,11.1,2,16.3,3.8c4.6,1.6,9.6,3.8,10.9,9.1c1.5,5.8-0.6,10.9-5.1,14.7
		c-6.3,5.4-13.6,8.5-22.1,8.1c-16.3-0.7-32.6-1-48.9-2c-9.9-0.6-19.3-4.4-27.4-9.9c-11.4-7.7-15.5-23.5-11.3-37.3
		c2,0.5,1.3,2,1.1,3.2c-0.2,1.6-0.4,3.1,0.5,4.6c1.1,2.3,0.7,4.9,1.5,7.3c3.7,11.4,11.9,18.1,22.6,22.2c5.9,2.3,12.1,3.3,18.3,3.4
		c13.6,0.2,27.1,2.1,40.7,1.7c5.6-0.2,11.2-0.6,16.3-3.5c0.8-0.4,1.6-0.8,2.2-1.4c7.4-6.7,6.8-11.7-1.1-15.6c-5.3-2.6-11-4-16.7-5.2
		c-1.9-0.4-3.9-0.6-5.8-1.5c-1.6-1.4-5.3,0-5.1-3.8c0.6-0.9,1.6-1.2,2.5-1.5c1.3-0.4,2.7-0.4,4-0.9c13.9-2.8,27.2-7.2,39.9-13.4
		c14.9-7.3,30.1-13.9,45.9-19c1.3-0.4,2.6-0.9,3.9-1.4c1.9-0.7,2.7-2,2.3-4.1c-1.8-8.9-3.3-17.9-3.7-27c-0.4-10.8-3-21.2-4.9-31.7
		c0.2-1,0.3-2.1,1.5-2.4c1.5,0.7,1.7,2.4,2.3,3.7c5.4,11.4,7,23.8,9.4,36.1c5,26.6,13,52.3,24.4,76.9c2.8,6.1,6,12,10.9,16.9
		c4.7,4.8,10.4,6.8,16.9,6.4c8.9-0.7,16.3-4.4,22.2-11c2.1-2.3,2.1-4.6,0.3-7.1c-2.9-3.8-6.3-7.1-9.3-10.7
		c-9.3-11.2-16.4-23.7-18.8-38.2c-1.7-10.3-0.9-20.7,1.4-30.9c3-13.2,7.9-25.8,13.8-37.9c0.7-1.4,1.2-3.1,3-3.6
		c1,0.1,1.3,0.8,1.3,1.7c-1.9,8.3-5.2,16.1-7.2,24.4c-1.7,6.9-3,13.9-3.8,20.9c-0.2,2.1,0.4,2.8,2.4,2.3c18-4.3,36.5-6.8,53.2-15.6
		c17.6-9.4,29.9-23.2,36.7-42c4.4-12,5.9-24.4,7.4-36.9c0.4-7.3,0.8-14.6-0.3-21.9c-0.3-2.1-0.2-4.2-0.2-6.3
		C1131.7,559.7,1130.6,557.5,1133,556.6z"/>
	<path class="st1" d="M1136.8,504.1c11.5-22.2,20.8-45.3,25.2-70c2.8-15.7,3.3-31.5-2.6-46.7c-4-10.3-10.2-19.4-17.1-27.9
		c-9.6-11.9-21.3-21.3-34.9-28.2c-12.3-6.3-25.4-10-39.3-10.6c-15.9-0.7-31.3,1.3-46,7.5c-9,3.7-16.8,9.2-24,15.7
		c-7,6.4-13.2,13.2-18.5,20.5c-3.5,4.8-14.6,20.6-21.7,44.8c-1.7,5.7-2.6,9.9-3.9,16c-3.6,17.3-5.2,31.7-5.9,41.7
		c-0.8,0.1-1.1-0.4-1.1-1.1c0.1-6.9-0.3-13.9,0.2-20.8c0.9-16.4,4.9-32.2,9.4-47.8c1.3-4.6,2.7-9.3,4.1-13.9
		c-0.5-2.9,1.6-4.9,2.6-7.2c0.6-1.5,1.4-2.9,2.4-4.2c2.3-3.3,2.7-6.4,1.4-10.4c-3.9-12.4-1.8-24.7,1.6-36.8c0.9-3,2-5.9,3.2-8.8
		c2.2-5.2,3.8-5.5,7.5-1.1c4.5,5.4,8.7,10.9,12.9,16.5c3.1,4.2,3.1,4.2,7.4,1c3.3-2.4,6.8-4.7,10.3-6.7c1.3-0.7,2.5-1.7,4.2-0.8
		c6.8-1.3,13.5-3.4,19.9-6c12.8-5.3,26-4.7,39.3-4.1c13,0.5,24.3,6.5,36.4,10.1c1.5-0.9,2.6,0.2,3.8,0.8c4.5,2.1,8.7,5,12.7,7.9
		c2.1,1.5,3.3,1.3,4.9-0.8c4.7-6.5,9.5-12.9,14.7-18.9c3-3.4,4.1-3.3,5.9,0.8c5.1,11.9,7.8,24.2,7,37.2c-0.2,3-0.8,6-1.6,8.8
		c-0.8,2.6-0.4,4.8,1.1,7.1c2.9,4.2,5.4,8.7,7.1,13.5c0.5,5.2,2.8,10,3.7,15.1c2.9,16.6,0.9,32.8-3.5,48.8
		c-6.3,23-16.3,44.3-29.7,64c-0.6,0.1-0.9-0.2-1-0.7c0-0.3,0-0.6,0.2-0.9C1135.5,506,1136.3,505.1,1136.8,504.1z"/>
	<path class="st0" d="M1014.2,324.3c-6.3,2.5-11.6,6.7-17,10.7c-1.8,1.3-2.4,1.3-3.7-0.6c-4.9-7.2-10.3-14-15.9-20.7
		c-1.9-2.3-3-2.4-4.3,0.6c-4.8,11.6-7.8,23.6-7.2,36.3c0.2,4.2,0.8,8.5,2.6,12.3c1.1,2.4,0.7,4-0.5,6.1c-2.6,4.5-5,9.2-7.4,13.8
		c-0.7-0.8-1.4-1.6-2.1-2.4c-1.3-3.2-3.5-5.9-5.2-8.8c-5.7-11.3-11-22.7-10.7-35.7c0.3-10.5,4.1-20,9-29c4.5-8.2,10-15.8,15.8-23.1
		c0.9-1.1,1.8-2,2.8-3c1.7-1.6,3.2-1.4,4.9,0c5.5,4.5,10.7,9.4,15.4,14.7c4.8,5.5,10.3,10.5,14.4,16.7c1.6,1.6,2.2,4.1,4.5,5.2
		C1011.1,319.8,1012.6,322,1014.2,324.3z"/>
	<path class="st0" d="M1165.4,380.7c-4-5.1-6.6-11.1-9.8-16.6c-1.2-2,1-4.9,1.5-7.4c2.3-13.5,0-26.4-4.9-39
		c-2.6-6.7-2.9-6.8-7.3-1.5c-4.8,5.8-9.4,11.9-13.9,18c-1.4,1.9-2.1,1.9-4,0.5c-5.4-3.9-11-7.7-17.2-10.3c1.3-1.8,2.5-3.5,3.8-5.3
		c1.9-0.9,2.4-3,3.6-4.5c6.4-8.5,13.8-16,21.3-23.5c3.4-3.3,6.6-6.8,10.1-10c1.6-1.5,3.4-2.2,5.2-0.2c11.3,12.8,20.8,26.7,26,43.2
		c3.7,11.8,1.8,23.1-2.6,34.3C1174,366.2,1170.5,373.9,1165.4,380.7L1165.4,380.7z"/>
	<path class="st2" d="M1064.3,687.8c14.1-3.5,27-9.5,38.8-18.1c0.2,0.6,0.5,1.1,0.7,1.7c-0.7,1.2,0.3,2.1,0.5,3.2
		c0.2,0.8,0.6,1.6,1,2.4c3.9,15,12.2,27.4,22.5,38.8c5.8,6.5,5.2,10.9-1.6,16.3c-6.6,5.2-13.9,8.1-22.3,8.4
		c-9.1,0.3-15.9-3.6-21.2-10.5c-8.9-11.8-14.7-25.1-20.4-38.6C1061.1,688.9,1062,688,1064.3,687.8z"/>
	<path class="st0" d="M782.6,702.7c1.5-1.3,3-2.5,4.5-3.8c3.5,6.9,8.2,13,13.8,18.2c0.1,1,0.7,2.3-0.9,2.8c-0.5,0.3-1,0.6-1.5,0.9
		c-2,0.7-2.6,2.9-4.2,4c-1,1.5-2,2.9-3.3,4c-3.2,4.5-6.9,8.8-9.5,13.8c-4.1,7.7-7.3,15.5-5.3,24.5c1.2,5.3,3.8,9.7,8.1,13
		c1.5,1.1,3,2.2,4.3,3.6c1.2,1.3,3,2.4,2.1,4.7c-1.6,0.7-2.9-0.3-4.2-0.9c-10.3-5.2-19.4-11.7-25.5-22.8c-1.9,5.3-3.4,10-3.6,15
		c-0.1,3.5-0.2,7,0.1,10.5c0.1,1.1,0.6,2.4-0.5,3.1c-1.3,0.7-2.4-0.3-3.3-1c-5.5-4.4-9.4-10-12.2-16.3c-5.3-11.8-5-23.9-1.6-36.2
		c0.6-2.3,1.7-4.4,1.8-6.8c0.2-1.4,1.4-2,2.5-2.6c11.4-5.9,21.9-13.1,31.8-21.2C778.2,706.9,780.8,705.2,782.6,702.7z"/>
	<path class="st1" d="M790.8,788.2c-1.3-3.2-4.1-4.9-6.6-6.9c-8.6-6.9-11.6-16.5-8.5-27.3c2.8-9.9,8.3-18.3,15.2-25.8
		c0.7-0.1,1.1,0.2,0.9,1c-2.9,4.8-6,9.4-8.8,14.3c-4.7,8.3-5,17.3-3.2,26.5c0.5,2.4,1.6,4.3,4,5.5c9.6,4.8,14.5,13.6,19,22.7
		c1.3,2.5,1.3,5.2,0.3,8c-2.5,6.4-4.8,12.8-7.1,19.2c-0.7,2-2,3.3-3.8,4.3c-10.9,5.7-21.8,11.6-32.6,17.4c-1.7,0.9-3.5,1.1-5.4,1.4
		c-7.2,0.9-14.3,1.9-21.5,2.8c-0.8,0.3-1.6,0.6-1.5-0.8c3.4-2.9,7.1-5.4,10.1-8.8c4.7-5.4,6.8-11.7,7-18.8c0-2.1-0.6-3.3-2.7-4.1
		c-6-2.4-11.6-5.7-16.7-9.7c-12.6-9.6-19.4-22.6-18.3-38.1c1.1-16.1,8.5-29.7,23.4-37.6c14.4-7.6,28.7-15.3,42.1-24.6
		c0.8-0.3,1,0.1,0.8,0.8c-10.3,9.5-22.3,16.4-34.5,23.1c-0.4,2-2.2,2.6-3.7,3.5c-12.2,7.6-18.6,19-20.4,32.9
		c-1.1,8.2,2.1,15.8,6.1,22.8c4.1,7.1,9.7,12.9,16.9,17.2c3,1.8,6.2,3.2,9.9,3c3.2-0.1,4.8,1.5,5.5,4.4c2.3,8.7,0.5,16.8-3.8,24.5
		c0.8,0.9,1.7,0.2,2.4,0c12.4-3.9,24-9.4,33.5-18.4c9.7-9.1,10.7-20.4,3.5-31.5C791.5,790,790.6,789.3,790.8,788.2z"/>
	<path class="st1" d="M800.6,717.7c-5.1-4.2-9.3-9.1-12.4-15c-0.6-1.2-1.2-2.4-1.2-3.8c-5.3-16-7.2-32.3-1.7-48.4
		c6.3-18.9,17.5-34.7,32.8-47.8c27.1-23.1,55.7-44.4,84.6-65.2c11.1-8,20.8-17.8,30.3-27.7c1.3-1.3,2.6-2.7,3.8-4.1
		c0.8-0.2,1,0.1,0.9,0.8c-12.7,16.9-27.4,31.8-44.1,44.8c-19.2,15-39,29.3-57.4,45.2c-13.5,11.6-26.7,23.6-36.1,38.9
		c-8.9,14.5-13.5,30.2-12.1,47.3c0.6,7.1,2.1,14.2,5.2,20.8c0.4-0.1,0.8-0.2,1,0.1c3.8,6.7,9.9,11.5,14.2,17.8c0,0.6-0.3,1-0.9,1.2
		c-2.3,0.3-3.6-1.3-5-2.6C801.8,719.3,801,718.6,800.6,717.7z"/>
	<path class="st3" d="M946.7,483.9c2.4-0.4,3.7,1.9,5.8,2.3c2.8,1.7,5.9,2.9,8.6,4.9c2.4,1.1,4.6,2.5,7,3.7
		c9.9,5.5,19.8,10.8,30,15.6c18.6,9.5,37.6,18.1,57.5,24.4c4.9,1.6,9.8,2.7,14.8,3.8c4.3,0.9,4.6,1.4,3.3,5.5
		c-0.2,0.5-0.3,0.9-0.4,1.4c-1.1,4.8-1.4,5.1-6.3,3.3c-24.9-8.9-49.4-19-73.8-29.1c-10.5-4.4-21.1-8.5-31.3-13.3
		c-4-1.9-8.1-3.6-12-5.7c-1-1.1-2.6-1.1-3.8-2c-0.5-0.5-1.1-1.1-1.6-1.6C948.2,493.3,945.9,488.4,946.7,483.9z"/>
	<path class="st4" d="M1064.3,687.8c-1,0.7-2.9,0.6-1.7,3c5.8,12.3,11.1,24.8,18.8,36c11.6,16.8,35.2,17.1,47.7,0.8
		c2.3-2.9,2.3-5.7,0-8.5c-3.2-3.9-6.5-7.6-9.6-11.5c-7.3-9.2-12.7-19.3-15.1-30.9c-0.3-0.8,0-1,0.8-0.9c3.7,11.6,12.3,19.7,20,28.4
		c3.6,4.1,7.6,8,11,12.3c4.4,5.6,4.3,11.3-0.9,16.1c-20,18.5-41.6,18.6-59.2-2.2c-6.5-7.7-9.6-17.6-12-27.5c-1-3.9-2-7.7-2.9-11.6
		c-0.3-1.4-0.7-2.3-2.3-2.1C1060.6,688,1062.1,686.6,1064.3,687.8z"/>
	<path class="st0" d="M1132.3,561.1c0.8,8.5,1.3,17.1,0.8,25.7c-0.1,1.2,0.3,2.5-0.7,3.6c-1.4-1.3-1-3-1.1-4.6
		c-0.1-4.4,0.2-8.9-0.2-14c-6,4.4-10.1,9.7-13.1,15.9c-0.7,1.4-0.6,4.1-2.7,3.8c-1.9-0.2-1.8-2.7-2.2-4.4c-2.3-11.9-4.2-23.8-5-35.8
		c-0.1-1.6-0.5-3.2-1.2-4.7c-0.6-1.6,0.7-2.2,1.7-2.8c2.1-1.3,3.9-2.9,5.9-4.4c2.2-1.5,4.4-3.2,6.4-5c1.3-0.8,2.4-1.8,3.4-3
		c0.5-0.5,1-0.9,1.8-0.6c1.6,4,3.4,7.9,4.1,12.2c0,3.8,1.6,7.3,1.8,11.1C1132,556.5,1131.4,558.9,1132.3,561.1z"/>
	<path class="st1" d="M1005,313.2c-5.8-6.5-11.5-13-17.5-19.3c-4-4.2-8.5-8-12.7-12.2c-1.8-1.8-2.8-1.3-4.2,0.3
		c-7.4,8.3-13.6,17.4-19,27.2c-2.8,5.1-4.7,10.4-6.4,15.9c-2.9,9.9-2,19.7,1.5,29.3c2.2,5.8,4.4,11.7,7.3,17.2
		c0.5,0.9,0.5,1.6-0.8,1.5c-6.4-9.7-12.5-19.5-14.2-31.2c-2.1-15.2,2.6-28.8,10.4-41.5c6-9.9,14.1-18.1,21.9-26.5
		c1-1.1,1.6-1.1,2.7-0.1c12.1,11.6,23.5,23.7,31.9,38.4C1006.2,313,1005.8,313.2,1005,313.2z"/>
	<path class="st5" d="M1165.4,380.7c2.5-6.1,6.4-11.4,8.8-17.6c2.8-7.4,6-14.8,6.6-22.8c0.6-8.1-1.4-15.8-4.5-23.2
		c-5.5-13.3-13.7-24.7-23-35.6c-1.6-1.8-2.6-1.3-3.9,0c-9.1,9-18.4,17.9-26.7,27.7c-1.7,2.1-3.6,4.1-5.3,6.1c-0.7,0.1-1.2,0-0.8-0.9
		c4.3-7.9,10.1-14.6,15.7-21.5c6-7.4,12.8-14,19.9-20.2c10.9,9.9,19.2,21.7,25.9,34.5c3.1,5.9,4.9,12.5,6.6,19
		c2.4,8.8-0.1,17.3-3,25.6c-3.4,9.6-7.3,19-14.1,26.8C1166.9,379.4,1166.1,380,1165.4,380.7z"/>
	<path class="st3" d="M1126,531c-0.4,0.3-0.8,0.5-1.1,0.8c-1.3,1.4-3,2.2-4.4,3.4c-2.1,1.8-4.5,3.2-6.7,4.9
		c-6.3,4.7-13.1,8.5-20.2,11.9c-0.9,0.4-2,1-2.8,0.3c-0.9-0.8-0.3-1.9,0.1-2.8c1.1-2.2,0.9-4.3-0.1-6.4c-0.4-0.9-0.9-1.8-0.5-2.8
		c6.2-3.1,12.4-6.1,18-10.2c3.8-2.8,7.5-5.6,10.8-8.9c3.8-3,7.2-6.4,10.8-9.6c0.6-0.3,1.1-1,1.9-0.9c0.6,0.2,0.9,0.5,1.1,1.1
		c0.1,1.2-0.7,2-1,3.1c-1.1,1.2-1.9,2.6-2.4,4.1c-0.8,1.4-1.4,2.9-2.4,4.1C1124.9,525.5,1124.2,528,1126,531z"/>
	<path class="st6" d="M947.3,444.7c0,6,0.1,12.1,0.2,18.1c0,1.3-0.5,2.7,0.7,3.9c0.1,5.5-0.5,11-1.4,16.5
		C946.7,470.3,946.2,457.5,947.3,444.7z"/>
	<path class="st7" d="M1132.3,561.1c-0.9-6-2.5-11.9-2.3-18c1.9,4.3,2.1,9,2.9,13.5C1131.7,558,1132.6,559.6,1132.3,561.1z"/>
	<path class="st8" d="M776.6,709.4c-0.3-0.3-0.6-0.5-0.8-0.8c1.9-2.4,4.3-4.3,6.8-6C781.8,706,778.9,707.4,776.6,709.4z"/>
	<path class="st9" d="M953.3,373.1c0.6-0.3,0.8-0.9,0.8-1.5c1.7,2.9,4.2,5.4,4.5,9C956.6,378.3,954.7,375.9,953.3,373.1z"/>
	<path class="st10" d="M800,732.6c-1.5-1.4-0.8-3.1-0.6-4.8c0.2-1.2,0.9-2.3-0.1-3.4c0.3-1,0.5-2,0.8-3c0.8-0.1,1.1,0.6,1.3,1.2
		C801.9,726.1,801.5,729.4,800,732.6z"/>
	<path class="st11" d="M1005,313.2c0.3-0.3,0.6-0.7,0.9-1c1.6,1.6,2.6,3.5,3.7,5.4C1006.7,317.5,1006.2,315,1005,313.2z"/>
	<path class="st12" d="M1134,582.3c-0.4-4.2-0.4-8.3,0-12.5C1134.6,574,1134.5,578.2,1134,582.3z"/>
	<path class="st13" d="M937.7,506.4c-0.3-0.3-0.6-0.5-0.9-0.8c1.3-1.5,2.6-3,3.8-4.5C941.5,503.9,938.8,504.8,937.7,506.4z"/>
	<path class="st14" d="M793.8,724.4c1.4-1.3,2-3.7,4.6-3.6c-1.2,1.5-2.5,3-3.7,4.5C794.2,725.2,793.9,724.9,793.8,724.4z"/>
	<path class="st15" d="M793.8,724.4c0.3,0.3,0.6,0.6,0.9,0.9c-0.8,1.4-1.7,2.8-3,3.8c-0.3-0.3-0.6-0.6-0.9-1
		C791.8,726.9,792.8,725.6,793.8,724.4z"/>
	<path class="st16" d="M1116.6,314.5c0.3,0.3,0.5,0.6,0.8,0.9c-1.3,1.2-1.2,3.9-3.8,3.7C1114.4,317.4,1115.3,315.8,1116.6,314.5z"/>
	<path class="st17" d="M800.7,722.3c-0.2-0.3-0.5-0.6-0.7-0.9c0-0.5,0-1.1-0.1-1.6c0.2-0.7,0.4-1.5,0.7-2.2c0.8,0.4,1.9,0.5,2.2,1.6
		C802.1,720.3,802.5,722,800.7,722.3z"/>
	<path class="st18" d="M1135.3,507.9c0.2,0.2,0.4,0.5,0.6,0.7c-0.3,1.5-1.4,2.6-2.3,3.8c-0.6,0.1-0.9-0.2-0.9-0.8
		c0-0.9,0.3-1.7,0.7-2.4C1134,508.6,1134.2,507.5,1135.3,507.9z"/>
	<path class="st19" d="M1129.4,518.8c0.1-1.7,0.7-3.2,2.1-4.2c0.3-0.4,0.5-0.4,0.7,0C1131.3,516,1130.3,517.4,1129.4,518.8z"/>
	<path class="st20" d="M1132.2,514.7c-0.2,0-0.5,0-0.7,0c0.3-1,0.6-1.9,0.9-2.9c0.2-0.3,0.4-0.4,0.6-0.1c0.2,0.3,0.4,0.5,0.7,0.8
		C1133.2,513.1,1132.7,513.9,1132.2,514.7z"/>
	<path class="st21" d="M1103.8,674.3c-0.7-1-1.1-2,0-2.9c0.2,0.7,0.5,1.5,0.7,2.2C1104.3,673.8,1104.3,674.3,1103.8,674.3z"/>
	<path class="st22" d="M1103.8,674.3c0.3-0.2,0.5-0.5,0.8-0.7c0.2,0.7,0.5,1.5,0.7,2.2c-0.3,0.3-0.5,0.6-0.8,0.9
		C1103.8,676,1104,675.1,1103.8,674.3z"/>
	<path class="st12" d="M1133.7,562.6c-1-1.2-0.7-2.5-0.5-3.9C1133.9,560,1133.9,561.3,1133.7,562.6z"/>
	<path class="st23" d="M886.8,737.8c-0.9,0.2-2,0.1-1.9-0.8c0.1-1.1,1.2-0.6,1.9-0.5C886.8,736.9,886.8,737.4,886.8,737.8z"/>
	<path class="st24" d="M731,850.3c0.2,0.9,1.1,0.5,1.5,0.8c-0.8,0.6-1.8,1.1-2.6,0.3C729.6,851.1,730.3,850.4,731,850.3z"/>
	<path class="st2" d="M1106.9,546.2c2.9-0.2,1.8,2.3,1.9,3.4c1,11.8,2.8,23.5,4.8,35.2c0.4,2.2,0.9,4.3,1.5,7.6
		c3.2-10.2,9.3-17,17.1-23.2c0.9,7.4-0.2,14.3,0.1,21.1c-1,13.2-3,26.3-7.9,38.7c-9,23-26,37.6-48.8,45.9
		c-13.9,5-28.5,7.2-42.8,10.7c-3,0.7-2.3-1-2.2-2.6c1.3-12.6,4.4-24.8,8.4-36.8c1.1-3.2,2.2-6.5,3.2-9.7c0.8-1.1-0.2-2.6,0.9-3.6
		c0.3-0.4,0,0.2,0.1-0.2c0.1-0.3,0.1-0.4,0-0.1c-0.7,0.9-0.9,2-1.9,2.6c-10,19.3-17.8,39.2-18,61.3c-0.2,18.2,7.5,33.3,18.4,47.1
		c3.3,4.2,7,8.1,10.5,12.2c2,2.4,2.2,4.7,0.3,7.4c-6,8.5-20.9,14-31,11.6c-6.3-1.5-10.8-5.5-14.3-10.7
		c-8.2-12.2-13.3-25.9-18.1-39.7c-7.6-21.7-13.1-43.9-16.5-66.7c-1.2-8.2-5.2-15.4-7.6-23.2c-1.1-0.9-1.5-2.2-2.1-3.4
		c-0.4-1.4-1.3-2.6-2.1-3.8c-0.4-0.6-0.6-1.2-0.8-1.9c-1.1-2.6-1.9-5.3-0.9-8.2c2.9,0.3,4.3,2.6,6,4.4c5.7,6.5,10,14,14.2,21.5
		c6.1,10.9,11.4,22.2,16.5,33.6c0.3,0.7,0.7,1.5,1,2.2c0.4-0.1,0.8-0.1,1.2-0.2c0-8.9-0.3-17.8,0.1-26.7c0.8-22.7,2.2-45.4,7.5-67.6
		c1.4-5.7,3.2-11.3,6.3-16.3c3.1-5.1,7.4-7,13.3-6c6.7,1.1,12.4,4.3,17.8,8.3c9.6,7.2,17.4,16.1,24.6,25.5c0.7,1,1.5,1.9,2.7,3.5
		c-0.1-3.9-0.9-7-1.7-10c-0.9-3.1-1.8-6.2-2.9-9.3c-4.1-11.2-9.6-21.7-15.6-31.9c-0.3-0.4-1.5-0.9-0.3-1.7c1.6-1.2,3.1-0.5,4.6,0.1
		c6,2.4,12.3,4.2,18.5,6c1.5,0.4,3.5,0.6,3.8,2.5c0.2,1.7-1.6,2.4-2.7,3.3c-2.2,1.9-4.5,3.6-6.7,5.4c-3.3,2.8-3.4,5.3-0.1,8.1
		c3.5,3,7,6,10.8,8.7c2.5,1.8,5.1,2.1,7.6,0.3c4.4-3,8.5-6.5,12.4-10.2c1.9-1.8,1.8-3.7,0-5.5c-2.3-2.4-5-4.2-7.4-6.3
		c-2.9-2.5-2.8-3.5,0.6-5c4.2-1.9,8.3-4,12.1-6.7C1104.5,546.8,1105.6,546,1106.9,546.2z"/>
	<path class="st2" d="M960.9,625.9c0.2,0.3,0.5,0.6,0.7,0.9c0.4,2,1.5,3.7,2.1,5.6c0.7,1.4,0.2,3.1,0.8,4.6c1.1,7,3.4,13.7,4,20.7
		c1.1,13.2,2.1,26.4,5.1,39.3c0.6,2.4-0.9,2.7-2.4,3.3c-10.6,3.6-21.2,7.3-31.5,11.7c-11.9,5.1-23.1,11.7-35.4,15.9
		c-7.9,2.7-15.8,5.4-24.1,6.4c-1.1,0.3-2.3,0.7-3.3-0.3c0.2-2,2-2.4,3.3-3.2c12.3-7.3,20.5-18.1,25.6-31.1c6.6-16.7,3.2-32-7.2-46.1
		c-2-2.7-4.3-5.2-6.5-7.6c-0.2-0.1-0.3-0.3-0.3-0.6c-0.2,0.4,0.3,0.5,0.4,0.8c7,9.5,11.5,20.1,12.6,31.9c0.8,7.9-1.1,15.3-4.1,22.5
		c-5.6,13.2-13.4,24.7-25.9,32.5c-2.3,1.5-4.7,2.7-7.5,3.3c-4.3,0.7-8.6-0.9-12.6,0c1.4,0.1,3.2-0.4,4.9-0.1
		c3.5,0.5,6.9,0.6,10.4,0.6c3.2-0.1,6,1.6,9.2,2c5.6,1.6,11.5,2.2,17,4.2c2.9,1.1,5.9,2.1,8.5,3.9c4.8,3.2,5.4,6.4,2.4,11.4
		c-2.7,4.5-6.9,6.8-11.7,8c-6.5,1.6-13.1,1.8-19.7,1.3c-14.4-0.9-29-0.4-43.3-2.9c-13.3-2.3-24.1-8.7-29.9-21.7
		c-1.5-3.4-1.7-7-2.5-10.5c0.3-3.4,0.5-6.9,0.8-10.3c1.3-0.6-0.3-3.2,2.1-3.1c1.1,1.5,2.7,2.3,4.4,3c0.9,0.3,1.9,0.4,2.7,1
		c0.9,0.8,1.8,1.4,2.8,2c0,0,0.2,0.1,0.2,0.1s-0.1-0.2-0.2-0.2c-0.9-0.6-1.8-1.1-2.5-1.8c-0.7-0.6-1.5-1.2-2-2
		c-5.8-5.3-10.9-11.2-15-18c0.2-1.9,1.5-0.9,2.2-0.7c17.8,5.4,32.9,14.4,41.3,31.8c1.4,2.9,2.5,1.3,3.9,0.4
		c16.8-11.6,27.4-27.7,33.4-46.9c5.3-17,7.1-34.4,5.6-52.1c-0.3-2.9,0.3-3.5,3.1-2.3c8,3.7,14.3,9.5,19.7,16.3
		c5.3,6.8,9.6,14.3,12.8,22.3c1.1,2.9,2.8,3.5,5.4,3c11-1.9,19.7-7.4,26-16.7c5.2-7.7,8.4-16.4,10.7-25.4c0.2-0.8,0.5-1.6,0.8-2.5
		c1-1.8,0-4.4,2.3-5.6C960.6,625.2,960.8,625.4,960.9,625.9z"/>
	<path class="st25" d="M1106.9,546.2c-5.4,4.2-11.3,7.6-18.1,10c3.3,2.7,6.4,5.2,9.4,7.7c3.6,3,3.6,5.6,0,8.6
		c-3.5,3-7.1,5.9-10.7,8.7c-3.5,2.8-6.8,2.8-10.2,0.2c-3.7-2.9-7.4-5.9-11-8.9c-3.4-2.9-3.3-5.7,0.2-8.7c3.4-2.8,6.8-5.6,10.9-8.9
		c-9.9-2.1-18.3-6.1-27.4-8.2c-1.5-2.3-4.3-2-6.5-2.8c-18.7-7.2-37.2-14.9-55.3-23.5c-9.7-4.6-19.2-9.4-28.9-14.1
		c0.3-1.7,1.3-1.1,2.2-0.7c14.7,6.1,29.4,12.3,44.1,18.3c20.6,8.5,41.3,16.9,62.3,24.2c2.2,0.8,4.8,2.2,3.9-2.3
		c0-0.1,0.1-0.2,0.1-0.4c-0.3-1.9,2.9-3.6,1-5.2c-1.3-1.1-3.8-0.9-5.7-1.4c-16.2-3.7-31.6-9.9-46.7-16.7
		c-7.8-3.5-15.7-6.9-23.1-11.3c0-1.3,0.6-1.4,1.6-0.9c8,3.6,16,7.3,24,10.9c4.4,2,8.9,3.8,13.3,5.6c1.7-0.9,3.1,0.1,4.6,0.7
		c9.4,3.7,19,6.7,28.8,9c3.6,0.8,7.3,1.7,11.1,0.7c1.6-0.4,3.2-0.2,4.7,0.6c1.3,1.4,4.3-0.3,4.8,2.5c1.8,3.7,3.6,7.4,0.3,11.5
		c8.4-3,15.6-7.8,22.8-12.4c0.8-0.5,1.5-0.6,1.5,0.7C1112.4,542.1,1109.7,544.2,1106.9,546.2z"/>
	<path class="st26" d="M961.6,505.7c-0.8,0.1-1.7-0.2-2.2,0.7c-3.5-2-7.6-3-10.5-6c0.3-0.3,0.5-0.3,0.8-0.1
		C953.7,502,957.8,503.5,961.6,505.7z"/>
	<path class="st27" d="M960.9,625.9c-0.3-0.1-0.5-0.2-0.8-0.4c-0.7-0.6-0.9-1.5-1.4-2.2c0-2.1-0.7-4.2,0.6-6.1
		C958.4,620.4,960.9,622.9,960.9,625.9z"/>
	<path class="st2" d="M958.7,623.4c1.2,0.3,1.4,1.2,1.4,2.2c-1.5,1.4-0.8,3.8-2.2,5.2C958.1,628.3,958.4,625.9,958.7,623.4z"/>
	<path class="st28" d="M949.7,500.4c-0.3,0-0.6,0-0.8,0.1c-1.2-0.2-2.3-0.5-2.9-1.6C947.3,498.9,948.7,499.3,949.7,500.4z"/>
	<path class="st2" d="M1085.2,538.6c-0.8-0.2-1.7-0.7-2.5-0.6c-11,1.7-20.8-2.7-30.9-5.7c-5.2-1.6-10.3-3.7-15.4-5.6
		c-10.2-14.1-20.4-28.4-32.8-40.8c-13.4-13.3-21.1-29.4-25.2-47.5c-1.5-6.5-1.7-13.1-0.4-19.7c0.1-0.4,0.6-2.3,1.3-4.2
		c0,0,0.5-1.3,1.1-2.6c0.2-0.5,0.5-0.9,0.5-0.9s0.9-1.6,1.8-2.8c3.9-5.3,8.7-6.7,14.8-4.2c2.6,1.1,5,2.7,7.7,4.7
		c-0.5-13.1-0.2-25.7,13.5-32c11.9-5.5,21.8-2.9,38.6,9.8c4-13,7.9-25.9,11.9-38.7c0.3,0,0.6-0.1,0.9-0.1c4,13.1,7.9,26.2,11.8,39
		c2-1.7,4.1-3.4,6.1-5.2c9-8.3,19-10.1,29.3-5.3c9.7,4.5,13.7,12.5,14.3,22.8c0.1,1.4,0,2.7,0,4.1c-0.1,1.3-1.2,2.8,0.7,3.7
		c0.3-0.4,0.6-0.8,0.9-1.2c3.4-4.2,7.4-7.8,13.3-6.6c6.2,1.2,8.8,6.2,10.2,11.7c2.7,10.7,0.6,21-3.1,31.1
		c-4,10.9-10.6,20.3-17.7,29.3c-4.3,5.5-8.6,11-13,16.4c-9.7,12.1-15,25.7-14.6,41.4c-3.7,4.7-9.1,7-14.4,9.2
		C1091,539.3,1088.1,539.4,1085.2,538.6z"/>
	<path class="st29" d="M1085.2,538.6c4.4,0.8,8.2-1.3,12-3c3.9-1.8,7.5-4.2,11.1-6.8c3.5-2.7,7.1-5.5,10.6-8.2
		c0.7-0.3,0.9,0.1,0.8,0.7c-8.5,8.2-17.6,15.4-29.1,18.8C1089.1,538.4,1086.6,540.4,1085.2,538.6z"/>
	<path class="st30" d="M999.1,510.2c-0.7,0-1.3,0.2-1.6,0.9c-10.3-4.6-20.1-10.2-29.9-15.9c-0.2-0.7,0-1,0.7-0.7
		C978.6,499.7,988.8,504.9,999.1,510.2z"/>
	<path class="st31" d="M1119.6,521.4c-0.3-0.2-0.5-0.5-0.8-0.7c3.9-3.1,6.8-7.3,11.3-9.8c0.2,0.2,0.3,0.4,0.2,0.5
		c-0.1,0.2-0.2,0.3-0.2,0.3C1127.1,515.4,1123.4,518.5,1119.6,521.4z"/>
	<path class="st32" d="M960.9,491.4c-2.8-1.7-6-2.8-8.4-5.2c3.1,0.9,6,2.1,8.4,4.4c0.3,0.2,0.3,0.4,0.3,0.5
		C961.1,491.3,961,491.4,960.9,491.4z"/>
	<path class="st33" d="M960.9,491.4c0-0.3,0-0.5,0-0.8c2.7,0.9,5.2,2.1,7.5,3.8c-0.2,0.2-0.5,0.5-0.7,0.7
		C965.4,493.9,963.1,492.6,960.9,491.4z"/>
	<path class="st34" d="M1132.2,406.6c-0.4,0.4-0.6,2.2-1.3,0.4c-0.4-1.2-0.2-2.9,0.6-4.2C1132.1,404.1,1131.1,405.6,1132.2,406.6z"
		/>
	<path class="st35" d="M1130.1,511.6c0-0.3,0-0.5,0-0.8c0.8-1.2,1.7-2.3,3.1-2.9c0.2,0.3,0.4,0.6,0.4,0.9c-0.3,1.1-0.9,1.7-2,2
		C1131.1,511.1,1130.6,511.4,1130.1,511.6z"/>
	<path class="st36" d="M1133.1,508.7c0-0.3,0-0.5,0-0.8c0.5-0.5,1-1,1.4-1.5c0.7-0.3,1,0,0.9,0.7c0,0.2-0.1,0.5-0.1,0.7
		c-0.5,0.5-0.9,1-1.4,1.6C1133.4,509.4,1133.4,509,1133.1,508.7z"/>
	<path class="st18" d="M1135.5,507.2c-0.3-0.2-0.6-0.5-0.9-0.7c0.4-1.1,1.2-1.8,2.2-2.3C1136.8,505.3,1136.3,506.3,1135.5,507.2z"/>
	<path class="st37" d="M867.3,735.7c4.9-1.7,9.2-4.4,13.1-7.8c11.1-9.5,18.3-21.6,22-35.6c4.1-15.4-0.7-29.2-8.7-42.2
		c-0.8-1.4-1.7-2.7-2.5-4.1c-0.2-0.8,0.1-1.1,0.9-1c15.6,14.3,26.5,38.6,9.2,65.8c-6.2,9.7-14,17.5-24.2,22.7
		c-0.5,0.7-1.2,1.2-2,1.4c-0.5,0.1-1.1,0.3-1.6,0.3c0.2,0.2,0.6,0.2,0.6,0.6c0.3,3.5,4.1,0.9,5.2,3c-5.4-0.4-10.8-0.7-16.3-1.2
		c-1.3-0.1-3,0.4-3.9-1.2c1.9-0.8,3.9-0.2,5.9-0.4c2.2,0.7,4.4,0.8,6.6,0.7c-1.4,0.2-2.9-0.1-4.3-0.1C867,736.3,867,736,867.3,735.7
		z"/>
	<path class="st38" d="M909.3,733.4c18.3-5.5,35.6-13.5,54.3-17.3c3.2-0.7,4.1,0,3.3,3.3c-1.3,5.1-4.8,8.6-9.5,10.9
		c-4.9,2.4-10.3,3-15.6,3.1C930.9,733.5,920.1,733.4,909.3,733.4z"/>
	<path class="st39" d="M964.5,637c-0.9-1.4-1.2-3-1.5-4.6c-0.3-0.8-0.6-1.7,0.8-1.6c0.6,1.2,1.5,2.3,1.4,3.8
		C964.4,635.2,964.8,636.2,964.5,637z"/>
	<path class="st40" d="M1041.6,635.2c0.5-1.2,0.8-2.6,1.9-3.6c1.4,0,0.8,0.9,0.6,1.5c-1,0.9-0.2,2.7-1.6,3.4
		C1042.4,636,1042.2,635.4,1041.6,635.2z"/>
	<path class="st41" d="M874.8,734.2c0.7-0.2,1.5-0.5,2.2-0.7c0.9,1,2.1,0.3,3.1,0.7c-1.1,0.8-2.5,0.6-3.8,0.8
		C875.6,735.2,874.7,735.7,874.8,734.2z"/>
	<path class="st42" d="M874.8,734.2c0.3,0.7,1,0.6,1.5,0.8c-0.8,0.3-1.6,0.5-2.3,0.8c-0.6-0.1-1.1-0.2-2.3-0.5
		C873.1,734.8,874,734.5,874.8,734.2z"/>
	<path class="st43" d="M971.3,363.9c-1.1-5.9-0.4-10.7,0.1-15.5c0.9-8.2,2.6-16.2,5-24.1c0.4-1.4,0.5-3,2.5-1.1
		c4.6,4.4,9.2,8.8,13.9,13.1c0.9,0.8,1.3,1.5,0.2,2.4C984.8,345.9,978.2,354.4,971.3,363.9z"/>
	<path class="st43" d="M1153.4,361.3c-6.7-8.9-13.4-16.4-21.3-22.7c-1.4-1.1-1.1-1.9,0.1-2.9c4.4-4.1,8.7-8.2,13.1-12.3
		c1.2-1.2,2-1.4,2.5,0.5C1151,335.7,1153.9,347.7,1153.4,361.3z"/>
	<path class="st2" d="M790.8,788.2c9,8.7,9.1,23.5-0.2,33.4c-8.2,8.7-18.7,13.9-29.7,18.2c-3.2,1.3-6.6,2.1-10.7,3.5
		c0.9-1.7,1.4-2.7,2-3.7c4.2-7.5,5.4-15.4,3.1-23.8c-0.5-1.9-1.2-3-3.6-2.8c-3.7,0.4-7.2-0.8-10.3-2.7
		c-12.6-7.7-21.4-18.6-23.8-33.3c-2.6-16.1,4.4-28.8,16.4-39c2.4-2.1,5.4-3.6,8.1-5.4c1.8,1.4,0.1,2.8-0.3,3.9
		c-3.7,11.6-4.9,23.2-1.1,34.9c3,9,8.2,16.3,16.2,22.2c-1.4-13.4-0.5-20.6,3.8-31C767.7,775,778,783.1,790.8,788.2z"/>
	<path class="st44" d="M808.1,721.4c1.1-0.1,1.6,0.7,2.3,1.4c0.1,0.8-0.2,1.2-1.1,0.9c-0.9-0.3-1.7-0.7-2.1-1.5
		C807.5,722,807.8,721.7,808.1,721.4z"/>
	<path class="st45" d="M1115.1,540.1c-0.3-0.6-0.9-0.7-1.5-0.7c2.2-1.5,4.5-3,6.7-4.5c0.3-0.3,0.6-0.3,0.9,0.1
		C1119.7,537.3,1117.2,538.4,1115.1,540.1z"/>
	<path class="st46" d="M1121.2,534.9c-0.3,0-0.6,0-0.9-0.1c1.2-1.5,2.8-2.4,4.6-3.1C1124.1,533.3,1123.1,534.6,1121.2,534.9z"/>
	<path class="st47" d="M1133.1,508.7c0.3,0.3,0.5,0.5,0.8,0.8c-0.3,0.7-0.6,1.4-0.9,2.1c-0.2,0-0.4,0.1-0.6,0.1
		c-0.3-0.3-0.6-0.6-0.9-0.9C1132.1,510.1,1132.6,509.4,1133.1,508.7z"/>
	<path class="st48" d="M963.9,630.8c-0.8,0.3-0.6,1-0.8,1.6c-0.7-1.8-2.2-3.4-1.4-5.6C962.7,627.9,963.5,629.2,963.9,630.8z"/>
	<path class="st49" d="M1044.1,633.2c-0.2-0.5-0.4-1-0.6-1.5c0.4-0.7,0.7-2.2,1.4-1.5C1045.9,631,1044.7,632.2,1044.1,633.2z"/>
	<path class="st50" d="M867.3,735.7c-0.1,0.2-0.2,0.4-0.3,0.6c-0.3,0.7-0.7,0.5-1.2,0.2c-2.2,0-4.5-0.1-6.7-0.1
		c-2.6,1.1-5.1,1-8.4-0.7C856.8,735.7,862,735.7,867.3,735.7z"/>
	<path class="st51" d="M809.3,723.8c0.4-0.3,0.7-0.6,1.1-0.9c0.9,0.7,2.5,0.9,2.4,2.6l0,0.1C811.1,725.9,810.3,724.7,809.3,723.8z"
		/>
	<path class="st52" d="M812.7,725.5C812.7,725.5,812.7,725.5,812.7,725.5c1.4-0.4,2.2,0.4,3,2.2C814.3,727,813.1,726.9,812.7,725.5z
		"/>
	<path class="st53" d="M892,645c-0.3,0.3-0.6,0.6-0.9,1c-0.8-0.6-1.7-1.2-2.9-2.1C890.6,643.2,891.4,643.8,892,645z"/>
	<path class="st54" d="M1098.1,568.2c0,1.2-0.8,2-1.7,2.8c-3.6,2.9-7.2,5.8-10.7,8.7c-2.4,2-4.7,1.9-7-0.1
		c-3.4-2.9-6.9-5.7-10.4-8.5c-2.5-2-2.4-3.8,0-5.8c3.6-2.9,7.1-5.8,10.7-8.7c1.9-1.6,4-2,6.1-0.3c3.9,3.1,7.7,6.2,11.6,9.4
		C1097.5,566.4,1098.1,567.1,1098.1,568.2z"/>
	<path class="st55" d="M1082.3,539.9c4.4,0,8.1,3,8.1,6.6c-0.1,3.5-3.9,6.5-8.2,6.4c-4.2-0.1-7.8-3-7.9-6.4
		C1074.2,543,1077.9,539.9,1082.3,539.9z"/>
	<path class="st1" d="M789.6,398.3c-2.6,7.9-4.9,15.7-3.2,24.2c1.9,9.7,7.6,16.5,16.4,20.4c7,3.2,18.6-1.3,21.9-7.9
		c0.8-1.6-0.6-1.6-1.3-2c-2.8-1.6-5.6-3.3-7.9-5.6c-2.4-2.5-3.8-5.4-2.5-8.8c1.2-3.4,4.3-4,7.4-4c6-0.1,12-0.1,18,0
		c2.9,0.1,5.9,0.6,7.1,3.8c1.2,3.2,0.2,6.1-2.1,8.6c-2.3,2.4-4.9,4.3-7.8,5.7c-2.4,1.1-2.1,2-0.5,3.7c9,9.9,19.4,10.3,29,1
		c9.3-9,11.3-22.4,5.4-36.4c-0.3-0.7-0.8-1.3-0.6-2.1c-0.4-0.8-0.7-1.6,0.8-1.5c9.1,14,11.5,34.1-6.4,46.8c-1,0.7-2,1.7-3.2,1.9
		c-9,1.8-16.7,7.5-25.7,9.2c-8.2,1.5-15.9-0.2-22.8-5c-0.9-0.6-1.7-1.3-2.9-1.4c-18.5-2.5-29.4-17.9-25.9-36.6c1-5.6,3-10.8,6-15.6
		C790.1,396.6,789.8,397.5,789.6,398.3z"/>
	<path class="st1" d="M865.8,736.5c0.4-0.1,0.8-0.2,1.2-0.2c1.9-0.1,3.8-0.3,6.4,0.9C870.2,736.9,867.9,737.8,865.8,736.5z"/>
	<path class="st56" d="M1082.7,489.4c-10.6,3.1-20.2,3.1-30.5,0.1c3.7-1.9,7.3-3.2,10.1-5.7c1.6-1.5,3.4-4,5-4c1.7,0,3.3,2.6,5,4.1
		C1075.2,486.3,1078.5,487.7,1082.7,489.4z"/>
</g>
<path class="st2" d="M979.3,414.5c2.8-6.8,6.4-15.1,10.8-24.5c1.7-3.5,6.9-14.5,14.7-28.5c1.5-2.7,7.6-13.8,16.7-28.3
	c8.4-13.5,13.4-20.4,21.2-26.9c4.6-3.9,8.3-6.1,12.5-7.6c2.6-0.9,9.9-3.4,18.6-1.5c6.7,1.5,10.9,4.8,17.1,9.9
	c5.7,4.6,9.6,9.2,15.1,16c9.1,11.4,15.7,21,20.1,27.6c9.4,14,14.3,21,17.8,27.7c6.3,11.8,10,22.3,12.1,29.3"/>
<path class="st57" d="M1029.1,320.8c0.4-0.6,1-1.5,1.7-2.5c0.2-0.3,0.6-0.8,0.9-1.3c0.8-1.1,1.5-1.9,2.9-3.4c1.6-1.8,2.5-2.7,2.7-3
	c0.9-0.9,2.1-2.3,3.8-3.8c1.3-1.2,3.1-2.8,5.7-4.5c2.5-1.7,4.6-2.7,5.4-3.1c1.1-0.5,3-1.4,5.7-2.1c0.5-0.1,2.8-0.8,5.8-1.1
	c1.2-0.1,3-0.3,5.4-0.2c1.4,0.1,3.8,0.2,6.8,1.1c1.9,0.6,3.3,1.2,4.3,1.7c0.4,0.2,2.2,1.1,4.4,2.5c1.7,1.2,3.2,2.4,6.1,4.8
	c1.7,1.4,2.5,2.1,3.7,3.2c1.7,1.6,2.8,2.8,4,4c1.2,1.3,3.1,3.3,5.4,6.1c1.2,1.5,2.7,3.4,4.2,5.7"/>
<path class="st58" d="M1040,305.3c0.2,5.5,22.5,8.8,27.5,9.5c5.1-0.7,27.3-4,27.5-9.5c0.2-4.5-14.5-9.5-27.5-9.5
	S1039.8,300.9,1040,305.3z"/>
<path class="st58" d="M1068.1,320.6"/>
<path class="st58" d="M1068.8,324.5"/>
<path class="st57" d="M1067.4,313.7c-0.5,2.4-0.4,4.4-0.1,6.1c2.3,10.4,17.8,17.6,38.3,18.9"/>
<path class="st57" d="M1066.6,314.8c0.5,2.4,0.4,4.4,0.1,6.1c-2.3,10.4-17.8,17.6-38.3,18.9"/>
</svg>
