<svg id="Layer_1" data-name="Layer 1" xmlns="http://www.w3.org/2000/svg" viewBox="0 0 1920 1080"><defs><style>.cls-1{fill:#3b342e;}.cls-2{fill:#020202;}.cls-3{fill:#fee8db;}.cls-4{fill:#95201e;}.cls-5{fill:#020203;}.cls-6{fill:#030202;}.cls-7{fill:#1c1a16;}.cls-8{fill:#22211e;}.cls-9{fill:#1f221c;}.cls-10{fill:#171515;}.cls-11{fill:#12150d;}.cls-12{fill:#151513;}.cls-13{fill:#222120;}.cls-14{fill:#1c1d18;}.cls-15{fill:#252a1f;}.cls-16{fill:#161d15;}.cls-17{fill:#151313;}.cls-18{fill:#3b4131;}.cls-19{fill:#231311;}.cls-20{fill:#522827;}.cls-21{fill:#42201f;}.cls-22{fill:#a8a099;}.cls-23{fill:#2b2221;}.cls-24{fill:#797d7b;}.cls-25{fill:#7e877e;}.cls-26{fill:#040303;}.cls-27{fill:#1d0a09;}.cls-28{fill:#8a796f;}.cls-29{fill:#421110;}.cls-30{fill:#140808;}.cls-31{fill:#120706;}.cls-32{fill:#210c0b;}.cls-33{fill:#2f120f;}.cls-34{fill:#210e0c;}.cls-35{fill:#837468;}.cls-36{fill:#3e0f0d;}.cls-37{fill:#671c1e;}.cls-38{fill:#030303;}.cls-39{fill:#fde8db;}.cls-40{fill:#191513;}.cls-41{fill:#2e2825;}.cls-42{fill:#dacec5;}.cls-43{fill:#79726e;}.cls-44{fill:#89786e;}.cls-45{fill:#25201e;}.cls-46{fill:#1a0909;}.cls-47{fill:#371411;}.cls-48{fill:#862223;}.cls-49{fill:#504641;}.cls-50{fill:#504742;}.cls-51{fill:#9c8e86;}.cls-52{fill:#3a322f;}.cls-53{fill:#2c201c;}.cls-54{fill:#0b0908;}.cls-55{fill:#4f94cf;}.cls-56{fill:#f9f073;}.cls-57{fill:#fce7da;}.cls-58{fill:none;}.cls-58,.cls-59{stroke:#000;stroke-miterlimit:10;}.cls-60{isolation:isolate;font-size:60px;font-family:MVBoli, MV Boli;}</style></defs><path class="cls-1" d="M940.66,501.17a14.07,14.07,0,0,1,3.64-4,4,4,0,0,1,2.14,1.1,14.31,14.31,0,0,0,2.91,1.81,100.09,100.09,0,0,0,10.72,5.6,831.16,831.16,0,0,0,85,37.74c2,.74,4.69.33,5.62,3,1.71,4.45,4.52,8.32,6.66,12.55,5.81,11.49,11.43,23.05,13.69,35.89.25,1.42,1.22,3.45-.23,4.16-1.69.84-2.79-1.15-3.75-2.4-6.25-8.12-12.76-16-20.74-22.52-6.25-5.13-12.89-9.36-21-10.94-5.15-1-9,.62-11.92,5-3.38,5.08-5.17,10.82-6.59,16.63-3.4,14-4.95,28.22-6,42.55-1.23,16.17-1.7,32.36-2.21,48.55a10.56,10.56,0,0,1-.11,1.49c-.13.75-.25,1.68-1,1.91-1,.32-1.57-.64-1.91-1.41-1.57-3.54-3.31-7-4.95-10.5-7.15-15.27-14.56-30.41-25-43.82-1.51-1.94-2.84-4.15-5.47-4.78-1.12,1.5-.3,3.21-.53,4.8.11,2.35-.79,4.56-.87,6.88-2.65,11.67-6.63,22.78-14.27,32.22-6.25,7.73-14.59,11.89-24.23,13.63-3.31.6-5.18-1.25-6.27-4.08a91.75,91.75,0,0,0-8.64-16.15,60.91,60.91,0,0,0-20-19.85A15.94,15.94,0,0,0,883,635c-2-.79-2.71-.2-2.52,2a136.08,136.08,0,0,1-4.06,45.6c-5.26,20.58-15.63,37.93-32.51,51.13-.49.38-1,.75-1.51,1.1-4.21,2.89-5,2.71-7.42-1.67-8.58-15.69-22.65-24.07-39.06-29.33a6.73,6.73,0,0,0-3-.18c-3-3.25-3.56-7.56-4.41-11.58-5.35-25.3,2.14-47.36,17.73-67.1,10.09-12.77,22.33-23.44,34.78-33.84,17.81-14.89,36.65-28.46,54.8-42.92a251.93,251.93,0,0,0,40-40.74,13.27,13.27,0,0,1,1-1.09C938.36,504.81,940,503.33,940.66,501.17Z"/><path class="cls-1" d="M946.72,483.94l0-.8c.32-5.3.6-10.61.64-15.93.82-19.52,4.35-38.6,9.29-57.47a138.36,138.36,0,0,1,28.22-53.93c17.57-21.08,39.59-34.09,67.3-36.09,37.68-2.72,68.22,11.35,91.89,40.47,9.26,11.39,16.94,23.77,19.55,38.64a97.88,97.88,0,0,1-.33,33.5c-4.29,25.35-13.41,49-25.46,71.6-.77,1-1.75,1.8-2.45,2.85a7.41,7.41,0,0,1-1.81,1.81c-1.27.8-2.22,2-3.43,2.86-3.89,3-7,6.84-11,9.79-2.65,2.41-5.52,4.56-8.33,6.77-.8.62-1.63,1.72-2.87.63-1.54-6.44.1-12.65,1.65-18.77,2.67-10.55,9.31-18.94,15.74-27.37,6.2-8.12,12.94-15.83,18.54-24.42,6.43-9.85,11-20.4,12.54-32.14.86-6.52.66-13-2.32-19-4.2-8.54-12.28-9.69-18.75-2.75-1,1.07-1.64,2.57-3.34,2.82-1.63-.77-1.31-2.3-1.47-3.65.16-8.5-1.24-16.4-8-22.5-7.73-7-20.05-8.22-28.81-2.58a33.55,33.55,0,0,0-8,6.64c-.92,1.12-1.69,2.79-3.46,2.41s-2-2.12-2.38-3.53q-4.55-15.25-9.15-30.48c-.27-.9-.22-2-1.37-2.87-1.85,5.41-3.3,10.79-5,16.09-1.81,5.71-3.38,11.5-5.36,17.15-1.25,3.58-2,3.81-4.91,1.31-5.69-4.87-11.72-8.7-19.47-9.56-16.82-1.86-28.16,7.72-28.64,24.6-.06,2.12,0,4.25.05,6.37s-1,2.63-2.82,1.89a20.47,20.47,0,0,1-3.22-1.9c-7.15-4.43-13.47-2.93-17.82,4.27-4.09,6.76-4.71,14.25-3.66,21.75,2.83,20.36,11.07,38.18,25.77,52.84,11.79,11.77,21.45,25.28,31.28,38.66a3.45,3.45,0,0,1,1,2.71c-1.54,1.15-2.84,0-4.14-.51-11.33-4.75-22.6-9.64-33.53-15.25-10.18-5.43-20.74-10.11-30.84-15.69-2.33-1.61-5-2.61-7.46-4a29,29,0,0,0-8.36-4.13A19.14,19.14,0,0,1,946.72,483.94Z"/><path class="cls-2" d="M1133,556.64c0,.7.11,1.39.16,2.09.68,1.22-.05,2.65.54,3.88.09,2.42.17,4.84.26,7.26a63.94,63.94,0,0,1,0,12.45c0,9,0,17.91-.16,26.86a11.22,11.22,0,0,1-.9,3.58c-4.42,12.38-8.93,24.72-13.3,37.12a19.4,19.4,0,0,1-4.87,7.76c-4,3.89-7.76,8-11.62,12.05-.91,2.62-3.41,3.52-5.45,4.79a107.44,107.44,0,0,1-33,14.06,13.85,13.85,0,0,0-5.72.56c-8.52,2.3-17,4.69-25.56,6.82-2.4.6-3.21,1.59-3,4.05.84,9.29,4.65,17.54,9.17,25.42,6,10.52,14.18,19.57,21.22,29.39a9.94,9.94,0,0,1-1.06,13.35c-8.66,8.81-19,13.84-31.4,14.62a29,29,0,0,1-21.92-7.59,35.64,35.64,0,0,1-9.83-14.62c-5.73-15-11.91-29.8-17.87-44.7-.73-1.82-1.36-3.68-3.88-2.53-2.12,1-5.75-.28-5.32,4.44.3,3.26,1.61,6.94-1.18,10-4.22,4.62-8.43,8.83-15.11,10.18-13.35,2.71-26.51,1.83-39.77-.32-8.82-1.43-17.68-3.27-26.68-1.11-.67.44-.65.88,0,1.33,5.46,1.23,11.07,2,16.32,3.83,4.6,1.58,9.57,3.76,10.95,9.09,1.49,5.75-.6,10.9-5.07,14.75-6.32,5.44-13.57,8.53-22.14,8.14-16.31-.72-32.64-1-48.93-2a55.32,55.32,0,0,1-27.42-9.89C799.13,754,795,738.19,799.23,724.45c2,.5,1.33,2,1.15,3.23-.24,1.6-.43,3.13.47,4.59,1.12,2.3.73,4.9,1.51,7.3,3.68,11.37,11.86,18.1,22.63,22.22a53.52,53.52,0,0,0,18.31,3.36c13.58.21,27.09,2.11,40.68,1.67,5.61-.19,11.22-.63,16.28-3.5a11.86,11.86,0,0,0,2.23-1.38c7.36-6.67,6.81-11.68-1.14-15.56-5.31-2.6-11-4-16.73-5.23a25.11,25.11,0,0,1-5.78-1.51c-1.6-1.42-5.34,0-5.13-3.82a4.3,4.3,0,0,1,2.52-1.53c1.33-.37,2.73-.39,4-.87A162.65,162.65,0,0,0,920.21,720a347.27,347.27,0,0,1,45.88-19c1.3-.42,2.59-.9,3.87-1.39a3.2,3.2,0,0,0,2.26-4.09,172.33,172.33,0,0,1-3.7-27c-.45-10.77-3-21.18-4.86-31.72.15-1,.26-2.08,1.5-2.42,1.54.75,1.68,2.36,2.31,3.69,5.42,11.43,7,23.81,9.37,36.07a326.51,326.51,0,0,0,24.39,76.9c2.81,6.07,6,12,10.86,16.94A20.66,20.66,0,0,0,1029,774.3a32.25,32.25,0,0,0,22.22-11c2.1-2.32,2.14-4.62.3-7.09-2.86-3.79-6.28-7.1-9.31-10.74-9.33-11.22-16.39-23.67-18.83-38.16-1.74-10.28-.89-20.66,1.41-30.86a171.8,171.8,0,0,1,13.84-37.9c.69-1.41,1.15-3.1,3-3.57,1,.11,1.3.8,1.34,1.68-1.89,8.27-5.16,16.13-7.18,24.37a169.11,169.11,0,0,0-3.85,20.94c-.24,2.12.38,2.76,2.42,2.27,18-4.31,36.53-6.75,53.25-15.64,17.64-9.38,29.86-23.24,36.73-42,4.37-11.95,5.86-24.43,7.37-36.93.38-7.32.81-14.64-.31-21.94a39.46,39.46,0,0,1-.22-6.34C1131.68,559.73,1130.59,557.51,1133,556.64Z"/><path class="cls-2" d="M1136.83,504.15c11.47-22.24,20.77-45.29,25.18-70,2.81-15.73,3.32-31.49-2.61-46.74-4-10.3-10.17-19.39-17.11-27.94a107.61,107.61,0,0,0-34.91-28.21,94.38,94.38,0,0,0-39.29-10.64c-15.87-.69-31.29,1.35-46,7.49a83.89,83.89,0,0,0-24,15.67,135.78,135.78,0,0,0-18.49,20.45A147.6,147.6,0,0,0,957.85,409c-1.69,5.72-2.57,9.9-3.85,16a314.06,314.06,0,0,0-5.89,41.65c-.85.09-1.07-.43-1.06-1.12.1-7-.33-13.9.22-20.84.91-16.39,4.92-32.17,9.42-47.84,1.33-4.65,2.71-9.27,4.07-13.9-.48-2.89,1.65-4.86,2.59-7.24a20.32,20.32,0,0,1,2.37-4.24c2.28-3.25,2.71-6.37,1.42-10.44-3.95-12.36-1.85-24.67,1.64-36.81a81,81,0,0,1,3.15-8.81c2.15-5.18,3.8-5.47,7.46-1.08,4.48,5.36,8.73,10.91,12.86,16.54,3.08,4.19,3.07,4.17,7.42,1a113.82,113.82,0,0,1,10.34-6.74c1.28-.74,2.53-1.73,4.15-.85a101.42,101.42,0,0,0,19.91-6c12.77-5.28,26-4.65,39.33-4.1,13,.53,24.34,6.48,36.4,10.13,1.49-.89,2.59.2,3.79.77A83.59,83.59,0,0,1,1126.3,333c2.1,1.51,3.33,1.3,4.85-.79,4.69-6.46,9.47-12.86,14.69-18.91,3-3.44,4.12-3.31,5.92.84,5.14,11.86,7.8,24.18,7,37.16a37.44,37.44,0,0,1-1.64,8.81,7.67,7.67,0,0,0,1.14,7.06,61.49,61.49,0,0,1,7.1,13.53c.47,5.23,2.83,10,3.72,15.14,2.88,16.57.94,32.79-3.47,48.8a216.67,216.67,0,0,1-29.66,64c-.61.14-.87-.22-1-.71a1.89,1.89,0,0,1,.16-.94A23.38,23.38,0,0,1,1136.83,504.15Z"/><path class="cls-1" d="M1014.16,324.29c-6.33,2.49-11.62,6.67-16.95,10.71-1.77,1.35-2.45,1.26-3.7-.56-4.94-7.17-10.35-14-15.9-20.69-1.93-2.32-3-2.37-4.26.62-4.76,11.64-7.8,23.61-7.18,36.28A34.2,34.2,0,0,0,968.72,363c1.08,2.4.69,4-.54,6.13-2.65,4.51-5,9.21-7.42,13.83l-2.15-2.36c-1.29-3.2-3.54-5.85-5.19-8.84-5.75-11.26-11-22.68-10.72-35.74.26-10.5,4.14-20,9-29a155,155,0,0,1,15.82-23.1,29.5,29.5,0,0,1,2.85-3c1.66-1.57,3.21-1.43,4.94,0a133.8,133.8,0,0,1,15.36,14.74c4.83,5.52,10.31,10.49,14.39,16.66,1.61,1.62,2.25,4.1,4.51,5.15Z"/><path class="cls-1" d="M1165.39,380.66c-4-5.09-6.55-11.06-9.79-16.6-1.18-2,1.05-4.9,1.47-7.45,2.27-13.5,0-26.43-4.92-39-2.61-6.69-2.88-6.82-7.3-1.51-4.85,5.81-9.4,11.87-13.86,18-1.4,1.92-2.11,1.89-4,.54-5.43-3.91-11-7.67-17.21-10.29l3.78-5.28c1.94-.92,2.42-3,3.61-4.52,6.4-8.46,13.77-16,21.29-23.47,3.37-3.33,6.64-6.76,10.08-10,1.64-1.54,3.45-2.21,5.2-.22,11.31,12.8,20.83,26.67,26,43.21,3.66,11.8,1.83,23.07-2.62,34.26-3.13,7.9-6.57,15.59-11.73,22.4Z"/><path class="cls-3" d="M1064.32,687.75a110,110,0,0,0,38.8-18.06l.69,1.69c-.7,1.17.29,2.1.46,3.15a16.09,16.09,0,0,0,1,2.41c3.93,15,12.19,27.45,22.46,38.81,5.83,6.46,5.19,11-1.64,16.31a37.43,37.43,0,0,1-22.33,8.39c-9.13.34-15.93-3.56-21.17-10.52-8.85-11.77-14.75-25.13-20.42-38.6C1061.11,688.92,1062,688,1064.32,687.75Z"/><path class="cls-1" d="M782.56,702.66l4.5-3.82a65.28,65.28,0,0,0,13.8,18.24c.06,1,.69,2.29-.91,2.8-.5.31-1,.61-1.52.91-2,.67-2.63,2.86-4.2,4a19.44,19.44,0,0,1-3.28,4c-3.24,4.55-6.88,8.82-9.5,13.78-4.05,7.67-7.26,15.52-5.27,24.53a21.48,21.48,0,0,0,8.11,13,39.74,39.74,0,0,1,4.3,3.55c1.24,1.25,3,2.42,2.15,4.68-1.62.66-2.91-.29-4.21-.94-10.28-5.16-19.35-11.75-25.46-22.77-1.87,5.34-3.39,10-3.6,15a74.4,74.4,0,0,0,.15,10.45c.1,1.09.59,2.44-.55,3.1s-2.4-.29-3.33-1a42.73,42.73,0,0,1-12.23-16.28c-5.29-11.81-5-23.94-1.58-36.16.64-2.27,1.75-4.41,1.84-6.83.19-1.44,1.37-2,2.46-2.56a190.28,190.28,0,0,0,31.84-21.18C778.19,706.92,780.83,705.25,782.56,702.66Z"/><path class="cls-2" d="M790.84,788.16c-1.29-3.17-4.12-4.93-6.6-6.93-8.62-6.93-11.63-16.53-8.55-27.29,2.84-9.93,8.3-18.27,15.16-25.82.74-.07,1.13.16.86,1-3,4.75-6.05,9.42-8.8,14.28-4.72,8.33-4.95,17.31-3.22,26.46a7.17,7.17,0,0,0,4,5.51c9.6,4.8,14.5,13.62,19,22.71a9.49,9.49,0,0,1,.26,8q-3.7,9.57-7.12,19.25a7.33,7.33,0,0,1-3.85,4.25q-16.34,8.61-32.57,17.43a14.84,14.84,0,0,1-5.37,1.37l-21.5,2.8c-.82.29-1.63.58-1.54-.83,3.44-2.87,7.14-5.42,10.12-8.82,4.73-5.39,6.8-11.73,7-18.82.05-2.12-.55-3.26-2.74-4.12a68.94,68.94,0,0,1-16.74-9.68c-12.59-9.59-19.4-22.55-18.32-38.08,1.12-16.09,8.47-29.73,23.37-37.59,14.41-7.6,28.75-15.25,42.15-24.56.78-.26,1,.11.83.8-10.3,9.45-22.26,16.45-34.45,23.08-.45,2-2.24,2.61-3.67,3.51-12.2,7.61-18.6,19-20.45,32.86-1.08,8.18,2.06,15.76,6.13,22.75A47.33,47.33,0,0,0,741,808.81c3,1.81,6.23,3.21,9.87,3.05,3.17-.14,4.76,1.48,5.53,4.42,2.3,8.74.49,16.8-3.84,24.54.85.86,1.67.19,2.39,0,12.4-3.88,24-9.44,33.48-18.42,9.66-9.14,10.67-20.39,3.52-31.54C791.46,790,790.62,789.31,790.84,788.16Z"/><path class="cls-2" d="M800.62,717.67a48.76,48.76,0,0,1-12.4-15,7.48,7.48,0,0,1-1.16-3.84c-5.31-16-7.16-32.28-1.74-48.43,6.33-18.9,17.51-34.75,32.77-47.76,27.13-23.15,55.69-44.41,84.62-65.23,11.12-8,20.83-17.8,30.29-27.74l3.83-4.05c.77-.25,1,.1.87.81a236.85,236.85,0,0,1-44.06,44.84c-19.16,15-38.95,29.26-57.4,45.17-13.46,11.61-26.7,23.57-36.15,38.94-8.9,14.5-13.53,30.18-12.1,47.28a61.75,61.75,0,0,0,5.15,20.76c.37-.14.83-.15,1,.15,3.81,6.68,9.93,11.51,14.18,17.84a1.28,1.28,0,0,1-.89,1.22c-2.25.25-3.58-1.27-5-2.6A9.1,9.1,0,0,1,800.62,717.67Z"/><path class="cls-4" d="M946.72,483.94c2.36-.37,3.69,1.9,5.77,2.26,2.83,1.67,5.91,2.91,8.59,4.87,2.4,1.08,4.62,2.51,7,3.71,9.86,5.45,19.79,10.76,30,15.64,18.59,9.47,37.55,18.05,57.47,24.38,4.88,1.55,9.85,2.75,14.85,3.83,4.31.92,4.56,1.41,3.26,5.49-.15.47-.33.94-.44,1.43-1.12,4.84-1.45,5.07-6.34,3.33-24.93-8.88-49.39-19-73.81-29.11-10.48-4.36-21-8.51-31.33-13.35-4-1.89-8.08-3.57-12-5.66-1-1.11-2.63-1.08-3.78-2l-1.6-1.6C948.19,493.34,945.9,488.36,946.72,483.94Z"/><path class="cls-5" d="M1064.32,687.75c-1,.75-2.87.55-1.73,3,5.8,12.27,11.06,24.82,18.83,36,11.62,16.77,35.23,17.09,47.73.78,2.25-2.94,2.31-5.68,0-8.47-3.15-3.86-6.47-7.59-9.57-11.48-7.31-9.19-12.71-19.32-15.11-30.92-.3-.76,0-1,.76-.93,3.67,11.58,12.25,19.71,20,28.44,3.63,4.11,7.58,8,11,12.26,4.37,5.57,4.28,11.3-.87,16.08-20,18.51-41.57,18.57-59.16-2.21-6.48-7.65-9.59-17.64-12-27.5-1-3.86-2-7.7-2.85-11.59-.31-1.42-.69-2.34-2.32-2.14C1060.61,688,1062.15,686.64,1064.32,687.75Z"/><path class="cls-1" d="M1132.33,561.11a169.29,169.29,0,0,1,.79,25.67c-.07,1.21.3,2.53-.7,3.56-1.39-1.27-1-3-1.07-4.55-.14-4.44.17-8.89-.24-14A41.44,41.44,0,0,0,1118,587.72c-.69,1.45-.59,4.1-2.73,3.83-1.88-.25-1.84-2.72-2.16-4.38a306.49,306.49,0,0,1-5-35.82,12.3,12.3,0,0,0-1.23-4.65c-.56-1.61.71-2.18,1.71-2.79a65.78,65.78,0,0,0,5.85-4.36,67.66,67.66,0,0,0,6.42-5,11.86,11.86,0,0,0,3.36-3c.51-.49,1-.94,1.81-.56,1.61,4,3.37,7.89,4.06,12.17,0,3.79,1.61,7.29,1.84,11.08C1132,556.51,1131.38,558.88,1132.33,561.11Z"/><path class="cls-2" d="M1005,313.17c-5.83-6.46-11.55-13-17.54-19.34-4-4.24-8.54-8-12.66-12.17-1.76-1.78-2.81-1.27-4.2.3a148.8,148.8,0,0,0-19,27.19,79.7,79.7,0,0,0-6.35,15.94c-2.93,9.93-2,19.72,1.5,29.3a143.52,143.52,0,0,0,7.34,17.18c.52.91.53,1.56-.8,1.52-6.41-9.65-12.51-19.47-14.18-31.25-2.14-15.2,2.63-28.76,10.37-41.48,6-9.87,14.05-18.07,21.87-26.46,1-1.07,1.61-1.13,2.67-.12,12.07,11.59,23.48,23.72,31.86,38.37C1006.19,313,1005.78,313.23,1005,313.17Z"/><path class="cls-6" d="M1165.37,380.68c2.52-6.07,6.42-11.43,8.78-17.62,2.83-7.44,6-14.8,6.62-22.81s-1.43-15.76-4.51-23.18c-5.49-13.26-13.69-24.74-23-35.56-1.57-1.83-2.6-1.29-3.93,0-9.1,9-18.38,17.89-26.67,27.71-1.74,2.06-3.55,4.08-5.33,6.11-.7.12-1.16,0-.79-.85,4.26-7.88,10.11-14.62,15.69-21.52a163.94,163.94,0,0,1,19.9-20.23c10.85,9.88,19.18,21.71,25.91,34.54,3.07,5.87,4.85,12.52,6.58,19,2.35,8.82-.11,17.33-3.05,25.59-3.42,9.59-7.3,19-14.08,26.82A25.46,25.46,0,0,1,1165.37,380.68Z"/><path class="cls-4" d="M1126,531l-1.15.78c-1.28,1.37-3,2.18-4.39,3.4-2.09,1.85-4.5,3.25-6.72,4.92A115.62,115.62,0,0,1,1093.51,552c-.9.42-2,1-2.82.25s-.34-1.9.08-2.75a6.75,6.75,0,0,0-.14-6.44,3.27,3.27,0,0,1-.48-2.84c6.2-3.07,12.4-6.11,18-10.19A98.66,98.66,0,0,0,1119,521.1c3.81-3,7.23-6.42,10.82-9.64.62-.33,1.06-1,1.88-.92a1.4,1.4,0,0,1,1,1.13c.08,1.15-.73,2-1,3.07a11.61,11.61,0,0,0-2.4,4.08,27.25,27.25,0,0,1-2.39,4.11C1124.87,525.46,1124.22,528,1126,531Z"/><path class="cls-7" d="M947.27,444.7c.05,6,.08,12.07.17,18.1,0,1.3-.49,2.74.67,3.86a97.82,97.82,0,0,1-1.36,16.48C946.72,470.32,946.24,457.5,947.27,444.7Z"/><path class="cls-8" d="M1132.33,561.11c-.92-6-2.45-11.86-2.27-18,1.88,4.3,2.14,9,3,13.5C1131.75,558,1132.65,559.63,1132.33,561.11Z"/><path class="cls-9" d="M776.61,709.42l-.83-.8a29.22,29.22,0,0,1,6.78-6C781.76,706,778.86,707.4,776.61,709.42Z"/><path class="cls-10" d="M953.33,373.09a1.57,1.57,0,0,0,.8-1.52c1.66,2.93,4.22,5.41,4.48,9A35.43,35.43,0,0,1,953.33,373.09Z"/><path class="cls-11" d="M800,732.62c-1.54-1.4-.85-3.14-.62-4.75.17-1.18.88-2.31-.13-3.42l.8-3c.83-.06,1.08.55,1.33,1.16A16.47,16.47,0,0,1,800,732.62Z"/><path class="cls-12" d="M1005,313.17l.89-1a22.45,22.45,0,0,1,3.68,5.37C1006.71,317.51,1006.22,315,1005,313.17Z"/><path class="cls-13" d="M1134,582.32a63.94,63.94,0,0,1,0-12.45A42.93,42.93,0,0,1,1134,582.32Z"/><path class="cls-14" d="M937.7,506.44l-.87-.81c1.27-1.49,2.55-3,3.83-4.46C941.45,503.93,938.83,504.76,937.7,506.44Z"/><path class="cls-15" d="M793.85,724.39c1.43-1.32,2-3.71,4.58-3.6l-3.73,4.54A1.06,1.06,0,0,1,793.85,724.39Z"/><path class="cls-16" d="M793.85,724.39c.28.31.56.63.85.94a12.72,12.72,0,0,1-3,3.77l-.86-1Z"/><path class="cls-17" d="M1116.58,314.51c.26.28.52.57.79.85-1.31,1.17-1.16,3.86-3.79,3.67A15.77,15.77,0,0,1,1116.58,314.51Z"/><path class="cls-18" d="M800.73,722.34l-.7-.85c0-.54,0-1.07-.08-1.61.22-.74.45-1.48.67-2.21.81.41,1.89.48,2.16,1.62C802.08,720.29,802.48,722,800.73,722.34Z"/><path class="cls-19" d="M1135.35,507.92l.63.72c-.3,1.53-1.38,2.58-2.27,3.75-.63.08-.91-.24-.94-.83a4.66,4.66,0,0,1,.67-2.41C1134,508.58,1134.19,507.52,1135.35,507.92Z"/><path class="cls-20" d="M1129.39,518.82a5,5,0,0,1,2.11-4.2c.26-.36.51-.36.73,0Q1130.82,516.74,1129.39,518.82Z"/><path class="cls-21" d="M1132.23,514.66l-.73,0,.9-2.91c.17-.33.38-.38.65-.1l.66.78Z"/><path class="cls-22" d="M1103.77,674.29c-.74-1-1.11-2,0-2.91l.75,2.19C1104.31,673.82,1104.26,674.3,1103.77,674.29Z"/><path class="cls-23" d="M1103.77,674.29l.79-.72c.24.73.47,1.46.71,2.19l-.76.93C1103.77,676.05,1104,675.1,1103.77,674.29Z"/><path class="cls-13" d="M1133.71,562.61c-1-1.17-.7-2.54-.54-3.88A5.8,5.8,0,0,1,1133.71,562.61Z"/><path class="cls-24" d="M886.79,737.83c-.86.2-1.95.13-1.9-.83s1.17-.62,1.91-.5Z"/><path class="cls-25" d="M731,850.29c.19.88,1.06.5,1.54.83-.84.57-1.82,1.06-2.64.3C729.58,851.14,730.27,850.37,731,850.29Z"/><path class="cls-3" d="M1106.94,546.2c2.92-.18,1.8,2.3,1.89,3.42,1,11.82,2.76,23.51,4.85,35.17.39,2.18.88,4.34,1.54,7.58,3.22-10.21,9.32-17,17.13-23.16.93,7.37-.21,14.26.07,21.13-1,13.23-3,26.26-7.87,38.71-9,23-26,37.61-48.8,45.88-13.89,5-28.48,7.24-42.76,10.68-3,.71-2.32-1-2.16-2.6a167.84,167.84,0,0,1,8.39-36.75q1.62-4.85,3.23-9.68c.79-1.09-.18-2.64.92-3.62.26-.41,0,.24.15-.24s.06-.38,0-.09c-.66.87-.86,2-1.91,2.55-9.95,19.29-17.75,39.21-18,61.34-.22,18.16,7.52,33.26,18.42,47.05,3.32,4.2,7,8.11,10.5,12.18,2,2.37,2.24,4.75.32,7.44-6,8.49-20.87,14-31,11.57-6.35-1.54-10.79-5.54-14.28-10.75-8.17-12.23-13.29-25.88-18.13-39.65a359.82,359.82,0,0,1-16.47-66.66c-1.21-8.16-5.2-15.4-7.65-23.16a7.81,7.81,0,0,1-2.06-3.39,16.61,16.61,0,0,0-2.12-3.82,6.44,6.44,0,0,1-.8-1.87c-1.11-2.63-1.88-5.31-.94-8.17,2.89.26,4.33,2.58,6,4.44,5.73,6.5,10,14,14.2,21.51,6.06,10.91,11.41,22.18,16.5,33.57.34.75.69,1.49,1,2.24l1.24-.18c0-8.9-.26-17.82.05-26.72.8-22.71,2.16-45.38,7.47-67.6a56.4,56.4,0,0,1,6.28-16.34c3.08-5.11,7.44-7,13.31-6,6.72,1.15,12.44,4.32,17.78,8.3,9.6,7.16,17.41,16,24.62,25.52.74,1,1.5,1.93,2.72,3.5a36.4,36.4,0,0,0-1.72-9.95c-.89-3.12-1.82-6.23-2.94-9.27a198.06,198.06,0,0,0-15.6-31.88c-.27-.45-1.51-.92-.26-1.66,1.57-1.16,3.15-.51,4.63.09a175.85,175.85,0,0,0,18.51,6c1.52.43,3.52.6,3.78,2.53.23,1.69-1.56,2.41-2.67,3.35-2.19,1.85-4.51,3.55-6.69,5.41-3.34,2.85-3.43,5.31-.14,8.06,3.54,3,7,6,10.77,8.7,2.52,1.84,5.06,2.06,7.62.3A109.33,109.33,0,0,0,1098.25,571c1.93-1.77,1.85-3.66,0-5.53-2.26-2.35-5-4.16-7.43-6.27-2.85-2.47-2.76-3.55.57-5a70.68,70.68,0,0,0,12.11-6.68C1104.55,546.81,1105.55,546,1106.94,546.2Z"/><path class="cls-3" d="M960.88,625.9l.74.92c.37,2,1.49,3.7,2.1,5.6.72,1.44.24,3.09.8,4.57,1.05,7,3.41,13.67,4,20.73,1.14,13.17,2.05,26.38,5.1,39.29.56,2.36-.88,2.72-2.45,3.25-10.61,3.61-21.2,7.29-31.49,11.73-11.89,5.13-23.15,11.66-35.45,15.87-7.89,2.7-15.8,5.36-24.14,6.37-1.14.32-2.28.73-3.28-.34.18-2,2-2.44,3.29-3.22,12.29-7.3,20.47-18.06,25.62-31.13,6.55-16.65,3.25-32-7.19-46.08a93.5,93.5,0,0,0-6.55-7.6,1.16,1.16,0,0,1-.33-.56c-.16.41.28.54.41.84a63.31,63.31,0,0,1,12.62,31.94c.76,7.87-1.08,15.34-4.13,22.54-5.59,13.24-13.36,24.74-25.85,32.49a24.62,24.62,0,0,1-7.45,3.35c-4.32.72-8.62-.94-12.6-.05,1.42.14,3.17-.4,4.93-.08a65.74,65.74,0,0,0,10.4.55c3.2-.06,6,1.65,9.18,2,5.62,1.56,11.46,2.24,17,4.23a37.33,37.33,0,0,1,8.46,3.9c4.77,3.22,5.42,6.44,2.44,11.42-2.69,4.48-6.86,6.76-11.72,8-6.48,1.65-13.12,1.75-19.71,1.34-14.43-.89-29-.44-43.27-2.94-13.25-2.31-24.07-8.7-29.87-21.67-1.5-3.36-1.75-7-2.52-10.5l.75-10.28c1.26-.63-.34-3.18,2-3.05a9.43,9.43,0,0,0,4.38,3,6.84,6.84,0,0,1,2.68,1.05,18.58,18.58,0,0,0,2.77,2,1.46,1.46,0,0,1,.18.09,2.21,2.21,0,0,0-.16-.17,11,11,0,0,1-2.5-1.83,10,10,0,0,1-2-2,79.32,79.32,0,0,1-15-18c.21-1.88,1.49-.89,2.2-.67,17.81,5.35,32.86,14.38,41.31,31.83,1.39,2.89,2.54,1.28,3.86.37,16.83-11.58,27.36-27.71,33.37-46.94a133.77,133.77,0,0,0,5.57-52.08c-.26-2.92.32-3.52,3.1-2.25,8,3.68,14.28,9.48,19.65,16.32A88.18,88.18,0,0,1,915,672.31c1.13,2.86,2.84,3.47,5.45,3a38,38,0,0,0,26-16.7c5.23-7.74,8.39-16.37,10.66-25.37.21-.83.52-1.64.78-2.46,1-1.79,0-4.36,2.29-5.6A.67.67,0,0,1,960.88,625.9Z"/><path class="cls-26" d="M1106.94,546.2a64.16,64.16,0,0,1-18.14,10c3.31,2.71,6.4,5.19,9.44,7.74,3.55,3,3.57,5.6,0,8.59s-7.11,5.87-10.72,8.72-6.77,2.84-10.21.18q-5.6-4.35-11-8.94c-3.4-2.88-3.32-5.72.18-8.66s6.85-5.59,10.92-8.91c-9.87-2.13-18.34-6-27.38-8.16-1.53-2.33-4.32-2-6.48-2.8-18.67-7.25-37.19-14.87-55.28-23.47-9.67-4.6-19.25-9.4-28.87-14.1.26-1.73,1.3-1.07,2.24-.73C976.33,511.78,991,518,1005.75,524c20.62,8.46,41.26,16.88,62.3,24.25,2.19.77,4.8,2.2,3.9-2.3,0-.12.09-.25.08-.36-.27-1.92,2.94-3.57,1-5.19-1.34-1.13-3.79-.91-5.73-1.36-16.21-3.75-31.58-9.9-46.7-16.69-7.83-3.51-15.73-6.92-23.13-11.32,0-1.35.62-1.38,1.59-.87,8,3.64,16,7.31,24,10.89,4.41,2,8.88,3.77,13.32,5.64,1.69-.88,3.15.11,4.6.68a206,206,0,0,0,28.83,9c3.64.84,7.27,1.66,11.05.73a6.79,6.79,0,0,1,4.73.58c1.31,1.43,4.28-.3,4.84,2.54,1.78,3.73,3.63,7.45.3,11.54,8.41-3,15.58-7.75,22.83-12.37.83-.46,1.48-.56,1.49.71Z"/><path class="cls-27" d="M961.62,505.67c-.81.06-1.7-.16-2.24.73-3.5-2-7.57-3-10.54-6a.52.52,0,0,1,.84-.05A91.4,91.4,0,0,1,961.62,505.67Z"/><path class="cls-28" d="M960.88,625.9l-.79-.35c-.7-.57-.89-1.46-1.38-2.16,0-2.06-.74-4.19.64-6.1C958.43,620.41,960.88,622.94,960.88,625.9Z"/><path class="cls-3" d="M958.71,623.39c1.18.26,1.36,1.16,1.38,2.16-1.54,1.41-.84,3.77-2.25,5.24Z"/><path class="cls-29" d="M949.68,500.39l-.84.05a3.63,3.63,0,0,1-2.94-1.64A5.48,5.48,0,0,1,949.68,500.39Z"/><path class="cls-3" d="M1085.2,538.58a7.46,7.46,0,0,0-2.48-.57c-11,1.68-20.8-2.73-30.87-5.73-5.23-1.56-10.29-3.72-15.43-5.6-10.24-14.15-20.37-28.43-32.78-40.78-13.38-13.3-21.14-29.42-25.21-47.53a46,46,0,0,1-.37-19.68c.09-.41.58-2.25,1.28-4.21,0,0,.47-1.32,1.08-2.59.23-.49.49-.92.49-.92a33.14,33.14,0,0,1,1.8-2.8c3.88-5.27,8.71-6.66,14.8-4.23a33.87,33.87,0,0,1,7.68,4.71c-.47-13.12-.19-25.65,13.49-32,11.94-5.54,21.82-2.87,38.61,9.78,4-13,7.91-25.86,11.86-38.74l.9-.14c4,13.11,7.93,26.22,11.81,39.05,2-1.74,4.11-3.41,6.06-5.2,9-8.25,19-10.1,29.26-5.34,9.69,4.49,13.73,12.54,14.29,22.76.08,1.37,0,2.75,0,4.12s-1.19,2.77.68,3.71c.3-.4.59-.81.9-1.2,3.45-4.22,7.44-7.79,13.32-6.63,6.17,1.21,8.8,6.16,10.22,11.71,2.74,10.72.58,21-3.11,31.12-4,10.93-10.57,20.29-17.7,29.32-4.33,5.48-8.63,11-13,16.43-9.68,12.11-15,25.74-14.6,41.41-3.75,4.71-9.09,7-14.39,9.24A12.72,12.72,0,0,1,1085.2,538.58Z"/><path class="cls-30" d="M1085.2,538.58c4.44.78,8.19-1.25,12-3a73.05,73.05,0,0,0,11-6.75l10.62-8.19c.74-.25.9.09.76.74-8.48,8.19-17.59,15.4-29.14,18.83C1089.1,538.39,1086.55,540.43,1085.2,538.58Z"/><path class="cls-31" d="M999.08,510.15a1.64,1.64,0,0,0-1.59.87c-10.35-4.56-20.11-10.22-29.86-15.88-.17-.66,0-1,.74-.73Z"/><path class="cls-32" d="M1119.61,521.36l-.76-.74c3.91-3.08,6.82-7.32,11.26-9.79.23.18.31.36.23.54s-.16.27-.24.27A58.62,58.62,0,0,1,1119.61,521.36Z"/><path class="cls-33" d="M960.88,491.39c-2.83-1.68-6-2.85-8.39-5.19a18.78,18.78,0,0,1,8.4,4.41c.26.18.34.35.25.52S961,491.39,960.88,491.39Z"/><path class="cls-34" d="M960.88,491.39c0-.26,0-.52,0-.78a25,25,0,0,1,7.48,3.8l-.74.73Z"/><path class="cls-35" d="M1132.19,406.65c-.36.44-.63,2.21-1.28.45a5.11,5.11,0,0,1,.6-4.16C1132.09,404.11,1131.11,405.57,1132.19,406.65Z"/><path class="cls-36" d="M1130.1,511.64c0-.27,0-.54,0-.81a7.28,7.28,0,0,1,3.06-2.91,1.31,1.31,0,0,1,.37.9,2.64,2.64,0,0,1-2,2Z"/><path class="cls-37" d="M1133.14,508.69l0-.77,1.44-1.46c.7-.27,1,0,.88.71,0,.25-.1.5-.14.75l-1.42,1.56C1133.45,509.43,1133.36,509,1133.14,508.69Z"/><path class="cls-19" d="M1135.49,507.17l-.88-.71a4.62,4.62,0,0,1,2.22-2.31A4.42,4.42,0,0,1,1135.49,507.17Z"/><path class="cls-38" d="M867.26,735.66a41.49,41.49,0,0,0,13.06-7.77,69.45,69.45,0,0,0,22-35.63c4.1-15.38-.65-29.2-8.68-42.22l-2.53-4.1c-.24-.83.11-1.1.91-1,15.64,14.3,26.46,38.63,9.2,65.81-6.15,9.7-14,17.48-24.23,22.72a3.11,3.11,0,0,1-2,1.38c-.55.09-1.07.26-1.62.34.19.23.58.23.64.59.3,3.47,4.09.94,5.19,3-5.42-.38-10.85-.68-16.25-1.21-1.3-.12-3,.45-3.88-1.22,1.91-.78,3.91-.16,5.86-.37a16.13,16.13,0,0,0,6.62.65,26.9,26.9,0,0,1-4.3-.12A.67.67,0,0,1,867.26,735.66Z"/><path class="cls-39" d="M909.26,733.37c18.29-5.51,35.65-13.53,54.33-17.34,3.19-.66,4.1,0,3.26,3.27-1.32,5.14-4.78,8.64-9.48,10.89-4.93,2.37-10.28,3-15.62,3.13C930.92,733.49,920.09,733.37,909.26,733.37Z"/><path class="cls-40" d="M964.52,637a12.12,12.12,0,0,1-1.48-4.61c-.29-.82-.64-1.67.82-1.6.58,1.21,1.53,2.29,1.41,3.76C964.42,635.17,964.75,636.17,964.52,637Z"/><path class="cls-41" d="M1041.59,635.18c.53-1.23.8-2.6,1.86-3.57,1.36,0,.83.86.62,1.55-1,.92-.23,2.68-1.62,3.42A1.53,1.53,0,0,0,1041.59,635.18Z"/><path class="cls-42" d="M874.81,734.23l2.21-.72c.86,1,2.1.33,3.1.72-1.14.81-2.51.6-3.78.81C875.6,735.21,874.7,735.66,874.81,734.23Z"/><path class="cls-43" d="M874.81,734.23c.27.72,1,.55,1.53.81l-2.34.78-2.28-.45Z"/><path class="cls-44" d="M971.32,363.91c-1.11-5.86-.41-10.68.1-15.47a130.74,130.74,0,0,1,5-24.11c.42-1.41.54-3,2.48-1.12,4.58,4.41,9.22,8.76,13.86,13.1.86.79,1.33,1.48.25,2.42C984.79,345.88,978.18,354.44,971.32,363.91Z"/><path class="cls-44" d="M1153.41,361.29a123.45,123.45,0,0,0-21.34-22.73c-1.41-1.13-1.06-1.87.08-2.93q6.6-6.09,13.06-12.33c1.2-1.15,2-1.39,2.5.53C1151,335.74,1153.89,347.71,1153.41,361.29Z"/><path class="cls-3" d="M790.84,788.16c9,8.68,9.07,23.5-.23,33.4-8.21,8.73-18.71,13.94-29.69,18.21-3.23,1.25-6.59,2.14-10.68,3.45.9-1.69,1.42-2.69,2-3.68a30.87,30.87,0,0,0,3.11-23.82c-.51-1.91-1.25-3-3.56-2.76a16.12,16.12,0,0,1-10.31-2.71c-12.65-7.7-21.39-18.56-23.77-33.29-2.6-16.11,4.4-28.83,16.43-39.05a82.7,82.7,0,0,1,8.06-5.41c1.85,1.39.1,2.76-.26,3.88-3.7,11.57-4.94,23.19-1.08,34.94A43.64,43.64,0,0,0,757,793.48c-1.38-13.42-.51-20.62,3.82-31C767.72,775,778,783.11,790.84,788.16Z"/><path class="cls-45" d="M808.09,721.44c1.15-.14,1.65.75,2.28,1.43.09.82-.16,1.25-1.06,1a3.52,3.52,0,0,1-2.15-1.54Z"/><path class="cls-46" d="M1115.09,540.07c-.32-.6-.91-.66-1.49-.71l6.7-4.54a.52.52,0,0,1,.9.07C1119.71,537.26,1117.22,538.45,1115.09,540.07Z"/><path class="cls-47" d="M1121.2,534.89l-.9-.07a10.3,10.3,0,0,1,4.55-3.07C1124.06,533.29,1123.06,534.59,1121.2,534.89Z"/><path class="cls-48" d="M1133.14,508.69l.79.79c-.3.71-.59,1.42-.88,2.13-.22,0-.43.08-.65.1l-.87-.86Z"/><path class="cls-49" d="M963.86,630.78c-.77.28-.61,1-.82,1.6-.73-1.79-2.21-3.38-1.42-5.56A7.65,7.65,0,0,1,963.86,630.78Z"/><path class="cls-50" d="M1044.07,633.16l-.62-1.55c.35-.69.72-2.19,1.44-1.54C1045.87,631,1044.67,632.18,1044.07,633.16Z"/><path class="cls-51" d="M867.26,735.66l-.3.61c-.27.65-.72.48-1.17.24l-6.73-.1c-2.6,1.13-5.12,1-8.39-.75Z"/><path class="cls-52" d="M809.31,723.82l1.06-1c1,.72,2.48.9,2.38,2.59v.07C811.13,725.89,810.32,724.65,809.31,723.82Z"/><path class="cls-53" d="M812.74,725.53v-.08c1.42-.3,2.16.48,3,2.25C814.28,727,813.11,726.92,812.74,725.53Z"/><path class="cls-54" d="M892.05,645l-.91,1-2.89-2.1C890.55,643.18,891.41,643.83,892.05,645Z"/><path class="cls-55" d="M1098.13,568.25a3.69,3.69,0,0,1-1.68,2.76c-3.58,2.89-7.17,5.76-10.71,8.7-2.41,2-4.68,1.86-7-.09q-5.16-4.29-10.4-8.48c-2.48-2-2.4-3.82,0-5.76,3.58-2.89,7.1-5.84,10.69-8.72,1.94-1.56,4-2,6.13-.31,3.89,3.09,7.73,6.24,11.59,9.38A3.23,3.23,0,0,1,1098.13,568.25Z"/><path class="cls-56" d="M1082.31,539.9c4.4,0,8.13,3,8.07,6.56s-3.86,6.5-8.22,6.43c-4.2-.06-7.8-3-7.89-6.39S1077.9,539.9,1082.31,539.9Z"/><path class="cls-2" d="M865.79,736.51l1.17-.24a12,12,0,0,1,6.38.91C870.23,736.92,867.94,737.8,865.79,736.51Z"/><path class="cls-57" d="M1082.74,489.42a52.51,52.51,0,0,1-30.46.11c3.68-1.92,7.27-3.15,10.08-5.68,1.65-1.47,3.38-4,5-4s3.33,2.62,5,4.06C1075.17,486.28,1078.45,487.73,1082.74,489.42Z"/><path class="cls-3" d="M979.34,414.48c2.79-6.8,6.37-15.11,10.81-24.46,1.66-3.51,6.92-14.5,14.65-28.55,1.48-2.69,7.61-13.8,16.67-28.29,8.44-13.48,13.45-20.36,21.22-26.91a39.69,39.69,0,0,1,12.51-7.58,33.47,33.47,0,0,1,18.57-1.51c6.72,1.48,10.86,4.83,17,9.85,5.72,4.64,9.65,9.18,15.11,16,9.09,11.39,15.73,21,20.13,27.55,9.45,14,14.27,21,17.81,27.66A167.4,167.4,0,0,1,1156,407.58"/><path class="cls-58" d="M1029.05,320.83c.41-.6,1-1.45,1.71-2.46.22-.31.58-.82,1-1.3.82-1.09,1.5-1.85,2.9-3.41l2.75-3c.86-.91,2.13-2.26,3.82-3.79a45.36,45.36,0,0,1,5.65-4.51,41.3,41.3,0,0,1,5.4-3.07,35.1,35.1,0,0,1,5.72-2.14,36.23,36.23,0,0,1,5.81-1.08,33.74,33.74,0,0,1,5.43-.19A27.06,27.06,0,0,1,1076,297a28.14,28.14,0,0,1,4.26,1.7,38.62,38.62,0,0,1,4.39,2.53,67.78,67.78,0,0,1,6.06,4.77c1.7,1.42,2.55,2.13,3.73,3.22,1.68,1.55,2.85,2.78,4,4s3.12,3.3,5.4,6.12c1.22,1.52,2.68,3.41,4.23,5.66"/><path class="cls-59" d="M1040,305.34c.19,5.47,22.45,8.78,27.52,9.49,5.06-.71,27.33-4,27.51-9.49.15-4.47-14.48-9.49-27.51-9.49S1039.84,300.87,1040,305.34Z"/><path class="cls-58" d="M1067.39,313.66a13.67,13.67,0,0,0-.06,6.07c2.32,10.35,17.78,17.64,38.27,18.94"/><path class="cls-58" d="M1066.65,314.83a13.82,13.82,0,0,1,.06,6.07c-2.32,10.35-17.78,17.64-38.27,18.94"/><path class="cls-59" d="M1049.5,336.08c1.49,3.36,1.76,7.11,2.46,10.72s2,7.36,4.91,9.61a14.66,14.66,0,0,0,7.37,2.55c4.61.52,9.53,0,13.38-2.53a17.32,17.32,0,0,0,6.28-8.21,33.1,33.1,0,0,0,2-10.26,3.68,3.68,0,0,0-.51-2.56,4.18,4.18,0,0,0-2.37-1.12A24.43,24.43,0,0,1,1066.89,321c-.09,4.07-2.88,7.49-5.92,9.95A28.61,28.61,0,0,1,1049.5,336.08Z"/><text class="cls-60" transform="matrix(0.63, -0.77, 0.77, 0.63, 1096.68, 305.34)">W</text></svg>